<svg width="311" height="97" viewBox="0 0 311 97" fill="none" xmlns="http://www.w3.org/2000/svg">
<line x1="77.9935" y1="20.5" x2="310.993" y2="17.4609" stroke="black"/>
<line x1="72.9979" y1="96.5" x2="310.998" y2="95.5" stroke="black"/>
<path d="M114.5 0L117.082 6.21885H125.437L118.678 10.0623L121.26 16.2812L114.5 12.4377L107.74 16.2812L110.322 10.0623L103.563 6.21885H111.918L114.5 0Z" fill="#F7A43C"/>
<path d="M137.5 0L140.082 6.21885H148.437L141.678 10.0623L144.26 16.2812L137.5 12.4377L130.74 16.2812L133.322 10.0623L126.563 6.21885H134.918L137.5 0Z" fill="#F7A43C"/>
<path d="M160.5 0L163.082 6.21885H171.437L164.678 10.0623L167.26 16.2812L160.5 12.4377L153.74 16.2812L156.322 10.0623L149.563 6.21885H157.918L160.5 0Z" fill="#F7A43C"/>
<path d="M206.5 0L209.082 6.21885H217.437L210.678 10.0623L213.26 16.2812L206.5 12.4377L199.74 16.2812L202.322 10.0623L195.563 6.21885H203.918L206.5 0Z" fill="#F7A43C"/>
<path d="M183.5 0L186.082 6.21885H194.437L187.678 10.0623L190.26 16.2812L183.5 12.4377L176.74 16.2812L179.322 10.0623L172.563 6.21885H180.918L183.5 0Z" fill="#F7A43C"/>
<path d="M85.0686 5.566H81.9046V8.296C82.4366 7.86667 83.0713 7.652 83.8086 7.652C84.4526 7.652 84.9333 7.84333 85.2506 8.226C85.5773 8.59933 85.7406 9.20133 85.7406 10.032V10.536C85.7406 12.2907 84.8306 13.168 83.0106 13.168C82.684 13.168 82.3246 13.1353 81.9326 13.07C81.5406 13.014 81.1953 12.944 80.8966 12.86V11.894C81.1673 11.95 81.5266 12.0107 81.9746 12.076C82.4226 12.132 82.7586 12.16 82.9826 12.16C83.496 12.16 83.8833 12.0247 84.1446 11.754C84.4153 11.474 84.5506 11.068 84.5506 10.536V9.99C84.5506 9.094 84.2053 8.646 83.5146 8.646C83.1413 8.646 82.81 8.716 82.5206 8.856C82.2406 8.996 81.956 9.22933 81.6666 9.556H80.7566V4.544H85.0686V5.566ZM87.6536 11.46C88.1856 11.46 88.4516 11.6793 88.4516 12.118V12.524C88.4516 12.7293 88.3816 12.888 88.2416 13C88.1109 13.112 87.9149 13.168 87.6536 13.168C87.4016 13.168 87.2056 13.112 87.0656 13C86.9349 12.888 86.8696 12.7293 86.8696 12.524V12.118C86.8696 11.9033 86.9349 11.74 87.0656 11.628C87.2056 11.516 87.4016 11.46 87.6536 11.46ZM92.4434 4.418C93.2834 4.418 93.9227 4.66067 94.3614 5.146C94.8094 5.622 95.0334 6.336 95.0334 7.288V10.298C95.0334 11.25 94.8094 11.9687 94.3614 12.454C93.9227 12.93 93.2834 13.168 92.4434 13.168C91.6034 13.168 90.9594 12.93 90.5114 12.454C90.0727 11.9687 89.8534 11.25 89.8534 10.298V7.288C89.8534 6.336 90.0727 5.622 90.5114 5.146C90.9594 4.66067 91.6034 4.418 92.4434 4.418ZM92.4434 5.426C91.51 5.426 91.0434 6.00933 91.0434 7.176V10.41C91.0434 11.5767 91.51 12.16 92.4434 12.16C93.3767 12.16 93.8434 11.5767 93.8434 10.41V7.176C93.8434 6.00933 93.3767 5.426 92.4434 5.426Z" fill="#D81111"/>
<line x1="79" y1="15.5" x2="97" y2="15.5" stroke="#D81111"/>
<path d="M98.8753 76L95.6704 70.7711H92.2969V76H89.4295V62.241H96.2969C97.9355 62.241 99.1965 62.5944 100.08 63.3012C100.98 64.008 101.429 65.0201 101.429 66.3373C101.429 67.3012 101.156 68.1365 100.61 68.8434C100.064 69.5341 99.3251 69.992 98.3933 70.2169L102.104 76H98.8753ZM98.5379 66.4578C98.5379 65.1406 97.6865 64.4819 95.9837 64.4819H92.2969V68.5301H96.0801C96.8833 68.5301 97.4937 68.3534 97.9114 68C98.3291 67.6305 98.5379 67.1165 98.5379 66.4578ZM113.357 71.9759C113.357 73.1486 112.955 74.0643 112.152 74.7229C111.365 75.3655 110.2 75.7189 108.658 75.7831V77.494H107.598V75.8072C106.2 75.759 105.108 75.4297 104.321 74.8193C103.534 74.2088 103.02 73.2771 102.779 72.0241L105.285 71.5663C105.413 72.3052 105.654 72.8434 106.008 73.1807C106.377 73.5181 106.907 73.7189 107.598 73.7831V69.9759C107.582 69.9598 107.534 69.9438 107.453 69.9277C107.373 69.9116 107.317 69.9036 107.285 69.9036C106.225 69.6627 105.429 69.3815 104.899 69.0602C104.369 68.7229 103.951 68.3052 103.646 67.8072C103.357 67.2932 103.212 66.6747 103.212 65.9518C103.212 64.8755 103.582 64.0402 104.321 63.4458C105.076 62.8514 106.168 62.5221 107.598 62.4578V61.1566H108.658V62.4578C109.51 62.49 110.216 62.6265 110.779 62.8675C111.357 63.1084 111.815 63.4618 112.152 63.9277C112.506 64.3775 112.795 65.0281 113.02 65.8795L110.441 66.2651C110.345 65.7028 110.152 65.2691 109.863 64.9639C109.574 64.6426 109.172 64.4498 108.658 64.3855V67.8072L108.755 67.8313C108.947 67.8313 109.526 67.992 110.49 68.3133C111.453 68.6185 112.168 69.0763 112.634 69.6867C113.116 70.2972 113.357 71.0602 113.357 71.9759ZM107.598 64.3373C106.393 64.4337 105.783 64.9558 105.767 65.9036C105.767 66.1928 105.815 66.4337 105.911 66.6265C106.024 66.8032 106.176 66.9558 106.369 67.0843C106.562 67.2129 106.972 67.3815 107.598 67.5904V64.3373ZM110.803 72.0241C110.803 71.7028 110.747 71.4378 110.634 71.2289C110.522 71.0201 110.353 70.8514 110.128 70.7229C109.903 70.5944 109.413 70.4177 108.658 70.1928V73.7831C110.088 73.6867 110.803 73.1004 110.803 72.0241ZM129.426 72.1205C129.426 73.4056 129 74.4096 128.149 75.1325C127.297 75.8394 126.077 76.1928 124.486 76.1928C122.912 76.1928 121.691 75.8394 120.824 75.1325C119.972 74.4257 119.546 73.4297 119.546 72.1446C119.546 71.261 119.803 70.5221 120.318 69.9277C120.832 69.3173 121.514 68.9398 122.366 68.7952V68.7711C121.627 68.6104 121.024 68.241 120.558 67.6627C120.109 67.0843 119.884 66.4257 119.884 65.6867C119.884 64.5622 120.277 63.6707 121.065 63.012C121.868 62.3534 123 62.0241 124.462 62.0241C125.956 62.0241 127.097 62.3454 127.884 62.988C128.687 63.6145 129.089 64.5141 129.089 65.6867C129.089 66.4418 128.864 67.1084 128.414 67.6867C127.964 68.249 127.354 68.6024 126.583 68.747V68.7952C127.466 68.9398 128.157 69.3012 128.655 69.8795C129.169 70.4578 129.426 71.2048 129.426 72.1205ZM126.269 65.8554C126.269 65.1968 126.117 64.7149 125.811 64.4096C125.506 64.1044 125.056 63.9518 124.462 63.9518C123.273 63.9518 122.679 64.5863 122.679 65.8554C122.679 67.1727 123.281 67.8233 124.486 67.8072C125.081 67.8072 125.522 67.6627 125.811 67.3735C126.117 67.0683 126.269 66.5622 126.269 65.8554ZM126.583 71.9036C126.583 70.4578 125.868 69.7349 124.438 69.7349C123.779 69.7349 123.265 69.9277 122.896 70.3133C122.542 70.6827 122.366 71.2209 122.366 71.9277C122.366 72.7309 122.542 73.3253 122.896 73.7108C123.249 74.0803 123.787 74.2651 124.51 74.2651C125.217 74.2651 125.739 74.0803 126.077 73.7108C126.414 73.3414 126.583 72.739 126.583 71.9036ZM140.419 68.8916C140.419 71.3333 139.969 73.1647 139.069 74.3855C138.186 75.5904 136.925 76.1928 135.286 76.1928C134.081 76.1928 133.134 75.9357 132.443 75.4217C131.752 74.9076 131.262 74.0884 130.973 72.9639L133.551 72.6024C133.808 73.5663 134.395 74.0482 135.31 74.0482C136.081 74.0482 136.668 73.6787 137.069 72.9398C137.487 72.2008 137.704 71.1084 137.72 69.6627C137.479 70.1446 137.069 70.5301 136.491 70.8193C135.929 71.0924 135.326 71.2289 134.684 71.2289C133.479 71.2289 132.515 70.8193 131.792 70C131.085 69.1647 130.732 68.0482 130.732 66.6506C130.732 65.2048 131.15 64.0723 131.985 63.253C132.82 62.4337 134.001 62.0241 135.527 62.0241C137.182 62.0241 138.411 62.5944 139.214 63.7349C140.017 64.8755 140.419 66.5944 140.419 68.8916ZM137.503 66.988C137.503 66.1365 137.318 65.4618 136.949 64.9639C136.579 64.4498 136.081 64.1928 135.455 64.1928C134.844 64.1928 134.363 64.4096 134.009 64.8434C133.672 65.2771 133.503 65.8875 133.503 66.6747C133.503 67.4297 133.672 68.0402 134.009 68.506C134.363 68.9558 134.852 69.1807 135.479 69.1807C136.057 69.1807 136.539 68.988 136.925 68.6024C137.31 68.2008 137.503 67.6627 137.503 66.988ZM145.363 75.3494C145.363 76.1365 145.275 76.8273 145.098 77.4217C144.938 78.0161 144.673 78.5703 144.303 79.0843H142.496C142.881 78.6185 143.195 78.1124 143.436 77.5663C143.677 77.0201 143.797 76.498 143.797 76H142.544V73.012H145.363V75.3494ZM157.007 69.1084C157.007 71.4378 156.605 73.2048 155.802 74.4096C154.999 75.5984 153.802 76.1928 152.211 76.1928C149.063 76.1928 147.489 73.8313 147.489 69.1084C147.489 67.4538 147.657 66.1124 147.995 65.0843C148.348 64.0402 148.87 63.2691 149.561 62.7711C150.252 62.2731 151.159 62.0241 152.284 62.0241C153.906 62.0241 155.095 62.6185 155.85 63.8072C156.621 64.9799 157.007 66.747 157.007 69.1084ZM154.236 69.1084C154.236 67.8394 154.171 66.8594 154.043 66.1687C153.93 65.4618 153.738 64.9558 153.464 64.6506C153.191 64.3454 152.79 64.1928 152.26 64.1928C151.713 64.1928 151.296 64.3454 151.007 64.6506C150.734 64.9558 150.533 65.4618 150.404 66.1687C150.292 66.8594 150.236 67.8394 150.236 69.1084C150.236 70.3614 150.3 71.3414 150.428 72.0482C150.557 72.755 150.758 73.2691 151.031 73.5904C151.304 73.8956 151.705 74.0482 152.236 74.0482C152.75 74.0482 153.143 73.8876 153.416 73.5663C153.705 73.2289 153.914 72.7068 154.043 72C154.171 71.2932 154.236 70.3293 154.236 69.1084ZM168.12 69.1084C168.12 71.4378 167.718 73.2048 166.915 74.4096C166.112 75.5984 164.915 76.1928 163.325 76.1928C160.176 76.1928 158.602 73.8313 158.602 69.1084C158.602 67.4538 158.77 66.1124 159.108 65.0843C159.461 64.0402 159.983 63.2691 160.674 62.7711C161.365 62.2731 162.273 62.0241 163.397 62.0241C165.019 62.0241 166.208 62.6185 166.963 63.8072C167.734 64.9799 168.12 66.747 168.12 69.1084ZM165.349 69.1084C165.349 67.8394 165.285 66.8594 165.156 66.1687C165.044 65.4618 164.851 64.9558 164.578 64.6506C164.305 64.3454 163.903 64.1928 163.373 64.1928C162.827 64.1928 162.409 64.3454 162.12 64.6506C161.847 64.9558 161.646 65.4618 161.517 66.1687C161.405 66.8594 161.349 67.8394 161.349 69.1084C161.349 70.3614 161.413 71.3414 161.542 72.0482C161.67 72.755 161.871 73.2691 162.144 73.5904C162.417 73.8956 162.819 74.0482 163.349 74.0482C163.863 74.0482 164.256 73.8876 164.53 73.5663C164.819 73.2289 165.028 72.7068 165.156 72C165.285 71.2932 165.349 70.3293 165.349 69.1084Z" fill="#D81111"/>
<path d="M82.8416 39.174C82.8416 39.5193 82.7716 39.8553 82.6316 40.182C82.5009 40.4993 82.3049 40.7747 82.0436 41.008C81.7916 41.232 81.4836 41.3767 81.1196 41.442C81.5862 41.5073 81.9782 41.6707 82.2956 41.932C82.6222 42.184 82.8696 42.5013 83.0376 42.884C83.2149 43.2667 83.3036 43.6867 83.3036 44.144C83.3036 44.7507 83.1916 45.2453 82.9676 45.628C82.7436 46.0013 82.4402 46.2907 82.0576 46.496C81.6749 46.692 81.2456 46.8273 80.7696 46.902C80.2936 46.9673 79.8082 47 79.3136 47H76.5416V37.732C76.5416 37.7227 76.5229 37.648 76.4856 37.508C76.4576 37.368 76.4296 37.2233 76.4016 37.074C76.3736 36.9247 76.3549 36.836 76.3456 36.808H79.7476C80.1489 36.808 80.5316 36.8453 80.8956 36.92C81.2689 36.9853 81.6002 37.1067 81.8896 37.284C82.1882 37.4613 82.4216 37.704 82.5896 38.012C82.7576 38.3107 82.8416 38.698 82.8416 39.174ZM81.4836 39.202C81.4836 38.8287 81.3996 38.5393 81.2316 38.334C81.0729 38.1287 80.8582 37.984 80.5876 37.9C80.3169 37.816 80.0229 37.774 79.7056 37.774H77.8436V41.022H79.3416C79.7802 41.022 80.1582 40.966 80.4756 40.854C80.7929 40.742 81.0402 40.5553 81.2176 40.294C81.3949 40.0233 81.4836 39.6593 81.4836 39.202ZM81.9176 43.934C81.9176 43.458 81.7916 43.08 81.5396 42.8C81.2969 42.5107 80.9796 42.3053 80.5876 42.184C80.2049 42.0533 79.8082 41.988 79.3976 41.988H77.8436V46.034H79.3976C79.8922 46.034 80.3262 45.978 80.6996 45.866C81.0822 45.7447 81.3809 45.53 81.5956 45.222C81.8102 44.914 81.9176 44.4847 81.9176 43.934ZM87.4932 39.874C88.2305 39.874 88.7858 40.0747 89.1592 40.476C89.5325 40.8773 89.7192 41.442 89.7192 42.17V45.656C89.7192 45.852 89.7565 45.9873 89.8312 46.062C89.9058 46.1273 89.9945 46.16 90.0972 46.16C90.1812 46.16 90.2698 46.1507 90.3632 46.132C90.4565 46.104 90.5452 46.0713 90.6292 46.034L90.8812 46.79C90.7318 46.874 90.5405 46.9487 90.3072 47.014C90.0832 47.0887 89.8498 47.126 89.6072 47.126C89.3645 47.126 89.1452 47.0607 88.9492 46.93C88.7532 46.79 88.6318 46.538 88.5852 46.174C88.3145 46.4633 87.9972 46.7013 87.6332 46.888C87.2692 47.0653 86.8865 47.154 86.4852 47.154C85.9345 47.154 85.4772 46.9907 85.1132 46.664C84.7492 46.3373 84.5672 45.8893 84.5672 45.32C84.5672 44.788 84.6932 44.3633 84.9452 44.046C85.2065 43.7287 85.5425 43.4907 85.9532 43.332C86.3638 43.1733 86.7978 43.066 87.2552 43.01C87.7218 42.954 88.1558 42.926 88.5572 42.926V42.184C88.5572 41.9227 88.5245 41.6893 88.4592 41.484C88.3938 41.2693 88.2772 41.1013 88.1092 40.98C87.9412 40.8493 87.7032 40.784 87.3952 40.784C87.0405 40.784 86.6998 40.854 86.3732 40.994C86.0465 41.134 85.7198 41.3393 85.3932 41.61L84.8192 40.784C85.2018 40.476 85.6218 40.2473 86.0792 40.098C86.5365 39.9487 87.0078 39.874 87.4932 39.874ZM88.5572 43.836C88.3052 43.836 88.0205 43.85 87.7032 43.878C87.3858 43.8967 87.0778 43.9527 86.7792 44.046C86.4805 44.13 86.2332 44.27 86.0372 44.466C85.8505 44.662 85.7572 44.9327 85.7572 45.278C85.7572 45.586 85.8598 45.8147 86.0652 45.964C86.2798 46.104 86.5458 46.174 86.8632 46.174C87.1992 46.174 87.4932 46.0807 87.7452 45.894C87.9972 45.7073 88.1932 45.4693 88.3332 45.18C88.4825 44.8907 88.5572 44.592 88.5572 44.284V43.836ZM92.8011 39.93C92.8665 40.0887 92.9225 40.252 92.9691 40.42C93.0158 40.588 93.0485 40.756 93.0671 40.924C93.3471 40.644 93.6785 40.4013 94.0611 40.196C94.4438 39.9813 94.8358 39.874 95.2371 39.874C95.7505 39.874 96.1611 39.9813 96.4691 40.196C96.7865 40.4107 97.0151 40.7047 97.1551 41.078C97.2951 41.442 97.3651 41.8667 97.3651 42.352V47H96.2171V42.73C96.2171 42.4407 96.1938 42.156 96.1471 41.876C96.1098 41.596 96.0071 41.3673 95.8391 41.19C95.6805 41.0033 95.4145 40.91 95.0411 40.91C94.8171 40.91 94.5885 40.9567 94.3551 41.05C94.1218 41.134 93.9025 41.246 93.6971 41.386C93.4918 41.526 93.3051 41.6753 93.1371 41.834V47H91.9891V42.072C91.9891 41.8853 91.9751 41.6707 91.9471 41.428C91.9191 41.176 91.8725 40.9333 91.8071 40.7C91.7418 40.4573 91.6485 40.2567 91.5271 40.098L92.8011 39.93ZM100.821 36.332V40.868C101.12 40.588 101.442 40.35 101.787 40.154C102.133 39.958 102.515 39.86 102.935 39.86C103.449 39.86 103.859 39.9673 104.167 40.182C104.475 40.3967 104.699 40.6907 104.839 41.064C104.979 41.428 105.049 41.8527 105.049 42.338V47H103.901V42.716C103.901 42.4267 103.878 42.1467 103.831 41.876C103.794 41.596 103.696 41.3627 103.537 41.176C103.379 40.9893 103.113 40.896 102.739 40.896C102.506 40.896 102.273 40.9427 102.039 41.036C101.815 41.1293 101.601 41.246 101.395 41.386C101.19 41.526 100.999 41.6707 100.821 41.82V47H99.6734V37.158L99.4914 36.332H100.821ZM109.892 47.182C109.21 47.182 108.636 47.014 108.17 46.678C107.712 46.3327 107.367 45.8847 107.134 45.334C106.91 44.7833 106.798 44.1953 106.798 43.57C106.798 43.1033 106.868 42.6507 107.008 42.212C107.148 41.764 107.353 41.3673 107.624 41.022C107.894 40.6673 108.226 40.3873 108.618 40.182C109.019 39.9767 109.472 39.874 109.976 39.874C110.666 39.874 111.24 40.042 111.698 40.378C112.164 40.714 112.51 41.1573 112.734 41.708C112.967 42.2587 113.084 42.8513 113.084 43.486C113.084 43.962 113.014 44.424 112.874 44.872C112.734 45.3107 112.528 45.7027 112.258 46.048C111.996 46.3933 111.665 46.6687 111.264 46.874C110.872 47.0793 110.414 47.182 109.892 47.182ZM109.906 46.3C110.27 46.3 110.573 46.216 110.816 46.048C111.068 45.8707 111.268 45.642 111.418 45.362C111.576 45.082 111.688 44.7833 111.754 44.466C111.819 44.1393 111.852 43.8267 111.852 43.528C111.852 43.22 111.819 42.9073 111.754 42.59C111.698 42.2633 111.6 41.9647 111.46 41.694C111.32 41.414 111.124 41.19 110.872 41.022C110.629 40.8447 110.326 40.756 109.962 40.756C109.598 40.756 109.29 40.8447 109.038 41.022C108.795 41.19 108.599 41.414 108.45 41.694C108.3 41.974 108.193 42.2773 108.128 42.604C108.062 42.9213 108.03 43.2293 108.03 43.528C108.03 43.8173 108.062 44.1253 108.128 44.452C108.193 44.7693 108.296 45.068 108.436 45.348C108.585 45.628 108.781 45.8567 109.024 46.034C109.266 46.2113 109.56 46.3 109.906 46.3ZM117.922 36.808H120.974C121.646 36.808 122.238 36.9153 122.752 37.13C123.274 37.3353 123.68 37.662 123.97 38.11C124.259 38.558 124.404 39.1507 124.404 39.888C124.404 40.5693 124.25 41.1387 123.942 41.596C123.634 42.0533 123.223 42.3987 122.71 42.632C122.196 42.856 121.622 42.968 120.988 42.968H119.434V47H118.132V37.732L117.922 36.808ZM119.434 37.774V42.016H120.96C121.604 42.016 122.112 41.82 122.486 41.428C122.859 41.036 123.046 40.5227 123.046 39.888C123.046 39.2253 122.868 38.7073 122.514 38.334C122.159 37.9607 121.646 37.774 120.974 37.774H119.434ZM128.255 39.874C128.815 39.874 129.286 39.9907 129.669 40.224C130.051 40.448 130.336 40.7653 130.523 41.176C130.719 41.5773 130.817 42.0487 130.817 42.59C130.817 42.7207 130.807 42.856 130.789 42.996C130.779 43.1267 130.765 43.2667 130.747 43.416H126.323C126.323 44.3027 126.519 44.9887 126.911 45.474C127.303 45.9593 127.825 46.202 128.479 46.202C128.749 46.202 129.029 46.16 129.319 46.076C129.617 45.992 129.925 45.866 130.243 45.698L130.677 46.398C130.35 46.6593 129.981 46.8553 129.571 46.986C129.16 47.1167 128.745 47.182 128.325 47.182C127.774 47.182 127.293 47.084 126.883 46.888C126.481 46.6827 126.145 46.412 125.875 46.076C125.613 45.7307 125.417 45.3433 125.287 44.914C125.156 44.4847 125.091 44.046 125.091 43.598C125.091 43.1313 125.156 42.6787 125.287 42.24C125.417 41.8013 125.613 41.4047 125.875 41.05C126.145 40.686 126.477 40.4013 126.869 40.196C127.261 39.9813 127.723 39.874 128.255 39.874ZM128.143 40.756C127.825 40.756 127.545 40.8447 127.303 41.022C127.06 41.1993 126.864 41.428 126.715 41.708C126.565 41.9787 126.463 42.2587 126.407 42.548H129.599C129.608 42.156 129.552 41.8293 129.431 41.568C129.319 41.2973 129.151 41.0967 128.927 40.966C128.712 40.826 128.451 40.756 128.143 40.756ZM135.061 39.874C135.453 39.874 135.831 39.9487 136.195 40.098C136.559 40.2473 136.867 40.476 137.119 40.784L137.371 40.042H138.071C138.061 40.2007 138.052 40.364 138.043 40.532C138.033 40.6907 138.029 40.8493 138.029 41.008V49.198C138.029 49.2073 138.043 49.2727 138.071 49.394C138.099 49.5247 138.127 49.6553 138.155 49.786C138.192 49.9167 138.211 49.996 138.211 50.024H136.867V47.392C136.867 47.28 136.867 47.1633 136.867 47.042C136.876 46.93 136.881 46.818 136.881 46.706C136.89 46.594 136.899 46.482 136.909 46.37C136.619 46.6407 136.316 46.8413 135.999 46.972C135.681 47.1027 135.317 47.168 134.907 47.168C134.421 47.168 133.997 47.0653 133.633 46.86C133.269 46.6453 132.965 46.3653 132.723 46.02C132.489 45.6653 132.312 45.278 132.191 44.858C132.069 44.4287 132.009 43.9993 132.009 43.57C132.009 43.094 132.069 42.6367 132.191 42.198C132.312 41.7593 132.499 41.3673 132.751 41.022C133.003 40.6673 133.32 40.3873 133.703 40.182C134.085 39.9767 134.538 39.874 135.061 39.874ZM135.117 40.756C134.771 40.756 134.477 40.8493 134.235 41.036C133.992 41.2133 133.801 41.442 133.661 41.722C133.521 42.002 133.418 42.3053 133.353 42.632C133.287 42.9493 133.255 43.248 133.255 43.528C133.255 43.836 133.287 44.144 133.353 44.452C133.427 44.76 133.539 45.0447 133.689 45.306C133.847 45.558 134.048 45.7633 134.291 45.922C134.543 46.0807 134.846 46.16 135.201 46.16C135.499 46.16 135.803 46.09 136.111 45.95C136.419 45.81 136.671 45.6233 136.867 45.39V42.856C136.867 42.464 136.811 42.1093 136.699 41.792C136.587 41.4747 136.4 41.2227 136.139 41.036C135.887 40.8493 135.546 40.756 135.117 40.756ZM141.454 40.042V44.326C141.454 44.5967 141.477 44.8767 141.524 45.166C141.571 45.446 141.673 45.6793 141.832 45.866C142 46.0527 142.261 46.146 142.616 46.146C142.961 46.146 143.274 46.0713 143.554 45.922C143.843 45.7727 144.077 45.5673 144.254 45.306C144.431 45.0353 144.52 44.7227 144.52 44.368V40.868C144.52 40.8587 144.506 40.7933 144.478 40.672C144.45 40.5413 144.422 40.4107 144.394 40.28C144.366 40.14 144.347 40.0607 144.338 40.042H145.682V45.642C145.682 45.8193 145.71 45.95 145.766 46.034C145.831 46.118 145.929 46.16 146.06 46.16C146.191 46.16 146.368 46.118 146.592 46.034L146.844 46.79C146.657 46.8927 146.447 46.972 146.214 47.028C145.99 47.0933 145.775 47.126 145.57 47.126C145.327 47.126 145.113 47.056 144.926 46.916C144.739 46.776 144.618 46.5287 144.562 46.174C144.291 46.454 143.965 46.692 143.582 46.888C143.209 47.084 142.821 47.182 142.42 47.182C141.907 47.182 141.491 47.0747 141.174 46.86C140.866 46.6453 140.642 46.356 140.502 45.992C140.362 45.6187 140.292 45.1893 140.292 44.704V40.868L140.11 40.042H141.454ZM150.69 39.874C151.25 39.874 151.721 39.9907 152.104 40.224C152.487 40.448 152.771 40.7653 152.958 41.176C153.154 41.5773 153.252 42.0487 153.252 42.59C153.252 42.7207 153.243 42.856 153.224 42.996C153.215 43.1267 153.201 43.2667 153.182 43.416H148.758C148.758 44.3027 148.954 44.9887 149.346 45.474C149.738 45.9593 150.261 46.202 150.914 46.202C151.185 46.202 151.465 46.16 151.754 46.076C152.053 45.992 152.361 45.866 152.678 45.698L153.112 46.398C152.785 46.6593 152.417 46.8553 152.006 46.986C151.595 47.1167 151.18 47.182 150.76 47.182C150.209 47.182 149.729 47.084 149.318 46.888C148.917 46.6827 148.581 46.412 148.31 46.076C148.049 45.7307 147.853 45.3433 147.722 44.914C147.591 44.4847 147.526 44.046 147.526 43.598C147.526 43.1313 147.591 42.6787 147.722 42.24C147.853 41.8013 148.049 41.4047 148.31 41.05C148.581 40.686 148.912 40.4013 149.304 40.196C149.696 39.9813 150.158 39.874 150.69 39.874ZM150.578 40.756C150.261 40.756 149.981 40.8447 149.738 41.022C149.495 41.1993 149.299 41.428 149.15 41.708C149.001 41.9787 148.898 42.2587 148.842 42.548H152.034C152.043 42.156 151.987 41.8293 151.866 41.568C151.754 41.2973 151.586 41.0967 151.362 40.966C151.147 40.826 150.886 40.756 150.578 40.756ZM155.76 39.93C155.825 40.0887 155.881 40.252 155.928 40.42C155.975 40.588 156.007 40.756 156.026 40.924C156.306 40.644 156.637 40.4013 157.02 40.196C157.403 39.9813 157.795 39.874 158.196 39.874C158.709 39.874 159.12 39.9813 159.428 40.196C159.745 40.4107 159.974 40.7047 160.114 41.078C160.254 41.442 160.324 41.8667 160.324 42.352V47H159.176V42.73C159.176 42.4407 159.153 42.156 159.106 41.876C159.069 41.596 158.966 41.3673 158.798 41.19C158.639 41.0033 158.373 40.91 158 40.91C157.776 40.91 157.547 40.9567 157.314 41.05C157.081 41.134 156.861 41.246 156.656 41.386C156.451 41.526 156.264 41.6753 156.096 41.834V47H154.948V42.072C154.948 41.8853 154.934 41.6707 154.906 41.428C154.878 41.176 154.831 40.9333 154.766 40.7C154.701 40.4573 154.607 40.2567 154.486 40.098L155.76 39.93ZM165.194 47.182C164.513 47.182 163.939 47.014 163.472 46.678C163.015 46.3327 162.67 45.8847 162.436 45.334C162.212 44.7833 162.1 44.1953 162.1 43.57C162.1 43.1033 162.17 42.6507 162.31 42.212C162.45 41.764 162.656 41.3673 162.926 41.022C163.197 40.6673 163.528 40.3873 163.92 40.182C164.322 39.9767 164.774 39.874 165.278 39.874C165.969 39.874 166.543 40.042 167 40.378C167.467 40.714 167.812 41.1573 168.036 41.708C168.27 42.2587 168.386 42.8513 168.386 43.486C168.386 43.962 168.316 44.424 168.176 44.872C168.036 45.3107 167.831 45.7027 167.56 46.048C167.299 46.3933 166.968 46.6687 166.566 46.874C166.174 47.0793 165.717 47.182 165.194 47.182ZM165.208 46.3C165.572 46.3 165.876 46.216 166.118 46.048C166.37 45.8707 166.571 45.642 166.72 45.362C166.879 45.082 166.991 44.7833 167.056 44.466C167.122 44.1393 167.154 43.8267 167.154 43.528C167.154 43.22 167.122 42.9073 167.056 42.59C167 42.2633 166.902 41.9647 166.762 41.694C166.622 41.414 166.426 41.19 166.174 41.022C165.932 40.8447 165.628 40.756 165.264 40.756C164.9 40.756 164.592 40.8447 164.34 41.022C164.098 41.19 163.902 41.414 163.752 41.694C163.603 41.974 163.496 42.2773 163.43 42.604C163.365 42.9213 163.332 43.2293 163.332 43.528C163.332 43.8173 163.365 44.1253 163.43 44.452C163.496 44.7693 163.598 45.068 163.738 45.348C163.888 45.628 164.084 45.8567 164.326 46.034C164.569 46.2113 164.863 46.3 165.208 46.3ZM173.224 36.808H176.276C176.948 36.808 177.541 36.9153 178.054 37.13C178.577 37.3353 178.983 37.662 179.272 38.11C179.562 38.558 179.706 39.1507 179.706 39.888C179.706 40.5693 179.552 41.1387 179.244 41.596C178.936 42.0533 178.526 42.3987 178.012 42.632C177.499 42.856 176.925 42.968 176.29 42.968H174.736V47H173.434V37.732L173.224 36.808ZM174.736 37.774V42.016H176.262C176.906 42.016 177.415 41.82 177.788 41.428C178.162 41.036 178.348 40.5227 178.348 39.888C178.348 39.2253 178.171 38.7073 177.816 38.334C177.462 37.9607 176.948 37.774 176.276 37.774H174.736ZM183.487 47.182C182.806 47.182 182.232 47.014 181.765 46.678C181.308 46.3327 180.963 45.8847 180.729 45.334C180.505 44.7833 180.393 44.1953 180.393 43.57C180.393 43.1033 180.463 42.6507 180.603 42.212C180.743 41.764 180.949 41.3673 181.219 41.022C181.49 40.6673 181.821 40.3873 182.213 40.182C182.615 39.9767 183.067 39.874 183.571 39.874C184.262 39.874 184.836 40.042 185.293 40.378C185.76 40.714 186.105 41.1573 186.329 41.708C186.563 42.2587 186.679 42.8513 186.679 43.486C186.679 43.962 186.609 44.424 186.469 44.872C186.329 45.3107 186.124 45.7027 185.853 46.048C185.592 46.3933 185.261 46.6687 184.859 46.874C184.467 47.0793 184.01 47.182 183.487 47.182ZM183.501 46.3C183.865 46.3 184.169 46.216 184.411 46.048C184.663 45.8707 184.864 45.642 185.013 45.362C185.172 45.082 185.284 44.7833 185.349 44.466C185.415 44.1393 185.447 43.8267 185.447 43.528C185.447 43.22 185.415 42.9073 185.349 42.59C185.293 42.2633 185.195 41.9647 185.055 41.694C184.915 41.414 184.719 41.19 184.467 41.022C184.225 40.8447 183.921 40.756 183.557 40.756C183.193 40.756 182.885 40.8447 182.633 41.022C182.391 41.19 182.195 41.414 182.045 41.694C181.896 41.974 181.789 42.2773 181.723 42.604C181.658 42.9213 181.625 43.2293 181.625 43.528C181.625 43.8173 181.658 44.1253 181.723 44.452C181.789 44.7693 181.891 45.068 182.031 45.348C182.181 45.628 182.377 45.8567 182.619 46.034C182.862 46.2113 183.156 46.3 183.501 46.3ZM189.147 39.916C189.315 40.3267 189.423 40.7607 189.469 41.218C189.712 40.8353 190.039 40.5227 190.449 40.28C190.86 40.0373 191.294 39.916 191.751 39.916L191.471 41.148C191.023 41.148 190.641 41.2647 190.323 41.498C190.015 41.7313 189.74 42.0253 189.497 42.38V47H188.335V41.96C188.335 41.7733 188.321 41.5633 188.293 41.33C188.265 41.0967 188.219 40.868 188.153 40.644C188.088 40.42 187.999 40.2287 187.887 40.07L189.147 39.916ZM195.113 38.054C195.048 38.3713 194.987 38.7027 194.931 39.048C194.885 39.384 194.852 39.7153 194.833 40.042H196.653L196.415 40.924H194.833V45.376C194.833 45.5533 194.852 45.712 194.889 45.852C194.936 45.9827 195.011 46.0853 195.113 46.16C195.225 46.2253 195.379 46.258 195.575 46.258C195.725 46.258 195.874 46.244 196.023 46.216C196.173 46.188 196.317 46.1553 196.457 46.118L196.653 46.902C196.42 46.9673 196.196 47.0233 195.981 47.07C195.776 47.126 195.538 47.154 195.267 47.154C194.67 47.154 194.255 46.9953 194.021 46.678C193.788 46.3607 193.671 45.9173 193.671 45.348V40.924H192.635V40.224C192.915 40.2147 193.149 40.14 193.335 40C193.522 39.86 193.676 39.6827 193.797 39.468C193.919 39.244 194.017 39.0107 194.091 38.768C194.166 38.516 194.222 38.278 194.259 38.054H195.113ZM200.51 39.874C201.07 39.874 201.542 39.9907 201.924 40.224C202.307 40.448 202.592 40.7653 202.778 41.176C202.974 41.5773 203.072 42.0487 203.072 42.59C203.072 42.7207 203.063 42.856 203.044 42.996C203.035 43.1267 203.021 43.2667 203.002 43.416H198.578C198.578 44.3027 198.774 44.9887 199.166 45.474C199.558 45.9593 200.081 46.202 200.734 46.202C201.005 46.202 201.285 46.16 201.574 46.076C201.873 45.992 202.181 45.866 202.498 45.698L202.932 46.398C202.606 46.6593 202.237 46.8553 201.826 46.986C201.416 47.1167 201 47.182 200.58 47.182C200.03 47.182 199.549 47.084 199.138 46.888C198.737 46.6827 198.401 46.412 198.13 46.076C197.869 45.7307 197.673 45.3433 197.542 44.914C197.412 44.4847 197.346 44.046 197.346 43.598C197.346 43.1313 197.412 42.6787 197.542 42.24C197.673 41.8013 197.869 41.4047 198.13 41.05C198.401 40.686 198.732 40.4013 199.124 40.196C199.516 39.9813 199.978 39.874 200.51 39.874ZM200.398 40.756C200.081 40.756 199.801 40.8447 199.558 41.022C199.316 41.1993 199.12 41.428 198.97 41.708C198.821 41.9787 198.718 42.2587 198.662 42.548H201.854C201.864 42.156 201.808 41.8293 201.686 41.568C201.574 41.2973 201.406 41.0967 201.182 40.966C200.968 40.826 200.706 40.756 200.398 40.756Z" fill="black"/>
</svg>
