<?xml version="1.0"?>
<svg width="341" height="97" xmlns="http://www.w3.org/2000/svg" xmlns:svg="http://www.w3.org/2000/svg">
 <g class="layer">
  <title>Layer 1</title>
  <line id="svg_1" stroke="black" x1="6" x2="262" y1="19.5" y2="18.5"/>
  <line id="svg_2" stroke="black" x1="1" x2="257" y1="95.5" y2="94.5"/>
  <path d="m42.5,-1l2.58,6.22l8.36,0l-6.76,3.84l2.58,6.22l-6.76,-3.84l-6.76,3.84l2.58,-6.22l-6.76,-3.84l8.36,0l2.58,-6.22z" fill="#F7A43C" id="svg_3"/>
  <path d="m65.5,-1l2.58,6.22l8.36,0l-6.76,3.84l2.58,6.22l-6.76,-3.84l-6.76,3.84l2.58,-6.22l-6.76,-3.84l8.36,0l2.58,-6.22z" fill="#F7A43C" id="svg_4"/>
  <path d="m88.5,-1l2.58,6.22l8.36,0l-6.76,3.84l2.58,6.22l-6.76,-3.84l-6.76,3.84l2.58,-6.22l-6.76,-3.84l8.36,0l2.58,-6.22z" fill="#F7A43C" id="svg_5"/>
  <path d="m134.5,-1l2.58,6.22l8.36,0l-6.76,3.84l2.58,6.22l-6.76,-3.84l-6.76,3.84l2.58,-6.22l-6.76,-3.84l8.36,0l2.58,-6.22z" fill="#F7A43C" id="svg_6"/>
  <path d="m111.5,-1l2.58,6.22l8.36,0l-6.76,3.84l2.58,6.22l-6.76,-3.84l-6.76,3.84l2.58,-6.22l-6.76,-3.84l8.36,0l2.58,-6.22z" fill="#F7A43C" id="svg_7"/>
  <path d="m13.07,4.57l-3.17,0l0,2.73c0.54,-0.43 1.17,-0.65 1.91,-0.65c0.64,0 1.12,0.19 1.44,0.58c0.33,0.37 0.49,0.97 0.49,1.8l0,0.51c0,1.75 -0.91,2.63 -2.73,2.63c-0.33,0 -0.69,-0.03 -1.08,-0.1c-0.39,-0.06 -0.73,-0.13 -1.03,-0.21l0,-0.97c0.27,0.06 0.63,0.12 1.07,0.19c0.45,0.05 0.79,0.08 1.01,0.08c0.52,0 0.9,-0.14 1.16,-0.41c0.28,-0.28 0.41,-0.68 0.41,-1.21l0,-0.55c0,-0.9 -0.34,-1.34 -1.04,-1.34c-0.37,0 -0.7,0.07 -0.99,0.21c-0.28,0.14 -0.56,0.37 -0.85,0.7l-0.91,0l0,-5.02l4.31,0l0,1.03zm2.58,5.89c0.54,0 0.8,0.22 0.8,0.66l0,0.4c0,0.21 -0.07,0.37 -0.21,0.48c-0.13,0.11 -0.33,0.17 -0.59,0.17c-0.25,0 -0.44,-0.06 -0.58,-0.17c-0.14,-0.11 -0.2,-0.27 -0.2,-0.48l0,-0.4c0,-0.22 0.06,-0.38 0.2,-0.49c0.14,-0.11 0.33,-0.17 0.58,-0.17zm4.79,-7.04c0.84,0 1.48,0.24 1.92,0.73c0.45,0.47 0.67,1.19 0.67,2.14l0,3.01c0,0.95 -0.22,1.67 -0.67,2.15c-0.44,0.48 -1.08,0.72 -1.92,0.72c-0.84,0 -1.48,-0.24 -1.93,-0.72c-0.44,-0.48 -0.66,-1.2 -0.66,-2.15l0,-3.01c0,-0.95 0.22,-1.67 0.66,-2.14c0.45,-0.49 1.09,-0.73 1.93,-0.73zm0,1.01c-0.93,0 -1.4,0.58 -1.4,1.75l0,3.23c0,1.17 0.47,1.75 1.4,1.75c0.94,0 1.4,-0.58 1.4,-1.75l0,-3.23c0,-1.17 -0.46,-1.75 -1.4,-1.75z" fill="#D81111" id="svg_8"/>
  <line id="svg_9" stroke="#D81111" x1="7" x2="25" y1="14.5" y2="14.5"/>
  <path d="m26.88,75l-3.21,-5.23l-3.37,0l0,5.23l-2.87,0l0,-13.76l6.87,0c1.64,0 2.9,0.35 3.78,1.06c0.9,0.71 1.35,1.72 1.35,3.04c0,0.96 -0.27,1.8 -0.82,2.5c-0.55,0.69 -1.28,1.15 -2.22,1.38l3.71,5.78l-3.22,0zm-0.34,-9.54c0,-1.32 -0.85,-1.98 -2.56,-1.98l-3.68,0l0,4.05l3.78,0c0.8,0 1.41,-0.18 1.83,-0.53c0.42,-0.37 0.63,-0.88 0.63,-1.54zm14.82,5.52c0,1.17 -0.41,2.08 -1.21,2.74c-0.79,0.65 -1.95,1 -3.49,1.06l0,1.71l-1.06,0l0,-1.68c-1.4,-0.05 -2.49,-0.38 -3.28,-0.99c-0.79,-0.61 -1.3,-1.54 -1.54,-2.8l2.5,-0.45c0.13,0.74 0.37,1.27 0.73,1.61c0.37,0.34 0.9,0.54 1.59,0.6l0,-3.8c-0.02,-0.02 -0.07,-0.04 -0.15,-0.05c-0.08,-0.02 -0.13,-0.03 -0.17,-0.03c-1.06,-0.24 -1.85,-0.52 -2.38,-0.84c-0.53,-0.34 -0.95,-0.75 -1.25,-1.25c-0.29,-0.52 -0.44,-1.14 -0.44,-1.86c0,-1.07 0.37,-1.91 1.11,-2.5c0.76,-0.6 1.85,-0.93 3.28,-0.99l0,-1.3l1.06,0l0,1.3c0.85,0.03 1.56,0.17 2.12,0.41c0.58,0.24 1.03,0.59 1.37,1.06c0.36,0.45 0.65,1.1 0.87,1.95l-2.58,0.39c-0.1,-0.57 -0.29,-1 -0.58,-1.31c-0.29,-0.32 -0.69,-0.51 -1.2,-0.57l0,3.42l0.09,0.02c0.2,0 0.78,0.16 1.74,0.48c0.96,0.31 1.68,0.77 2.14,1.38c0.49,0.61 0.73,1.37 0.73,2.29zm-5.76,-7.64c-1.21,0.09 -1.82,0.62 -1.83,1.56c0,0.29 0.04,0.53 0.14,0.73c0.11,0.17 0.27,0.33 0.46,0.45c0.19,0.13 0.6,0.3 1.23,0.51l0,-3.25zm3.2,7.68c0,-0.32 -0.05,-0.58 -0.17,-0.79c-0.11,-0.21 -0.28,-0.38 -0.5,-0.51c-0.23,-0.13 -0.72,-0.3 -1.47,-0.53l0,3.59c1.43,-0.09 2.14,-0.68 2.14,-1.76zm18.53,-0.53c0,1.47 -0.42,2.61 -1.25,3.45c-0.82,0.84 -1.95,1.25 -3.38,1.25c-1.62,0 -2.87,-0.56 -3.76,-1.68c-0.86,-1.14 -1.3,-2.83 -1.3,-5.06c0,-2.46 0.44,-4.31 1.33,-5.55c0.88,-1.25 2.14,-1.88 3.78,-1.88c1.17,0 2.1,0.26 2.77,0.78c0.68,0.51 1.15,1.31 1.42,2.4l-2.57,0.37c-0.24,-0.9 -0.8,-1.36 -1.67,-1.38c-0.74,0 -1.31,0.37 -1.73,1.11c-0.42,0.74 -0.63,1.86 -0.63,3.35c0.29,-0.48 0.69,-0.85 1.21,-1.11c0.53,-0.27 1.12,-0.41 1.78,-0.41c1.24,0 2.21,0.4 2.92,1.18c0.72,0.79 1.08,1.85 1.08,3.18zm-2.77,0.08c0,-0.79 -0.19,-1.39 -0.56,-1.79c-0.35,-0.41 -0.84,-0.62 -1.47,-0.62c-0.61,0 -1.1,0.2 -1.47,0.6c-0.35,0.38 -0.53,0.89 -0.53,1.52c0,0.8 0.19,1.47 0.56,2c0.38,0.51 0.89,0.77 1.52,0.77c0.62,0 1.11,-0.22 1.44,-0.65c0.34,-0.45 0.51,-1.06 0.51,-1.83zm14.05,-0.15c0,1.46 -0.46,2.63 -1.37,3.5c-0.92,0.85 -2.16,1.27 -3.74,1.27c-1.38,0 -2.49,-0.3 -3.32,-0.91c-0.82,-0.63 -1.33,-1.54 -1.52,-2.73l2.72,-0.21c0.15,0.58 0.4,1 0.77,1.27c0.37,0.28 0.83,0.41 1.38,0.41c0.69,0 1.23,-0.21 1.64,-0.65c0.4,-0.45 0.6,-1.08 0.6,-1.9c0,-0.72 -0.2,-1.3 -0.58,-1.74c-0.37,-0.43 -0.9,-0.65 -1.59,-0.65c-0.76,0 -1.38,0.3 -1.88,0.9l-2.68,0l0.49,-7.74l8.26,0l0,2.05l-5.78,0l-0.22,3.47c0.66,-0.58 1.49,-0.88 2.48,-0.89c1.3,0 2.35,0.41 3.14,1.23c0.8,0.82 1.2,1.92 1.2,3.32zm4.75,3.93c0,0.79 -0.08,1.48 -0.26,2.07c-0.16,0.6 -0.43,1.15 -0.8,1.66l-1.8,0c0.38,-0.46 0.69,-0.97 0.94,-1.51c0.24,-0.55 0.36,-1.07 0.36,-1.57l-1.26,0l0,-2.99l2.82,0l0,2.34zm11.65,-6.24c0,2.33 -0.41,4.09 -1.21,5.3c-0.8,1.19 -2,1.78 -3.59,1.78c-3.15,0 -4.72,-2.36 -4.72,-7.08c0,-1.66 0.17,-3 0.51,-4.03c0.35,-1.04 0.87,-1.81 1.56,-2.31c0.69,-0.5 1.6,-0.75 2.72,-0.75c1.63,0 2.81,0.6 3.57,1.79c0.77,1.17 1.16,2.94 1.16,5.3zm-2.77,0c0,-1.27 -0.07,-2.25 -0.2,-2.94c-0.11,-0.71 -0.3,-1.21 -0.58,-1.52c-0.27,-0.3 -0.67,-0.46 -1.2,-0.46c-0.55,0 -0.96,0.16 -1.25,0.46c-0.28,0.31 -0.48,0.81 -0.61,1.52c-0.11,0.69 -0.16,1.67 -0.16,2.94c0,1.25 0.06,2.23 0.19,2.94c0.13,0.7 0.33,1.22 0.6,1.54c0.27,0.31 0.68,0.46 1.21,0.46c0.51,0 0.9,-0.16 1.18,-0.48c0.29,-0.34 0.49,-0.86 0.62,-1.57c0.13,-0.71 0.2,-1.67 0.2,-2.89zm13.88,0c0,2.33 -0.4,4.09 -1.21,5.3c-0.8,1.19 -2,1.78 -3.59,1.78c-3.14,0 -4.72,-2.36 -4.72,-7.08c0,-1.66 0.17,-3 0.51,-4.03c0.35,-1.04 0.87,-1.81 1.56,-2.31c0.7,-0.5 1.6,-0.75 2.73,-0.75c1.62,0 2.81,0.6 3.56,1.79c0.77,1.17 1.16,2.94 1.16,5.3zm-2.77,0c0,-1.27 -0.07,-2.25 -0.19,-2.94c-0.12,-0.71 -0.31,-1.21 -0.58,-1.52c-0.27,-0.3 -0.68,-0.46 -1.21,-0.46c-0.54,0 -0.96,0.16 -1.25,0.46c-0.27,0.31 -0.47,0.81 -0.6,1.52c-0.11,0.69 -0.17,1.67 -0.17,2.94c0,1.25 0.06,2.23 0.19,2.94c0.13,0.7 0.33,1.22 0.6,1.54c0.28,0.31 0.68,0.46 1.21,0.46c0.51,0 0.91,-0.16 1.18,-0.48c0.29,-0.34 0.5,-0.86 0.63,-1.57c0.12,-0.71 0.19,-1.67 0.19,-2.89z" fill="#D81111" id="svg_10"/>
  <path d="m5.42,35.77l-3.02,0l0,-0.96l7.42,0l0,0.96l-3.07,0l0,9.23l-1.33,0l0,-9.23zm6.83,9.41c-0.68,0 -1.26,-0.17 -1.72,-0.5c-0.46,-0.35 -0.8,-0.8 -1.04,-1.35c-0.22,-0.55 -0.33,-1.13 -0.33,-1.76c0,-0.47 0.07,-0.92 0.21,-1.36c0.14,-0.45 0.34,-0.84 0.61,-1.19c0.27,-0.35 0.6,-0.63 1,-0.84c0.4,-0.2 0.85,-0.31 1.35,-0.31c0.69,0 1.27,0.17 1.73,0.51c0.46,0.33 0.81,0.78 1.03,1.33c0.24,0.55 0.35,1.14 0.35,1.78c0,0.47 -0.07,0.93 -0.21,1.38c-0.14,0.44 -0.34,0.83 -0.61,1.18c-0.27,0.34 -0.6,0.62 -1,0.82c-0.39,0.21 -0.85,0.31 -1.37,0.31zm0.01,-0.88c0.37,0 0.67,-0.08 0.91,-0.25c0.26,-0.18 0.46,-0.41 0.61,-0.69c0.15,-0.28 0.27,-0.58 0.33,-0.89c0.07,-0.33 0.1,-0.64 0.1,-0.94c0,-0.31 -0.03,-0.62 -0.1,-0.94c-0.05,-0.33 -0.15,-0.63 -0.29,-0.9c-0.14,-0.28 -0.34,-0.5 -0.59,-0.67c-0.24,-0.18 -0.55,-0.26 -0.91,-0.26c-0.36,0 -0.67,0.08 -0.92,0.26c-0.25,0.17 -0.44,0.39 -0.59,0.67c-0.15,0.28 -0.26,0.59 -0.32,0.91c-0.07,0.32 -0.1,0.63 -0.1,0.93c0,0.29 0.03,0.6 0.1,0.92c0.06,0.32 0.16,0.62 0.3,0.9c0.15,0.28 0.35,0.51 0.59,0.68c0.24,0.18 0.54,0.27 0.88,0.27zm7.22,-6.43c0.31,0 0.63,0.05 0.93,0.13c0.32,0.07 0.61,0.2 0.87,0.36l-0.4,0.9c-0.21,-0.17 -0.44,-0.29 -0.69,-0.38c-0.25,-0.08 -0.5,-0.12 -0.74,-0.12c-0.35,0 -0.65,0.08 -0.91,0.23c-0.25,0.16 -0.38,0.4 -0.38,0.72c0,0.22 0.05,0.41 0.15,0.56c0.12,0.15 0.26,0.27 0.44,0.38c0.17,0.1 0.37,0.2 0.57,0.3c0.23,0.12 0.47,0.23 0.7,0.35c0.24,0.12 0.46,0.26 0.66,0.42c0.2,0.16 0.37,0.36 0.49,0.59c0.13,0.23 0.2,0.51 0.2,0.84c0,0.47 -0.12,0.86 -0.35,1.16c-0.23,0.3 -0.53,0.52 -0.9,0.66c-0.36,0.14 -0.76,0.21 -1.19,0.21c-0.37,0 -0.75,-0.05 -1.12,-0.15c-0.37,-0.1 -0.72,-0.25 -1.04,-0.44l0.49,-0.85c0.23,0.17 0.48,0.3 0.76,0.41c0.28,0.1 0.55,0.15 0.81,0.15c0.36,0 0.66,-0.08 0.93,-0.25c0.27,-0.17 0.4,-0.42 0.4,-0.76c0,-0.23 -0.07,-0.42 -0.22,-0.57c-0.14,-0.16 -0.32,-0.3 -0.55,-0.42c-0.22,-0.12 -0.46,-0.24 -0.7,-0.35c-0.28,-0.14 -0.55,-0.29 -0.82,-0.45c-0.27,-0.17 -0.48,-0.38 -0.65,-0.63c-0.17,-0.25 -0.25,-0.57 -0.25,-0.97c0,-0.44 0.12,-0.82 0.35,-1.12c0.24,-0.29 0.55,-0.52 0.94,-0.67c0.38,-0.16 0.79,-0.24 1.22,-0.24zm6.14,0c0.74,0 1.29,0.2 1.66,0.61c0.38,0.4 0.56,0.96 0.56,1.69l0,3.49c0,0.19 0.04,0.33 0.11,0.4c0.08,0.07 0.17,0.1 0.27,0.1c0.09,0 0.17,-0.01 0.27,-0.03c0.09,-0.03 0.18,-0.06 0.26,-0.1l0.25,0.76c-0.14,0.08 -0.33,0.16 -0.57,0.22c-0.22,0.08 -0.46,0.12 -0.7,0.12c-0.24,0 -0.46,-0.07 -0.66,-0.2c-0.19,-0.14 -0.31,-0.39 -0.36,-0.76c-0.27,0.29 -0.59,0.53 -0.95,0.72c-0.37,0.18 -0.75,0.26 -1.15,0.26c-0.55,0 -1.01,-0.16 -1.37,-0.49c-0.37,-0.32 -0.55,-0.77 -0.55,-1.34c0,-0.53 0.13,-0.96 0.38,-1.27c0.26,-0.32 0.6,-0.56 1.01,-0.72c0.41,-0.16 0.84,-0.26 1.3,-0.32c0.47,-0.06 0.9,-0.08 1.3,-0.08l0,-0.75c0,-0.26 -0.03,-0.49 -0.1,-0.7c-0.06,-0.21 -0.18,-0.38 -0.35,-0.5c-0.17,-0.13 -0.4,-0.2 -0.71,-0.2c-0.35,0 -0.7,0.07 -1.02,0.21c-0.33,0.14 -0.66,0.35 -0.98,0.62l-0.58,-0.83c0.39,-0.3 0.81,-0.53 1.26,-0.68c0.46,-0.15 0.93,-0.23 1.42,-0.23zm1.06,3.97c-0.25,0 -0.54,0.01 -0.85,0.04c-0.32,0.02 -0.63,0.07 -0.93,0.17c-0.29,0.08 -0.54,0.22 -0.74,0.42c-0.19,0.19 -0.28,0.46 -0.28,0.81c0,0.31 0.1,0.53 0.31,0.68c0.21,0.14 0.48,0.21 0.8,0.21c0.33,0 0.63,-0.09 0.88,-0.28c0.25,-0.18 0.45,-0.42 0.59,-0.71c0.15,-0.29 0.22,-0.59 0.22,-0.9l0,-0.44zm6.53,-7.03l3.06,0c0.67,0 1.26,0.11 1.77,0.32c0.53,0.21 0.93,0.53 1.22,0.98c0.29,0.45 0.44,1.04 0.44,1.78c0,0.68 -0.16,1.25 -0.47,1.71c-0.3,0.45 -0.71,0.8 -1.23,1.03c-0.51,0.23 -1.09,0.34 -1.72,0.34l-1.55,0l0,4.03l-1.31,0l0,-9.27l-0.21,-0.92zm1.52,0.96l0,4.25l1.52,0c0.65,0 1.15,-0.2 1.53,-0.59c0.37,-0.39 0.56,-0.91 0.56,-1.54c0,-0.66 -0.18,-1.18 -0.53,-1.56c-0.36,-0.37 -0.87,-0.56 -1.54,-0.56l-1.54,0zm8.82,2.1c0.56,0 1.03,0.12 1.41,0.35c0.38,0.23 0.67,0.55 0.85,0.96c0.2,0.4 0.3,0.87 0.3,1.41c0,0.13 -0.01,0.27 -0.03,0.41c-0.01,0.13 -0.02,0.27 -0.04,0.42l-4.43,0c0,0.88 0.2,1.57 0.59,2.05c0.39,0.49 0.92,0.73 1.57,0.73c0.27,0 0.55,-0.04 0.84,-0.12c0.3,-0.09 0.61,-0.21 0.92,-0.38l0.44,0.7c-0.33,0.26 -0.7,0.46 -1.11,0.59c-0.41,0.13 -0.82,0.19 -1.24,0.19c-0.55,0 -1.04,-0.1 -1.45,-0.29c-0.4,-0.21 -0.73,-0.48 -1,-0.81c-0.26,-0.35 -0.46,-0.74 -0.59,-1.17c-0.13,-0.43 -0.2,-0.86 -0.2,-1.31c0,-0.47 0.07,-0.92 0.2,-1.36c0.13,-0.44 0.33,-0.84 0.59,-1.19c0.27,-0.36 0.6,-0.65 0.99,-0.85c0.39,-0.22 0.86,-0.33 1.39,-0.33zm-0.11,0.89c-0.32,0 -0.6,0.08 -0.85,0.26c-0.24,0.18 -0.43,0.41 -0.58,0.69c-0.15,0.27 -0.26,0.55 -0.31,0.84l3.19,0c0.01,-0.39 -0.05,-0.72 -0.17,-0.98c-0.11,-0.27 -0.28,-0.47 -0.5,-0.6c-0.22,-0.14 -0.48,-0.21 -0.78,-0.21zm6.91,-0.89c0.4,0 0.77,0.08 1.14,0.23c0.36,0.15 0.67,0.38 0.92,0.68l0.25,-0.74l0.7,0c-0.01,0.16 -0.02,0.32 -0.02,0.49c-0.02,0.16 -0.02,0.32 -0.02,0.48l0,8.19c0,0.01 0.02,0.07 0.04,0.19c0.03,0.13 0.06,0.27 0.09,0.4c0.03,0.13 0.05,0.21 0.05,0.23l-1.34,0l0,-2.63c0,-0.11 0,-0.23 0,-0.35c0.01,-0.11 0.01,-0.22 0.01,-0.33c0.01,-0.12 0.02,-0.23 0.03,-0.34c-0.29,0.27 -0.59,0.47 -0.91,0.6c-0.32,0.13 -0.68,0.2 -1.09,0.2c-0.49,0 -0.91,-0.1 -1.28,-0.31c-0.36,-0.21 -0.66,-0.49 -0.9,-0.84c-0.24,-0.35 -0.42,-0.74 -0.54,-1.16c-0.12,-0.43 -0.18,-0.86 -0.18,-1.29c0,-0.48 0.06,-0.93 0.18,-1.37c0.12,-0.44 0.31,-0.83 0.56,-1.18c0.26,-0.35 0.57,-0.63 0.96,-0.84c0.38,-0.2 0.83,-0.31 1.35,-0.31zm0.06,0.89c-0.35,0 -0.64,0.09 -0.88,0.28c-0.25,0.17 -0.44,0.4 -0.58,0.68c-0.14,0.28 -0.24,0.59 -0.31,0.91c-0.06,0.32 -0.09,0.62 -0.09,0.9c0,0.31 0.03,0.61 0.09,0.92c0.08,0.31 0.19,0.59 0.34,0.86c0.16,0.25 0.36,0.45 0.6,0.61c0.26,0.16 0.56,0.24 0.91,0.24c0.3,0 0.6,-0.07 0.91,-0.21c0.31,-0.14 0.56,-0.33 0.76,-0.56l0,-2.53c0,-0.4 -0.06,-0.75 -0.17,-1.07c-0.11,-0.32 -0.3,-0.57 -0.56,-0.75c-0.25,-0.19 -0.59,-0.28 -1.02,-0.28zm6.34,-0.72l0,4.29c0,0.27 0.02,0.55 0.07,0.84c0.04,0.28 0.15,0.51 0.3,0.7c0.17,0.18 0.43,0.28 0.79,0.28c0.34,0 0.66,-0.08 0.94,-0.23c0.28,-0.15 0.52,-0.35 0.7,-0.61c0.17,-0.27 0.26,-0.59 0.26,-0.94l0,-3.5c0,-0.01 -0.01,-0.08 -0.04,-0.2c-0.03,-0.13 -0.06,-0.26 -0.08,-0.39c-0.03,-0.14 -0.05,-0.22 -0.06,-0.24l1.34,0l0,5.6c0,0.18 0.03,0.31 0.09,0.39c0.06,0.09 0.16,0.13 0.29,0.13c0.13,0 0.31,-0.04 0.53,-0.13l0.26,0.76c-0.19,0.1 -0.4,0.18 -0.63,0.24c-0.23,0.06 -0.44,0.1 -0.65,0.1c-0.24,0 -0.45,-0.07 -0.64,-0.21c-0.19,-0.14 -0.31,-0.39 -0.37,-0.75c-0.27,0.28 -0.59,0.52 -0.98,0.72c-0.37,0.19 -0.76,0.29 -1.16,0.29c-0.51,0 -0.93,-0.11 -1.24,-0.32c-0.31,-0.21 -0.54,-0.5 -0.68,-0.87c-0.14,-0.37 -0.21,-0.8 -0.21,-1.29l0,-3.83l-0.18,-0.83l1.35,0zm9.23,-0.17c0.56,0 1.03,0.12 1.42,0.35c0.38,0.23 0.66,0.55 0.85,0.96c0.2,0.4 0.29,0.87 0.29,1.41c0,0.13 -0.01,0.27 -0.02,0.41c-0.01,0.13 -0.03,0.27 -0.05,0.42l-4.42,0c0,0.88 0.2,1.57 0.59,2.05c0.39,0.49 0.91,0.73 1.57,0.73c0.27,0 0.55,-0.04 0.84,-0.12c0.29,-0.09 0.6,-0.21 0.92,-0.38l0.43,0.7c-0.32,0.26 -0.69,0.46 -1.1,0.59c-0.41,0.13 -0.83,0.19 -1.25,0.19c-0.55,0 -1.03,-0.1 -1.44,-0.29c-0.4,-0.21 -0.74,-0.48 -1.01,-0.81c-0.26,-0.35 -0.45,-0.74 -0.59,-1.17c-0.13,-0.43 -0.19,-0.86 -0.19,-1.31c0,-0.47 0.06,-0.92 0.19,-1.36c0.14,-0.44 0.33,-0.84 0.59,-1.19c0.27,-0.36 0.6,-0.65 1,-0.85c0.39,-0.22 0.85,-0.33 1.38,-0.33zm-0.11,0.89c-0.32,0 -0.6,0.08 -0.84,0.26c-0.24,0.18 -0.44,0.41 -0.59,0.69c-0.15,0.27 -0.25,0.55 -0.31,0.84l3.2,0c0.01,-0.39 -0.05,-0.72 -0.17,-0.98c-0.11,-0.27 -0.28,-0.47 -0.51,-0.6c-0.21,-0.14 -0.47,-0.21 -0.78,-0.21zm5.18,-0.83c0.07,0.16 0.12,0.32 0.17,0.49c0.05,0.17 0.08,0.34 0.1,0.5c0.28,-0.28 0.61,-0.52 0.99,-0.72c0.38,-0.22 0.78,-0.33 1.18,-0.33c0.51,0 0.92,0.11 1.23,0.33c0.32,0.21 0.55,0.5 0.69,0.88c0.14,0.36 0.21,0.79 0.21,1.27l0,4.65l-1.15,0l0,-4.27c0,-0.29 -0.03,-0.57 -0.07,-0.85c-0.04,-0.28 -0.14,-0.51 -0.31,-0.69c-0.16,-0.19 -0.43,-0.28 -0.8,-0.28c-0.22,0 -0.45,0.05 -0.68,0.14c-0.24,0.08 -0.46,0.2 -0.66,0.34c-0.21,0.14 -0.39,0.29 -0.56,0.44l0,5.17l-1.15,0l0,-4.93c0,-0.18 -0.01,-0.4 -0.04,-0.64c-0.03,-0.25 -0.08,-0.5 -0.14,-0.73c-0.07,-0.24 -0.16,-0.44 -0.28,-0.6l1.27,-0.17zm9.44,7.25c-0.68,0 -1.26,-0.17 -1.73,-0.5c-0.45,-0.35 -0.8,-0.8 -1.03,-1.35c-0.23,-0.55 -0.34,-1.13 -0.34,-1.76c0,-0.47 0.07,-0.92 0.21,-1.36c0.14,-0.45 0.35,-0.84 0.62,-1.19c0.27,-0.35 0.6,-0.63 0.99,-0.84c0.4,-0.2 0.86,-0.31 1.36,-0.31c0.69,0 1.27,0.17 1.72,0.51c0.47,0.33 0.81,0.78 1.04,1.33c0.23,0.55 0.35,1.14 0.35,1.78c0,0.47 -0.07,0.93 -0.21,1.38c-0.14,0.44 -0.35,0.83 -0.62,1.18c-0.26,0.34 -0.59,0.62 -0.99,0.82c-0.39,0.21 -0.85,0.31 -1.37,0.31zm0.01,-0.88c0.36,0 0.67,-0.08 0.91,-0.25c0.25,-0.18 0.45,-0.41 0.6,-0.69c0.16,-0.28 0.27,-0.58 0.34,-0.89c0.06,-0.33 0.1,-0.64 0.1,-0.94c0,-0.31 -0.04,-0.62 -0.1,-0.94c-0.06,-0.33 -0.16,-0.63 -0.3,-0.9c-0.14,-0.28 -0.33,-0.5 -0.58,-0.67c-0.25,-0.18 -0.55,-0.26 -0.91,-0.26c-0.37,0 -0.68,0.08 -0.93,0.26c-0.24,0.17 -0.44,0.39 -0.59,0.67c-0.14,0.28 -0.25,0.59 -0.32,0.91c-0.06,0.32 -0.1,0.63 -0.1,0.93c0,0.29 0.04,0.6 0.1,0.92c0.07,0.32 0.17,0.62 0.31,0.9c0.15,0.28 0.35,0.51 0.59,0.68c0.24,0.18 0.54,0.27 0.88,0.27zm8.02,-9.49l3.05,0c0.67,0 1.26,0.11 1.78,0.32c0.52,0.21 0.93,0.53 1.21,0.98c0.29,0.45 0.44,1.04 0.44,1.78c0,0.68 -0.16,1.25 -0.46,1.71c-0.31,0.45 -0.72,0.8 -1.24,1.03c-0.51,0.23 -1.08,0.34 -1.72,0.34l-1.55,0l0,4.03l-1.3,0l0,-9.27l-0.21,-0.92zm1.51,0.96l0,4.25l1.52,0c0.65,0 1.16,-0.2 1.53,-0.59c0.37,-0.39 0.56,-0.91 0.56,-1.54c0,-0.66 -0.18,-1.18 -0.53,-1.56c-0.36,-0.37 -0.87,-0.56 -1.54,-0.56l-1.54,0zm8.75,9.41c-0.68,0 -1.26,-0.17 -1.72,-0.5c-0.46,-0.35 -0.81,-0.8 -1.04,-1.35c-0.22,-0.55 -0.33,-1.13 -0.33,-1.76c0,-0.47 0.06,-0.92 0.21,-1.36c0.13,-0.45 0.34,-0.84 0.61,-1.19c0.27,-0.35 0.6,-0.63 0.99,-0.84c0.41,-0.2 0.86,-0.31 1.36,-0.31c0.69,0 1.27,0.17 1.73,0.51c0.46,0.33 0.81,0.78 1.03,1.33c0.23,0.55 0.35,1.14 0.35,1.78c0,0.47 -0.07,0.93 -0.21,1.38c-0.14,0.44 -0.34,0.83 -0.61,1.18c-0.27,0.34 -0.6,0.62 -1,0.82c-0.39,0.21 -0.85,0.31 -1.37,0.31zm0.01,-0.88c0.37,0 0.67,-0.08 0.91,-0.25c0.26,-0.18 0.46,-0.41 0.61,-0.69c0.15,-0.28 0.27,-0.58 0.33,-0.89c0.07,-0.33 0.1,-0.64 0.1,-0.94c0,-0.31 -0.03,-0.62 -0.1,-0.94c-0.05,-0.33 -0.15,-0.63 -0.29,-0.9c-0.14,-0.28 -0.34,-0.5 -0.59,-0.67c-0.24,-0.18 -0.55,-0.26 -0.91,-0.26c-0.36,0 -0.67,0.08 -0.92,0.26c-0.25,0.17 -0.44,0.39 -0.59,0.67c-0.15,0.28 -0.26,0.59 -0.33,0.91c-0.06,0.32 -0.09,0.63 -0.09,0.93c0,0.29 0.03,0.6 0.09,0.92c0.07,0.32 0.17,0.62 0.31,0.9c0.15,0.28 0.35,0.51 0.59,0.68c0.24,0.18 0.54,0.27 0.88,0.27zm5.65,-6.38c0.17,0.41 0.27,0.84 0.32,1.3c0.24,-0.38 0.57,-0.7 0.98,-0.94c0.41,-0.24 0.85,-0.36 1.3,-0.36l-0.28,1.23c-0.45,0 -0.83,0.11 -1.14,0.35c-0.31,0.23 -0.59,0.53 -0.83,0.88l0,4.62l-1.16,0l0,-5.04c0,-0.19 -0.02,-0.4 -0.04,-0.63c-0.03,-0.23 -0.08,-0.46 -0.15,-0.69c-0.06,-0.22 -0.15,-0.41 -0.26,-0.57l1.26,-0.15zm5.97,-1.87c-0.07,0.32 -0.13,0.65 -0.19,1c-0.04,0.33 -0.08,0.67 -0.09,0.99l1.81,0l-0.23,0.88l-1.58,0l0,4.46c0,0.17 0.01,0.33 0.05,0.47c0.05,0.13 0.12,0.24 0.23,0.31c0.11,0.07 0.26,0.1 0.46,0.1c0.15,0 0.3,-0.02 0.44,-0.04c0.16,-0.03 0.3,-0.06 0.44,-0.1l0.19,0.78c-0.23,0.07 -0.45,0.12 -0.67,0.17c-0.2,0.06 -0.44,0.08 -0.71,0.08c-0.6,0 -1.01,-0.15 -1.25,-0.47c-0.23,-0.32 -0.35,-0.76 -0.35,-1.33l0,-4.43l-1.03,0l0,-0.7c0.28,-0.01 0.51,-0.08 0.7,-0.22c0.18,-0.14 0.34,-0.32 0.46,-0.53c0.12,-0.23 0.22,-0.46 0.29,-0.7c0.08,-0.25 0.13,-0.49 0.17,-0.72l0.86,0zm5.39,1.82c0.56,0 1.03,0.12 1.42,0.35c0.38,0.23 0.66,0.55 0.85,0.96c0.2,0.4 0.29,0.87 0.29,1.41c0,0.13 -0.01,0.27 -0.02,0.41c-0.01,0.13 -0.03,0.27 -0.05,0.42l-4.42,0c0,0.88 0.2,1.57 0.59,2.05c0.39,0.49 0.91,0.73 1.57,0.73c0.27,0 0.55,-0.04 0.84,-0.12c0.29,-0.09 0.6,-0.21 0.92,-0.38l0.43,0.7c-0.32,0.26 -0.69,0.46 -1.1,0.59c-0.41,0.13 -0.83,0.19 -1.25,0.19c-0.55,0 -1.03,-0.1 -1.44,-0.29c-0.4,-0.21 -0.74,-0.48 -1.01,-0.81c-0.26,-0.35 -0.45,-0.74 -0.59,-1.17c-0.13,-0.43 -0.19,-0.86 -0.19,-1.31c0,-0.47 0.06,-0.92 0.19,-1.36c0.14,-0.44 0.33,-0.84 0.59,-1.19c0.27,-0.36 0.6,-0.65 1,-0.85c0.39,-0.22 0.85,-0.33 1.38,-0.33zm-0.11,0.89c-0.32,0 -0.6,0.08 -0.84,0.26c-0.24,0.18 -0.44,0.41 -0.59,0.69c-0.15,0.27 -0.25,0.55 -0.31,0.84l3.2,0c0.01,-0.39 -0.05,-0.72 -0.17,-0.98c-0.11,-0.27 -0.28,-0.47 -0.51,-0.6c-0.21,-0.14 -0.47,-0.21 -0.78,-0.21z" fill="black" id="svg_11"/>
 </g>
</svg>