<svg width="336" height="101" viewBox="0 0 336 101" fill="none" xmlns="http://www.w3.org/2000/svg">
<line x1="79.998" y1="24.5" x2="335.998" y2="23.5" stroke="black"/>
<path d="M117.5 0L120.082 6.21885H128.437L121.678 10.0623L124.26 16.2812L117.5 12.4377L110.74 16.2812L113.322 10.0623L106.563 6.21885H114.918L117.5 0Z" fill="#F7A43C"/>
<path d="M140.5 0L143.082 6.21885H151.437L144.678 10.0623L147.26 16.2812L140.5 12.4377L133.74 16.2812L136.322 10.0623L129.563 6.21885H137.918L140.5 0Z" fill="#F7A43C"/>
<path d="M163.5 0L166.082 6.21885H174.437L167.678 10.0623L170.26 16.2812L163.5 12.4377L156.74 16.2812L159.322 10.0623L152.563 6.21885H160.918L163.5 0Z" fill="#F7A43C"/>
<path d="M209.5 0L212.082 6.21885H220.437L213.678 10.0623L216.26 16.2812L209.5 12.4377L202.74 16.2812L205.322 10.0623L198.563 6.21885H206.918L209.5 0Z" fill="#F7A43C"/>
<path d="M186.5 0L189.082 6.21885H197.437L190.678 10.0623L193.26 16.2812L186.5 12.4377L179.74 16.2812L182.322 10.0623L175.563 6.21885H183.918L186.5 0Z" fill="#F7A43C"/>
<path d="M88.0686 5.566H84.9046V8.296C85.4366 7.86667 86.0713 7.652 86.8086 7.652C87.4526 7.652 87.9333 7.84333 88.2506 8.226C88.5773 8.59933 88.7406 9.20133 88.7406 10.032V10.536C88.7406 12.2907 87.8306 13.168 86.0106 13.168C85.684 13.168 85.3246 13.1353 84.9326 13.07C84.5406 13.014 84.1953 12.944 83.8966 12.86V11.894C84.1673 11.95 84.5266 12.0107 84.9746 12.076C85.4226 12.132 85.7586 12.16 85.9826 12.16C86.496 12.16 86.8833 12.0247 87.1446 11.754C87.4153 11.474 87.5506 11.068 87.5506 10.536V9.99C87.5506 9.094 87.2053 8.646 86.5146 8.646C86.1413 8.646 85.81 8.716 85.5206 8.856C85.2406 8.996 84.956 9.22933 84.6666 9.556H83.7566V4.544H88.0686V5.566ZM90.6536 11.46C91.1856 11.46 91.4516 11.6793 91.4516 12.118V12.524C91.4516 12.7293 91.3816 12.888 91.2416 13C91.1109 13.112 90.9149 13.168 90.6536 13.168C90.4016 13.168 90.2056 13.112 90.0656 13C89.9349 12.888 89.8696 12.7293 89.8696 12.524V12.118C89.8696 11.9033 89.9349 11.74 90.0656 11.628C90.2056 11.516 90.4016 11.46 90.6536 11.46ZM95.4434 4.418C96.2834 4.418 96.9227 4.66067 97.3614 5.146C97.8094 5.622 98.0334 6.336 98.0334 7.288V10.298C98.0334 11.25 97.8094 11.9687 97.3614 12.454C96.9227 12.93 96.2834 13.168 95.4434 13.168C94.6034 13.168 93.9594 12.93 93.5114 12.454C93.0727 11.9687 92.8534 11.25 92.8534 10.298V7.288C92.8534 6.336 93.0727 5.622 93.5114 5.146C93.9594 4.66067 94.6034 4.418 95.4434 4.418ZM95.4434 5.426C94.51 5.426 94.0434 6.00933 94.0434 7.176V10.41C94.0434 11.5767 94.51 12.16 95.4434 12.16C96.3767 12.16 96.8434 11.5767 96.8434 10.41V7.176C96.8434 6.00933 96.3767 5.426 95.4434 5.426Z" fill="#D81111"/>
<line x1="82" y1="15.5" x2="100" y2="15.5" stroke="#D81111"/>
<path d="M96.3186 90L93.1138 84.7711H89.7403V90H86.8728V76.241H93.7403C95.3789 76.241 96.6399 76.5944 97.5234 77.3012C98.423 78.008 98.8728 79.0201 98.8728 80.3373C98.8728 81.3012 98.5997 82.1365 98.0536 82.8434C97.5074 83.5341 96.7684 83.992 95.8367 84.2169L99.5475 90H96.3186ZM95.9813 80.4578C95.9813 79.1406 95.1299 78.4819 93.4271 78.4819H89.7403V82.5301H93.5234C94.3267 82.5301 94.9371 82.3534 95.3548 82C95.7724 81.6305 95.9813 81.1165 95.9813 80.4578ZM110.8 85.9759C110.8 87.1486 110.399 88.0643 109.596 88.7229C108.808 89.3655 107.644 89.7189 106.102 89.7831V91.494H105.041V89.8072C103.644 89.759 102.551 89.4297 101.764 88.8193C100.977 88.2088 100.463 87.2771 100.222 86.0241L102.728 85.5663C102.857 86.3052 103.098 86.8434 103.451 87.1807C103.82 87.5181 104.351 87.7189 105.041 87.7831V83.9759C105.025 83.9598 104.977 83.9438 104.897 83.9277C104.816 83.9116 104.76 83.9036 104.728 83.9036C103.668 83.6627 102.873 83.3815 102.343 83.0602C101.812 82.7229 101.395 82.3052 101.09 81.8072C100.8 81.2932 100.656 80.6747 100.656 79.9518C100.656 78.8755 101.025 78.0402 101.764 77.4458C102.519 76.8514 103.612 76.5221 105.041 76.4578V75.1566H106.102V76.4578C106.953 76.49 107.66 76.6265 108.222 76.8675C108.8 77.1084 109.258 77.4618 109.596 77.9277C109.949 78.3775 110.238 79.0281 110.463 79.8795L107.885 80.2651C107.788 79.7028 107.596 79.2691 107.306 78.9639C107.017 78.6426 106.616 78.4498 106.102 78.3855V81.8072L106.198 81.8313C106.391 81.8313 106.969 81.992 107.933 82.3133C108.897 82.6185 109.612 83.0763 110.078 83.6867C110.559 84.2972 110.8 85.0602 110.8 85.9759ZM105.041 78.3373C103.837 78.4337 103.226 78.9558 103.21 79.9036C103.21 80.1928 103.258 80.4337 103.355 80.6265C103.467 80.8032 103.62 80.9558 103.812 81.0843C104.005 81.2129 104.415 81.3815 105.041 81.5904V78.3373ZM108.246 86.0241C108.246 85.7028 108.19 85.4378 108.078 85.2289C107.965 85.0201 107.796 84.8514 107.571 84.7229C107.347 84.5944 106.857 84.4177 106.102 84.1928V87.7831C107.531 87.6867 108.246 87.1004 108.246 86.0241ZM117.616 90V87.9518H121.038V78.5783L117.737 80.6265V78.4819L121.183 76.241H123.785V87.9518H126.942V90H117.616ZM137.886 86.1928C137.886 87.4779 137.46 88.4739 136.609 89.1807C135.758 89.8715 134.553 90.2169 132.995 90.2169C131.517 90.2169 130.336 89.8795 129.452 89.2048C128.585 88.5301 128.079 87.5502 127.934 86.2651L130.73 86.0241C130.906 87.3414 131.661 88 132.995 88C133.653 88 134.159 87.8394 134.513 87.5181C134.882 87.1807 135.067 86.6827 135.067 86.0241C135.067 85.4137 134.842 84.9478 134.392 84.6265C133.958 84.2892 133.3 84.1205 132.416 84.1205H131.477V81.9036H132.368C133.155 81.9036 133.75 81.743 134.151 81.4217C134.553 81.1004 134.754 80.6426 134.754 80.0482C134.754 79.4859 134.593 79.0442 134.272 78.7229C133.95 78.3855 133.493 78.2169 132.898 78.2169C132.336 78.2169 131.878 78.3775 131.525 78.6988C131.171 79.004 130.971 79.4458 130.922 80.0241L128.175 79.8313C128.32 78.6426 128.81 77.7108 129.645 77.0361C130.481 76.3614 131.581 76.0241 132.946 76.0241C134.392 76.0241 135.517 76.3534 136.32 77.012C137.123 77.6546 137.525 78.5462 137.525 79.6867C137.525 80.5382 137.268 81.245 136.754 81.8072C136.256 82.3695 135.533 82.739 134.585 82.9157V82.9639C135.645 83.0924 136.456 83.4458 137.019 84.0241C137.597 84.5863 137.886 85.3092 137.886 86.1928ZM148.903 83.1084C148.903 85.4378 148.501 87.2048 147.698 88.4096C146.895 89.5984 145.698 90.1928 144.108 90.1928C140.959 90.1928 139.385 87.8313 139.385 83.1084C139.385 81.4538 139.554 80.1124 139.891 79.0843C140.244 78.0402 140.767 77.2691 141.457 76.7711C142.148 76.2731 143.056 76.0241 144.18 76.0241C145.803 76.0241 146.991 76.6185 147.746 77.8072C148.518 78.9799 148.903 80.747 148.903 83.1084ZM146.132 83.1084C146.132 81.8394 146.068 80.8594 145.939 80.1687C145.827 79.4618 145.634 78.9558 145.361 78.6506C145.088 78.3454 144.686 78.1928 144.156 78.1928C143.61 78.1928 143.192 78.3454 142.903 78.6506C142.63 78.9558 142.429 79.4618 142.301 80.1687C142.188 80.8594 142.132 81.8394 142.132 83.1084C142.132 84.3614 142.196 85.3414 142.325 86.0482C142.453 86.755 142.654 87.2691 142.927 87.5904C143.2 87.8956 143.602 88.0482 144.132 88.0482C144.646 88.0482 145.04 87.8876 145.313 87.5663C145.602 87.2289 145.811 86.7068 145.939 86C146.068 85.2932 146.132 84.3293 146.132 83.1084ZM153.92 89.3494C153.92 90.1365 153.832 90.8273 153.655 91.4217C153.494 92.0161 153.229 92.5703 152.86 93.0843H151.053C151.438 92.6185 151.751 92.1124 151.992 91.5663C152.233 91.0201 152.354 90.498 152.354 90H151.101V87.012H153.92V89.3494ZM165.563 83.1084C165.563 85.4378 165.162 87.2048 164.358 88.4096C163.555 89.5984 162.358 90.1928 160.768 90.1928C157.619 90.1928 156.045 87.8313 156.045 83.1084C156.045 81.4538 156.214 80.1124 156.551 79.0843C156.905 78.0402 157.427 77.2691 158.117 76.7711C158.808 76.2731 159.716 76.0241 160.84 76.0241C162.463 76.0241 163.652 76.6185 164.407 77.8072C165.178 78.9799 165.563 80.747 165.563 83.1084ZM162.792 83.1084C162.792 81.8394 162.728 80.8594 162.599 80.1687C162.487 79.4618 162.294 78.9558 162.021 78.6506C161.748 78.3454 161.346 78.1928 160.816 78.1928C160.27 78.1928 159.852 78.3454 159.563 78.6506C159.29 78.9558 159.089 79.4618 158.961 80.1687C158.848 80.8594 158.792 81.8394 158.792 83.1084C158.792 84.3614 158.856 85.3414 158.985 86.0482C159.113 86.755 159.314 87.2691 159.587 87.5904C159.86 87.8956 160.262 88.0482 160.792 88.0482C161.306 88.0482 161.7 87.8876 161.973 87.5663C162.262 87.2289 162.471 86.7068 162.599 86C162.728 85.2932 162.792 84.3293 162.792 83.1084ZM176.677 83.1084C176.677 85.4378 176.275 87.2048 175.472 88.4096C174.669 89.5984 173.472 90.1928 171.881 90.1928C168.733 90.1928 167.158 87.8313 167.158 83.1084C167.158 81.4538 167.327 80.1124 167.664 79.0843C168.018 78.0402 168.54 77.2691 169.231 76.7711C169.922 76.2731 170.829 76.0241 171.954 76.0241C173.576 76.0241 174.765 76.6185 175.52 77.8072C176.291 78.9799 176.677 80.747 176.677 83.1084ZM173.905 83.1084C173.905 81.8394 173.841 80.8594 173.713 80.1687C173.6 79.4618 173.407 78.9558 173.134 78.6506C172.861 78.3454 172.46 78.1928 171.93 78.1928C171.383 78.1928 170.966 78.3454 170.677 78.6506C170.403 78.9558 170.203 79.4618 170.074 80.1687C169.962 80.8594 169.905 81.8394 169.905 83.1084C169.905 84.3614 169.97 85.3414 170.098 86.0482C170.227 86.755 170.428 87.2691 170.701 87.5904C170.974 87.8956 171.375 88.0482 171.905 88.0482C172.42 88.0482 172.813 87.8876 173.086 87.5663C173.375 87.2289 173.584 86.7068 173.713 86C173.841 85.2932 173.905 84.3293 173.905 83.1084Z" fill="#D81111"/>
<path d="M88.5211 40.774H85.4971V39.808H92.9171V40.774H89.8511V50H88.5211V40.774ZM95.3516 50.182C94.6703 50.182 94.0963 50.014 93.6296 49.678C93.1723 49.3327 92.8269 48.8847 92.5936 48.334C92.3696 47.7833 92.2576 47.1953 92.2576 46.57C92.2576 46.1033 92.3276 45.6507 92.4676 45.212C92.6076 44.764 92.8129 44.3673 93.0836 44.022C93.3543 43.6673 93.6856 43.3873 94.0776 43.182C94.4789 42.9767 94.9316 42.874 95.4356 42.874C96.1263 42.874 96.7003 43.042 97.1576 43.378C97.6243 43.714 97.9696 44.1573 98.1936 44.708C98.4269 45.2587 98.5436 45.8513 98.5436 46.486C98.5436 46.962 98.4736 47.424 98.3336 47.872C98.1936 48.3107 97.9883 48.7027 97.7176 49.048C97.4563 49.3933 97.1249 49.6687 96.7236 49.874C96.3316 50.0793 95.8743 50.182 95.3516 50.182ZM95.3656 49.3C95.7296 49.3 96.0329 49.216 96.2756 49.048C96.5276 48.8707 96.7283 48.642 96.8776 48.362C97.0363 48.082 97.1483 47.7833 97.2136 47.466C97.2789 47.1393 97.3116 46.8267 97.3116 46.528C97.3116 46.22 97.2789 45.9073 97.2136 45.59C97.1576 45.2633 97.0596 44.9647 96.9196 44.694C96.7796 44.414 96.5836 44.19 96.3316 44.022C96.0889 43.8447 95.7856 43.756 95.4216 43.756C95.0576 43.756 94.7496 43.8447 94.4976 44.022C94.2549 44.19 94.0589 44.414 93.9096 44.694C93.7603 44.974 93.6529 45.2773 93.5876 45.604C93.5223 45.9213 93.4896 46.2293 93.4896 46.528C93.4896 46.8173 93.5223 47.1253 93.5876 47.452C93.6529 47.7693 93.7556 48.068 93.8956 48.348C94.0449 48.628 94.2409 48.8567 94.4836 49.034C94.7263 49.2113 95.0203 49.3 95.3656 49.3ZM102.577 42.874C102.894 42.874 103.207 42.916 103.515 43C103.832 43.0747 104.122 43.196 104.383 43.364L103.977 44.26C103.772 44.092 103.543 43.966 103.291 43.882C103.039 43.798 102.792 43.756 102.549 43.756C102.204 43.756 101.9 43.8353 101.639 43.994C101.387 44.1527 101.261 44.3907 101.261 44.708C101.261 44.932 101.312 45.1187 101.415 45.268C101.527 45.4173 101.672 45.5433 101.849 45.646C102.026 45.7487 102.218 45.8513 102.423 45.954C102.656 46.066 102.89 46.1827 103.123 46.304C103.366 46.416 103.585 46.556 103.781 46.724C103.986 46.8827 104.15 47.0787 104.271 47.312C104.402 47.536 104.467 47.816 104.467 48.152C104.467 48.6187 104.35 49.006 104.117 49.314C103.893 49.6127 103.594 49.832 103.221 49.972C102.857 50.112 102.46 50.182 102.031 50.182C101.658 50.182 101.284 50.1307 100.911 50.028C100.538 49.9253 100.192 49.7807 99.8751 49.594L100.365 48.74C100.589 48.908 100.841 49.0433 101.121 49.146C101.401 49.2487 101.672 49.3 101.933 49.3C102.288 49.3 102.596 49.216 102.857 49.048C103.128 48.88 103.263 48.628 103.263 48.292C103.263 48.0587 103.188 47.8673 103.039 47.718C102.899 47.5593 102.717 47.4193 102.493 47.298C102.269 47.1767 102.036 47.06 101.793 46.948C101.513 46.808 101.238 46.6587 100.967 46.5C100.706 46.332 100.491 46.122 100.323 45.87C100.155 45.618 100.071 45.296 100.071 44.904C100.071 44.456 100.188 44.0827 100.421 43.784C100.664 43.4853 100.976 43.2613 101.359 43.112C101.742 42.9533 102.148 42.874 102.577 42.874ZM108.719 42.874C109.456 42.874 110.011 43.0747 110.385 43.476C110.758 43.8773 110.945 44.442 110.945 45.17V48.656C110.945 48.852 110.982 48.9873 111.057 49.062C111.131 49.1273 111.22 49.16 111.323 49.16C111.407 49.16 111.495 49.1507 111.589 49.132C111.682 49.104 111.771 49.0713 111.855 49.034L112.107 49.79C111.957 49.874 111.766 49.9487 111.533 50.014C111.309 50.0887 111.075 50.126 110.833 50.126C110.59 50.126 110.371 50.0607 110.175 49.93C109.979 49.79 109.857 49.538 109.811 49.174C109.54 49.4633 109.223 49.7013 108.859 49.888C108.495 50.0653 108.112 50.154 107.711 50.154C107.16 50.154 106.703 49.9907 106.339 49.664C105.975 49.3373 105.793 48.8893 105.793 48.32C105.793 47.788 105.919 47.3633 106.171 47.046C106.432 46.7287 106.768 46.4907 107.179 46.332C107.589 46.1733 108.023 46.066 108.481 46.01C108.947 45.954 109.381 45.926 109.783 45.926V45.184C109.783 44.9227 109.75 44.6893 109.685 44.484C109.619 44.2693 109.503 44.1013 109.335 43.98C109.167 43.8493 108.929 43.784 108.621 43.784C108.266 43.784 107.925 43.854 107.599 43.994C107.272 44.134 106.945 44.3393 106.619 44.61L106.045 43.784C106.427 43.476 106.847 43.2473 107.305 43.098C107.762 42.9487 108.233 42.874 108.719 42.874ZM109.783 46.836C109.531 46.836 109.246 46.85 108.929 46.878C108.611 46.8967 108.303 46.9527 108.005 47.046C107.706 47.13 107.459 47.27 107.263 47.466C107.076 47.662 106.983 47.9327 106.983 48.278C106.983 48.586 107.085 48.8147 107.291 48.964C107.505 49.104 107.771 49.174 108.089 49.174C108.425 49.174 108.719 49.0807 108.971 48.894C109.223 48.7073 109.419 48.4693 109.559 48.18C109.708 47.8907 109.783 47.592 109.783 47.284V46.836ZM120.711 39.668C121.075 39.668 121.463 39.71 121.873 39.794C122.293 39.8687 122.695 39.9947 123.077 40.172C123.469 40.34 123.796 40.5593 124.057 40.83L123.315 41.698C123.026 41.4647 122.755 41.2733 122.503 41.124C122.251 40.9747 121.985 40.8627 121.705 40.788C121.435 40.7133 121.103 40.676 120.711 40.676C120.095 40.676 119.573 40.7927 119.143 41.026C118.723 41.2593 118.378 41.5767 118.107 41.978C117.846 42.3793 117.655 42.832 117.533 43.336C117.412 43.84 117.351 44.3627 117.351 44.904C117.351 45.4173 117.407 45.926 117.519 46.43C117.631 46.9247 117.813 47.3773 118.065 47.788C118.317 48.1987 118.649 48.5253 119.059 48.768C119.47 49.0107 119.974 49.132 120.571 49.132C121.066 49.132 121.491 49.0247 121.845 48.81C122.209 48.586 122.489 48.2873 122.685 47.914C122.891 47.5313 122.993 47.102 122.993 46.626V45.702H120.487L120.655 44.75H124.309V47.676C124.309 48.0587 124.323 48.446 124.351 48.838C124.389 49.23 124.417 49.6173 124.435 50H123.735L123.287 48.936C122.877 49.3747 122.433 49.692 121.957 49.888C121.491 50.0747 120.954 50.168 120.347 50.168C119.61 50.168 118.966 50.0327 118.415 49.762C117.874 49.482 117.421 49.104 117.057 48.628C116.693 48.1427 116.423 47.592 116.245 46.976C116.068 46.36 115.979 45.7113 115.979 45.03C115.979 44.2833 116.077 43.588 116.273 42.944C116.469 42.2907 116.763 41.7213 117.155 41.236C117.547 40.7413 118.037 40.3587 118.625 40.088C119.223 39.808 119.918 39.668 120.711 39.668ZM127.166 42.916C127.334 43.3267 127.441 43.7607 127.488 44.218C127.73 43.8353 128.057 43.5227 128.468 43.28C128.878 43.0373 129.312 42.916 129.77 42.916L129.49 44.148C129.042 44.148 128.659 44.2647 128.342 44.498C128.034 44.7313 127.758 45.0253 127.516 45.38V50H126.354V44.96C126.354 44.7733 126.34 44.5633 126.312 44.33C126.284 44.0967 126.237 43.868 126.172 43.644C126.106 43.42 126.018 43.2287 125.906 43.07L127.166 42.916ZM133.438 42.874C134.175 42.874 134.73 43.0747 135.104 43.476C135.477 43.8773 135.664 44.442 135.664 45.17V48.656C135.664 48.852 135.701 48.9873 135.776 49.062C135.85 49.1273 135.939 49.16 136.042 49.16C136.126 49.16 136.214 49.1507 136.308 49.132C136.401 49.104 136.49 49.0713 136.574 49.034L136.826 49.79C136.676 49.874 136.485 49.9487 136.252 50.014C136.028 50.0887 135.794 50.126 135.552 50.126C135.309 50.126 135.09 50.0607 134.894 49.93C134.698 49.79 134.576 49.538 134.53 49.174C134.259 49.4633 133.942 49.7013 133.578 49.888C133.214 50.0653 132.831 50.154 132.43 50.154C131.879 50.154 131.422 49.9907 131.058 49.664C130.694 49.3373 130.512 48.8893 130.512 48.32C130.512 47.788 130.638 47.3633 130.89 47.046C131.151 46.7287 131.487 46.4907 131.898 46.332C132.308 46.1733 132.742 46.066 133.2 46.01C133.666 45.954 134.1 45.926 134.502 45.926V45.184C134.502 44.9227 134.469 44.6893 134.404 44.484C134.338 44.2693 134.222 44.1013 134.054 43.98C133.886 43.8493 133.648 43.784 133.34 43.784C132.985 43.784 132.644 43.854 132.318 43.994C131.991 44.134 131.664 44.3393 131.338 44.61L130.764 43.784C131.146 43.476 131.566 43.2473 132.024 43.098C132.481 42.9487 132.952 42.874 133.438 42.874ZM134.502 46.836C134.25 46.836 133.965 46.85 133.648 46.878C133.33 46.8967 133.022 46.9527 132.724 47.046C132.425 47.13 132.178 47.27 131.982 47.466C131.795 47.662 131.702 47.9327 131.702 48.278C131.702 48.586 131.804 48.8147 132.01 48.964C132.224 49.104 132.49 49.174 132.808 49.174C133.144 49.174 133.438 49.0807 133.69 48.894C133.942 48.7073 134.138 48.4693 134.278 48.18C134.427 47.8907 134.502 47.592 134.502 47.284V46.836ZM138.745 42.93C138.811 43.0887 138.867 43.252 138.913 43.42C138.96 43.588 138.993 43.756 139.011 43.924C139.291 43.644 139.623 43.4013 140.005 43.196C140.388 42.9813 140.78 42.874 141.181 42.874C141.695 42.874 142.105 42.9813 142.413 43.196C142.731 43.4107 142.959 43.7047 143.099 44.078C143.239 44.442 143.309 44.8667 143.309 45.352V50H142.161V45.73C142.161 45.4407 142.138 45.156 142.091 44.876C142.054 44.596 141.951 44.3673 141.783 44.19C141.625 44.0033 141.359 43.91 140.985 43.91C140.761 43.91 140.533 43.9567 140.299 44.05C140.066 44.134 139.847 44.246 139.641 44.386C139.436 44.526 139.249 44.6753 139.081 44.834V50H137.933V45.072C137.933 44.8853 137.919 44.6707 137.891 44.428C137.863 44.176 137.817 43.9333 137.751 43.7C137.686 43.4573 137.593 43.2567 137.471 43.098L138.745 42.93ZM148.208 42.888C148.525 42.888 148.842 42.9393 149.16 43.042C149.477 43.1447 149.752 43.3033 149.986 43.518C149.976 43.3873 149.967 43.2613 149.958 43.14C149.958 43.0093 149.958 42.8833 149.958 42.762V40.158L149.762 39.332H151.106V47.998C151.106 48.194 151.12 48.4133 151.148 48.656C151.176 48.8987 151.222 49.1367 151.288 49.37C151.353 49.594 151.437 49.7947 151.54 49.972L150.308 50.126C150.242 49.9673 150.186 49.8087 150.14 49.65C150.093 49.4913 150.06 49.3327 150.042 49.174C149.799 49.4913 149.496 49.7387 149.132 49.916C148.768 50.0933 148.385 50.182 147.984 50.182C147.498 50.182 147.074 50.0793 146.71 49.874C146.346 49.6687 146.042 49.3933 145.8 49.048C145.566 48.6933 145.389 48.306 145.268 47.886C145.156 47.4567 145.1 47.0227 145.1 46.584C145.1 46.108 145.16 45.6507 145.282 45.212C145.412 44.764 145.604 44.3673 145.856 44.022C146.117 43.6767 146.444 43.4013 146.836 43.196C147.228 42.9907 147.685 42.888 148.208 42.888ZM148.236 43.84C147.872 43.84 147.564 43.9193 147.312 44.078C147.069 44.2367 146.873 44.4467 146.724 44.708C146.584 44.9693 146.481 45.2587 146.416 45.576C146.36 45.884 146.332 46.192 146.332 46.5C146.332 46.8173 146.364 47.1347 146.43 47.452C146.504 47.76 146.616 48.0447 146.766 48.306C146.924 48.5673 147.13 48.7773 147.382 48.936C147.643 49.0853 147.96 49.16 148.334 49.16C148.66 49.16 148.959 49.0667 149.23 48.88C149.51 48.684 149.752 48.4693 149.958 48.236V45.884C149.958 45.5107 149.897 45.17 149.776 44.862C149.664 44.554 149.482 44.3067 149.23 44.12C148.978 43.9333 148.646 43.84 148.236 43.84ZM156.056 42.874C156.616 42.874 157.088 42.9907 157.47 43.224C157.853 43.448 158.138 43.7653 158.324 44.176C158.52 44.5773 158.618 45.0487 158.618 45.59C158.618 45.7207 158.609 45.856 158.59 45.996C158.581 46.1267 158.567 46.2667 158.548 46.416H154.124C154.124 47.3027 154.32 47.9887 154.712 48.474C155.104 48.9593 155.627 49.202 156.28 49.202C156.551 49.202 156.831 49.16 157.12 49.076C157.419 48.992 157.727 48.866 158.044 48.698L158.478 49.398C158.152 49.6593 157.783 49.8553 157.372 49.986C156.962 50.1167 156.546 50.182 156.126 50.182C155.576 50.182 155.095 50.084 154.684 49.888C154.283 49.6827 153.947 49.412 153.676 49.076C153.415 48.7307 153.219 48.3433 153.088 47.914C152.958 47.4847 152.892 47.046 152.892 46.598C152.892 46.1313 152.958 45.6787 153.088 45.24C153.219 44.8013 153.415 44.4047 153.676 44.05C153.947 43.686 154.278 43.4013 154.67 43.196C155.062 42.9813 155.524 42.874 156.056 42.874ZM155.944 43.756C155.627 43.756 155.347 43.8447 155.104 44.022C154.862 44.1993 154.666 44.428 154.516 44.708C154.367 44.9787 154.264 45.2587 154.208 45.548H157.4C157.41 45.156 157.354 44.8293 157.232 44.568C157.12 44.2973 156.952 44.0967 156.728 43.966C156.514 43.826 156.252 43.756 155.944 43.756ZM163.415 39.808H166.467C167.139 39.808 167.732 39.9153 168.245 40.13C168.768 40.3353 169.174 40.662 169.463 41.11C169.752 41.558 169.897 42.1507 169.897 42.888C169.897 43.5693 169.743 44.1387 169.435 44.596C169.127 45.0533 168.716 45.3987 168.203 45.632C167.69 45.856 167.116 45.968 166.481 45.968H164.927V50H163.625V40.732L163.415 39.808ZM164.927 40.774V45.016H166.453C167.097 45.016 167.606 44.82 167.979 44.428C168.352 44.036 168.539 43.5227 168.539 42.888C168.539 42.2253 168.362 41.7073 168.007 41.334C167.652 40.9607 167.139 40.774 166.467 40.774H164.927ZM173.678 50.182C172.996 50.182 172.422 50.014 171.956 49.678C171.498 49.3327 171.153 48.8847 170.92 48.334C170.696 47.7833 170.584 47.1953 170.584 46.57C170.584 46.1033 170.654 45.6507 170.794 45.212C170.934 44.764 171.139 44.3673 171.41 44.022C171.68 43.6673 172.012 43.3873 172.404 43.182C172.805 42.9767 173.258 42.874 173.762 42.874C174.452 42.874 175.026 43.042 175.484 43.378C175.95 43.714 176.296 44.1573 176.52 44.708C176.753 45.2587 176.87 45.8513 176.87 46.486C176.87 46.962 176.8 47.424 176.66 47.872C176.52 48.3107 176.314 48.7027 176.044 49.048C175.782 49.3933 175.451 49.6687 175.05 49.874C174.658 50.0793 174.2 50.182 173.678 50.182ZM173.692 49.3C174.056 49.3 174.359 49.216 174.602 49.048C174.854 48.8707 175.054 48.642 175.204 48.362C175.362 48.082 175.474 47.7833 175.54 47.466C175.605 47.1393 175.638 46.8267 175.638 46.528C175.638 46.22 175.605 45.9073 175.54 45.59C175.484 45.2633 175.386 44.9647 175.246 44.694C175.106 44.414 174.91 44.19 174.658 44.022C174.415 43.8447 174.112 43.756 173.748 43.756C173.384 43.756 173.076 43.8447 172.824 44.022C172.581 44.19 172.385 44.414 172.236 44.694C172.086 44.974 171.979 45.2773 171.914 45.604C171.848 45.9213 171.816 46.2293 171.816 46.528C171.816 46.8173 171.848 47.1253 171.914 47.452C171.979 47.7693 172.082 48.068 172.222 48.348C172.371 48.628 172.567 48.8567 172.81 49.034C173.052 49.2113 173.346 49.3 173.692 49.3ZM179.338 42.916C179.506 43.3267 179.613 43.7607 179.66 44.218C179.902 43.8353 180.229 43.5227 180.64 43.28C181.05 43.0373 181.484 42.916 181.942 42.916L181.662 44.148C181.214 44.148 180.831 44.2647 180.514 44.498C180.206 44.7313 179.93 45.0253 179.688 45.38V50H178.526V44.96C178.526 44.7733 178.512 44.5633 178.484 44.33C178.456 44.0967 178.409 43.868 178.344 43.644C178.278 43.42 178.19 43.2287 178.078 43.07L179.338 42.916ZM185.304 41.054C185.239 41.3713 185.178 41.7027 185.122 42.048C185.075 42.384 185.043 42.7153 185.024 43.042H186.844L186.606 43.924H185.024V48.376C185.024 48.5533 185.043 48.712 185.08 48.852C185.127 48.9827 185.201 49.0853 185.304 49.16C185.416 49.2253 185.57 49.258 185.766 49.258C185.915 49.258 186.065 49.244 186.214 49.216C186.363 49.188 186.508 49.1553 186.648 49.118L186.844 49.902C186.611 49.9673 186.387 50.0233 186.172 50.07C185.967 50.126 185.729 50.154 185.458 50.154C184.861 50.154 184.445 49.9953 184.212 49.678C183.979 49.3607 183.862 48.9173 183.862 48.348V43.924H182.826V43.224C183.106 43.2147 183.339 43.14 183.526 43C183.713 42.86 183.867 42.6827 183.988 42.468C184.109 42.244 184.207 42.0107 184.282 41.768C184.357 41.516 184.413 41.278 184.45 41.054H185.304ZM190.701 42.874C191.261 42.874 191.732 42.9907 192.115 43.224C192.498 43.448 192.782 43.7653 192.969 44.176C193.165 44.5773 193.263 45.0487 193.263 45.59C193.263 45.7207 193.254 45.856 193.235 45.996C193.226 46.1267 193.212 46.2667 193.193 46.416H188.769C188.769 47.3027 188.965 47.9887 189.357 48.474C189.749 48.9593 190.272 49.202 190.925 49.202C191.196 49.202 191.476 49.16 191.765 49.076C192.064 48.992 192.372 48.866 192.689 48.698L193.123 49.398C192.796 49.6593 192.428 49.8553 192.017 49.986C191.606 50.1167 191.191 50.182 190.771 50.182C190.22 50.182 189.74 50.084 189.329 49.888C188.928 49.6827 188.592 49.412 188.321 49.076C188.06 48.7307 187.864 48.3433 187.733 47.914C187.602 47.4847 187.537 47.046 187.537 46.598C187.537 46.1313 187.602 45.6787 187.733 45.24C187.864 44.8013 188.06 44.4047 188.321 44.05C188.592 43.686 188.923 43.4013 189.315 43.196C189.707 42.9813 190.169 42.874 190.701 42.874ZM190.589 43.756C190.272 43.756 189.992 43.8447 189.749 44.022C189.506 44.1993 189.31 44.428 189.161 44.708C189.012 44.9787 188.909 45.2587 188.853 45.548H192.045C192.054 45.156 191.998 44.8293 191.877 44.568C191.765 44.2973 191.597 44.0967 191.373 43.966C191.158 43.826 190.897 43.756 190.589 43.756Z" fill="black"/>
</svg>
