<svg width="311" height="97" viewBox="0 0 311 97" fill="none" xmlns="http://www.w3.org/2000/svg">
<line x1="77.9935" y1="20.5" x2="310.993" y2="17.4609" stroke="black"/>
<line x1="72.9979" y1="96.5" x2="310.998" y2="95.5" stroke="black"/>
<path d="M114.5 0L117.082 6.21885H125.437L118.678 10.0623L121.26 16.2812L114.5 12.4377L107.74 16.2812L110.322 10.0623L103.563 6.21885H111.918L114.5 0Z" fill="#F7A43C"/>
<path d="M137.5 0L140.082 6.21885H148.437L141.678 10.0623L144.26 16.2812L137.5 12.4377L130.74 16.2812L133.322 10.0623L126.563 6.21885H134.918L137.5 0Z" fill="#F7A43C"/>
<path d="M160.5 0L163.082 6.21885H171.437L164.678 10.0623L167.26 16.2812L160.5 12.4377L153.74 16.2812L156.322 10.0623L149.563 6.21885H157.918L160.5 0Z" fill="#F7A43C"/>
<path d="M206.5 0L209.082 6.21885H217.437L210.678 10.0623L213.26 16.2812L206.5 12.4377L199.74 16.2812L202.322 10.0623L195.563 6.21885H203.918L206.5 0Z" fill="#F7A43C"/>
<path d="M183.5 0L186.082 6.21885H194.437L187.678 10.0623L190.26 16.2812L183.5 12.4377L176.74 16.2812L179.322 10.0623L172.563 6.21885H180.918L183.5 0Z" fill="#F7A43C"/>
<path d="M85.0686 5.566H81.9046V8.296C82.4366 7.86667 83.0713 7.652 83.8086 7.652C84.4526 7.652 84.9333 7.84333 85.2506 8.226C85.5773 8.59933 85.7406 9.20133 85.7406 10.032V10.536C85.7406 12.2907 84.8306 13.168 83.0106 13.168C82.684 13.168 82.3246 13.1353 81.9326 13.07C81.5406 13.014 81.1953 12.944 80.8966 12.86V11.894C81.1673 11.95 81.5266 12.0107 81.9746 12.076C82.4226 12.132 82.7586 12.16 82.9826 12.16C83.496 12.16 83.8833 12.0247 84.1446 11.754C84.4153 11.474 84.5506 11.068 84.5506 10.536V9.99C84.5506 9.094 84.2053 8.646 83.5146 8.646C83.1413 8.646 82.81 8.716 82.5206 8.856C82.2406 8.996 81.956 9.22933 81.6666 9.556H80.7566V4.544H85.0686V5.566ZM87.6536 11.46C88.1856 11.46 88.4516 11.6793 88.4516 12.118V12.524C88.4516 12.7293 88.3816 12.888 88.2416 13C88.1109 13.112 87.9149 13.168 87.6536 13.168C87.4016 13.168 87.2056 13.112 87.0656 13C86.9349 12.888 86.8696 12.7293 86.8696 12.524V12.118C86.8696 11.9033 86.9349 11.74 87.0656 11.628C87.2056 11.516 87.4016 11.46 87.6536 11.46ZM92.4434 4.418C93.2834 4.418 93.9227 4.66067 94.3614 5.146C94.8094 5.622 95.0334 6.336 95.0334 7.288V10.298C95.0334 11.25 94.8094 11.9687 94.3614 12.454C93.9227 12.93 93.2834 13.168 92.4434 13.168C91.6034 13.168 90.9594 12.93 90.5114 12.454C90.0727 11.9687 89.8534 11.25 89.8534 10.298V7.288C89.8534 6.336 90.0727 5.622 90.5114 5.146C90.9594 4.66067 91.6034 4.418 92.4434 4.418ZM92.4434 5.426C91.51 5.426 91.0434 6.00933 91.0434 7.176V10.41C91.0434 11.5767 91.51 12.16 92.4434 12.16C93.3767 12.16 93.8434 11.5767 93.8434 10.41V7.176C93.8434 6.00933 93.3767 5.426 92.4434 5.426Z" fill="#D81111"/>
<line x1="79" y1="15.5" x2="97" y2="15.5" stroke="#D81111"/>
<path d="M93.3186 76L90.1138 70.7711H86.7403V76H83.8728V62.241H90.7403C92.3789 62.241 93.6399 62.5944 94.5234 63.3012C95.423 64.008 95.8728 65.0201 95.8728 66.3373C95.8728 67.3012 95.5997 68.1365 95.0536 68.8434C94.5074 69.5341 93.7684 69.992 92.8367 70.2169L96.5475 76H93.3186ZM92.9813 66.4578C92.9813 65.1406 92.1299 64.4819 90.4271 64.4819H86.7403V68.5301H90.5234C91.3267 68.5301 91.9371 68.3534 92.3548 68C92.7724 67.6305 92.9813 67.1165 92.9813 66.4578ZM107.8 71.9759C107.8 73.1486 107.399 74.0643 106.596 74.7229C105.808 75.3655 104.644 75.7189 103.102 75.7831V77.494H102.041V75.8072C100.644 75.759 99.5514 75.4297 98.7643 74.8193C97.9771 74.2088 97.4631 73.2771 97.2221 72.0241L99.7281 71.5663C99.8566 72.3052 100.098 72.8434 100.451 73.1807C100.82 73.5181 101.351 73.7189 102.041 73.7831V69.9759C102.025 69.9598 101.977 69.9438 101.897 69.9277C101.816 69.9116 101.76 69.9036 101.728 69.9036C100.668 69.6627 99.8727 69.3815 99.3426 69.0602C98.8125 68.7229 98.3948 68.3052 98.0896 67.8072C97.8004 67.2932 97.6558 66.6747 97.6558 65.9518C97.6558 64.8755 98.0253 64.0402 98.7643 63.4458C99.5193 62.8514 100.612 62.5221 102.041 62.4578V61.1566H103.102V62.4578C103.953 62.49 104.66 62.6265 105.222 62.8675C105.8 63.1084 106.258 63.4618 106.596 63.9277C106.949 64.3775 107.238 65.0281 107.463 65.8795L104.885 66.2651C104.788 65.7028 104.596 65.2691 104.306 64.9639C104.017 64.6426 103.616 64.4498 103.102 64.3855V67.8072L103.198 67.8313C103.391 67.8313 103.969 67.992 104.933 68.3133C105.897 68.6185 106.612 69.0763 107.078 69.6867C107.559 70.2972 107.8 71.0602 107.8 71.9759ZM102.041 64.3373C100.837 64.4337 100.226 64.9558 100.21 65.9036C100.21 66.1928 100.258 66.4337 100.355 66.6265C100.467 66.8032 100.62 66.9558 100.812 67.0843C101.005 67.2129 101.415 67.3815 102.041 67.5904V64.3373ZM105.246 72.0241C105.246 71.7028 105.19 71.4378 105.078 71.2289C104.965 71.0201 104.796 70.8514 104.571 70.7229C104.347 70.5944 103.857 70.4177 103.102 70.1928V73.7831C104.531 73.6867 105.246 73.1004 105.246 72.0241ZM114.616 76V73.9518H118.038V64.5783L114.737 66.6265V64.4819L118.183 62.241H120.785V73.9518H123.942V76H114.616ZM125.175 76V74.0964C125.529 73.3092 126.035 72.5462 126.693 71.8072C127.352 71.0522 128.187 70.2651 129.199 69.4458C130.163 68.6586 130.838 68.0161 131.224 67.5181C131.609 67.004 131.802 66.506 131.802 66.0241C131.802 64.8193 131.199 64.2169 129.995 64.2169C129.416 64.2169 128.967 64.3775 128.645 64.6988C128.34 65.0201 128.139 65.494 128.043 66.1205L125.296 65.9518C125.456 64.6827 125.93 63.7108 126.718 63.0361C127.521 62.3614 128.605 62.0241 129.971 62.0241C131.448 62.0241 132.581 62.3695 133.368 63.0602C134.171 63.7349 134.573 64.6827 134.573 65.9036C134.573 66.5462 134.444 67.1325 134.187 67.6627C133.946 68.1767 133.625 68.6586 133.224 69.1084C132.822 69.5422 132.38 69.9518 131.898 70.3373C131.416 70.7068 130.942 71.0763 130.477 71.4458C130.027 71.8153 129.617 72.1847 129.248 72.5542C128.878 72.9237 128.597 73.3173 128.404 73.7349H134.79V76H125.175ZM145.903 69.1084C145.903 71.4378 145.501 73.2048 144.698 74.4096C143.895 75.5984 142.698 76.1928 141.108 76.1928C137.959 76.1928 136.385 73.8313 136.385 69.1084C136.385 67.4538 136.554 66.1124 136.891 65.0843C137.244 64.0402 137.767 63.2691 138.457 62.7711C139.148 62.2731 140.056 62.0241 141.18 62.0241C142.803 62.0241 143.991 62.6185 144.746 63.8072C145.518 64.9799 145.903 66.747 145.903 69.1084ZM143.132 69.1084C143.132 67.8394 143.068 66.8594 142.939 66.1687C142.827 65.4618 142.634 64.9558 142.361 64.6506C142.088 64.3454 141.686 64.1928 141.156 64.1928C140.61 64.1928 140.192 64.3454 139.903 64.6506C139.63 64.9558 139.429 65.4618 139.301 66.1687C139.188 66.8594 139.132 67.8394 139.132 69.1084C139.132 70.3614 139.196 71.3414 139.325 72.0482C139.453 72.755 139.654 73.2691 139.927 73.5904C140.2 73.8956 140.602 74.0482 141.132 74.0482C141.646 74.0482 142.04 73.8876 142.313 73.5663C142.602 73.2289 142.811 72.7068 142.939 72C143.068 71.2932 143.132 70.3293 143.132 69.1084ZM150.92 75.3494C150.92 76.1365 150.832 76.8273 150.655 77.4217C150.494 78.0161 150.229 78.5703 149.86 79.0843H148.053C148.438 78.6185 148.751 78.1124 148.992 77.5663C149.233 77.0201 149.354 76.498 149.354 76H148.101V73.012H150.92V75.3494ZM162.563 69.1084C162.563 71.4378 162.162 73.2048 161.358 74.4096C160.555 75.5984 159.358 76.1928 157.768 76.1928C154.619 76.1928 153.045 73.8313 153.045 69.1084C153.045 67.4538 153.214 66.1124 153.551 65.0843C153.905 64.0402 154.427 63.2691 155.117 62.7711C155.808 62.2731 156.716 62.0241 157.84 62.0241C159.463 62.0241 160.652 62.6185 161.407 63.8072C162.178 64.9799 162.563 66.747 162.563 69.1084ZM159.792 69.1084C159.792 67.8394 159.728 66.8594 159.599 66.1687C159.487 65.4618 159.294 64.9558 159.021 64.6506C158.748 64.3454 158.346 64.1928 157.816 64.1928C157.27 64.1928 156.852 64.3454 156.563 64.6506C156.29 64.9558 156.089 65.4618 155.961 66.1687C155.848 66.8594 155.792 67.8394 155.792 69.1084C155.792 70.3614 155.856 71.3414 155.985 72.0482C156.113 72.755 156.314 73.2691 156.587 73.5904C156.86 73.8956 157.262 74.0482 157.792 74.0482C158.306 74.0482 158.7 73.8876 158.973 73.5663C159.262 73.2289 159.471 72.7068 159.599 72C159.728 71.2932 159.792 70.3293 159.792 69.1084ZM173.677 69.1084C173.677 71.4378 173.275 73.2048 172.472 74.4096C171.669 75.5984 170.472 76.1928 168.881 76.1928C165.733 76.1928 164.158 73.8313 164.158 69.1084C164.158 67.4538 164.327 66.1124 164.664 65.0843C165.018 64.0402 165.54 63.2691 166.231 62.7711C166.922 62.2731 167.829 62.0241 168.954 62.0241C170.576 62.0241 171.765 62.6185 172.52 63.8072C173.291 64.9799 173.677 66.747 173.677 69.1084ZM170.905 69.1084C170.905 67.8394 170.841 66.8594 170.713 66.1687C170.6 65.4618 170.407 64.9558 170.134 64.6506C169.861 64.3454 169.46 64.1928 168.93 64.1928C168.383 64.1928 167.966 64.3454 167.677 64.6506C167.403 64.9558 167.203 65.4618 167.074 66.1687C166.962 66.8594 166.905 67.8394 166.905 69.1084C166.905 70.3614 166.97 71.3414 167.098 72.0482C167.227 72.755 167.428 73.2691 167.701 73.5904C167.974 73.8956 168.375 74.0482 168.905 74.0482C169.42 74.0482 169.813 73.8876 170.086 73.5663C170.375 73.2289 170.584 72.7068 170.713 72C170.841 71.2932 170.905 70.3293 170.905 69.1084Z" fill="#D81111"/>
<path d="M86.9431 39.174C86.9431 39.5193 86.8731 39.8553 86.7331 40.182C86.6025 40.4993 86.4065 40.7747 86.1451 41.008C85.8931 41.232 85.5851 41.3767 85.2211 41.442C85.6878 41.5073 86.0798 41.6707 86.3971 41.932C86.7238 42.184 86.9711 42.5013 87.1391 42.884C87.3165 43.2667 87.4051 43.6867 87.4051 44.144C87.4051 44.7507 87.2931 45.2453 87.0691 45.628C86.8451 46.0013 86.5418 46.2907 86.1591 46.496C85.7765 46.692 85.3471 46.8273 84.8711 46.902C84.3951 46.9673 83.9098 47 83.4151 47H80.6431V37.732C80.6431 37.7227 80.6245 37.648 80.5871 37.508C80.5591 37.368 80.5311 37.2233 80.5031 37.074C80.4751 36.9247 80.4565 36.836 80.4471 36.808H83.8491C84.2505 36.808 84.6331 36.8453 84.9971 36.92C85.3705 36.9853 85.7018 37.1067 85.9911 37.284C86.2898 37.4613 86.5231 37.704 86.6911 38.012C86.8591 38.3107 86.9431 38.698 86.9431 39.174ZM85.5851 39.202C85.5851 38.8287 85.5011 38.5393 85.3331 38.334C85.1745 38.1287 84.9598 37.984 84.6891 37.9C84.4185 37.816 84.1245 37.774 83.8071 37.774H81.9451V41.022H83.4431C83.8818 41.022 84.2598 40.966 84.5771 40.854C84.8945 40.742 85.1418 40.5553 85.3191 40.294C85.4965 40.0233 85.5851 39.6593 85.5851 39.202ZM86.0191 43.934C86.0191 43.458 85.8931 43.08 85.6411 42.8C85.3985 42.5107 85.0811 42.3053 84.6891 42.184C84.3065 42.0533 83.9098 41.988 83.4991 41.988H81.9451V46.034H83.4991C83.9938 46.034 84.4278 45.978 84.8011 45.866C85.1838 45.7447 85.4825 45.53 85.6971 45.222C85.9118 44.914 86.0191 44.4847 86.0191 43.934ZM91.5947 39.874C92.3321 39.874 92.8874 40.0747 93.2607 40.476C93.6341 40.8773 93.8207 41.442 93.8207 42.17V45.656C93.8207 45.852 93.8581 45.9873 93.9327 46.062C94.0074 46.1273 94.0961 46.16 94.1987 46.16C94.2827 46.16 94.3714 46.1507 94.4647 46.132C94.5581 46.104 94.6467 46.0713 94.7307 46.034L94.9827 46.79C94.8334 46.874 94.6421 46.9487 94.4087 47.014C94.1847 47.0887 93.9514 47.126 93.7087 47.126C93.4661 47.126 93.2467 47.0607 93.0507 46.93C92.8547 46.79 92.7334 46.538 92.6867 46.174C92.4161 46.4633 92.0987 46.7013 91.7347 46.888C91.3707 47.0653 90.9881 47.154 90.5867 47.154C90.0361 47.154 89.5787 46.9907 89.2147 46.664C88.8507 46.3373 88.6687 45.8893 88.6687 45.32C88.6687 44.788 88.7947 44.3633 89.0467 44.046C89.3081 43.7287 89.6441 43.4907 90.0547 43.332C90.4654 43.1733 90.8994 43.066 91.3567 43.01C91.8234 42.954 92.2574 42.926 92.6587 42.926V42.184C92.6587 41.9227 92.6261 41.6893 92.5607 41.484C92.4954 41.2693 92.3787 41.1013 92.2107 40.98C92.0427 40.8493 91.8047 40.784 91.4967 40.784C91.1421 40.784 90.8014 40.854 90.4747 40.994C90.1481 41.134 89.8214 41.3393 89.4947 41.61L88.9207 40.784C89.3034 40.476 89.7234 40.2473 90.1807 40.098C90.6381 39.9487 91.1094 39.874 91.5947 39.874ZM92.6587 43.836C92.4067 43.836 92.1221 43.85 91.8047 43.878C91.4874 43.8967 91.1794 43.9527 90.8807 44.046C90.5821 44.13 90.3347 44.27 90.1387 44.466C89.9521 44.662 89.8587 44.9327 89.8587 45.278C89.8587 45.586 89.9614 45.8147 90.1667 45.964C90.3814 46.104 90.6474 46.174 90.9647 46.174C91.3007 46.174 91.5947 46.0807 91.8467 45.894C92.0987 45.7073 92.2947 45.4693 92.4347 45.18C92.5841 44.8907 92.6587 44.592 92.6587 44.284V43.836ZM96.9027 39.93C96.968 40.0887 97.024 40.252 97.0707 40.42C97.1174 40.588 97.15 40.756 97.1687 40.924C97.4487 40.644 97.78 40.4013 98.1627 40.196C98.5454 39.9813 98.9374 39.874 99.3387 39.874C99.852 39.874 100.263 39.9813 100.571 40.196C100.888 40.4107 101.117 40.7047 101.257 41.078C101.397 41.442 101.467 41.8667 101.467 42.352V47H100.319V42.73C100.319 42.4407 100.295 42.156 100.249 41.876C100.211 41.596 100.109 41.3673 99.9407 41.19C99.782 41.0033 99.516 40.91 99.1427 40.91C98.9187 40.91 98.69 40.9567 98.4567 41.05C98.2234 41.134 98.004 41.246 97.7987 41.386C97.5934 41.526 97.4067 41.6753 97.2387 41.834V47H96.0907V42.072C96.0907 41.8853 96.0767 41.6707 96.0487 41.428C96.0207 41.176 95.974 40.9333 95.9087 40.7C95.8434 40.4573 95.75 40.2567 95.6287 40.098L96.9027 39.93ZM104.923 36.332V40.868C105.222 40.588 105.544 40.35 105.889 40.154C106.234 39.958 106.617 39.86 107.037 39.86C107.55 39.86 107.961 39.9673 108.269 40.182C108.577 40.3967 108.801 40.6907 108.941 41.064C109.081 41.428 109.151 41.8527 109.151 42.338V47H108.003V42.716C108.003 42.4267 107.98 42.1467 107.933 41.876C107.896 41.596 107.798 41.3627 107.639 41.176C107.48 40.9893 107.214 40.896 106.841 40.896C106.608 40.896 106.374 40.9427 106.141 41.036C105.917 41.1293 105.702 41.246 105.497 41.386C105.292 41.526 105.1 41.6707 104.923 41.82V47H103.775V37.158L103.593 36.332H104.923ZM113.993 47.182C113.312 47.182 112.738 47.014 112.271 46.678C111.814 46.3327 111.469 45.8847 111.235 45.334C111.011 44.7833 110.899 44.1953 110.899 43.57C110.899 43.1033 110.969 42.6507 111.109 42.212C111.249 41.764 111.455 41.3673 111.725 41.022C111.996 40.6673 112.327 40.3873 112.719 40.182C113.121 39.9767 113.573 39.874 114.077 39.874C114.768 39.874 115.342 40.042 115.799 40.378C116.266 40.714 116.611 41.1573 116.835 41.708C117.069 42.2587 117.185 42.8513 117.185 43.486C117.185 43.962 117.115 44.424 116.975 44.872C116.835 45.3107 116.63 45.7027 116.359 46.048C116.098 46.3933 115.767 46.6687 115.365 46.874C114.973 47.0793 114.516 47.182 113.993 47.182ZM114.007 46.3C114.371 46.3 114.675 46.216 114.917 46.048C115.169 45.8707 115.37 45.642 115.519 45.362C115.678 45.082 115.79 44.7833 115.855 44.466C115.921 44.1393 115.953 43.8267 115.953 43.528C115.953 43.22 115.921 42.9073 115.855 42.59C115.799 42.2633 115.701 41.9647 115.561 41.694C115.421 41.414 115.225 41.19 114.973 41.022C114.731 40.8447 114.427 40.756 114.063 40.756C113.699 40.756 113.391 40.8447 113.139 41.022C112.897 41.19 112.701 41.414 112.551 41.694C112.402 41.974 112.295 42.2773 112.229 42.604C112.164 42.9213 112.131 43.2293 112.131 43.528C112.131 43.8173 112.164 44.1253 112.229 44.452C112.295 44.7693 112.397 45.068 112.537 45.348C112.687 45.628 112.883 45.8567 113.125 46.034C113.368 46.2113 113.662 46.3 114.007 46.3ZM126.419 36.668C126.783 36.668 127.171 36.71 127.581 36.794C128.001 36.8687 128.403 36.9947 128.785 37.172C129.177 37.34 129.504 37.5593 129.765 37.83L129.023 38.698C128.734 38.4647 128.463 38.2733 128.211 38.124C127.959 37.9747 127.693 37.8627 127.413 37.788C127.143 37.7133 126.811 37.676 126.419 37.676C125.803 37.676 125.281 37.7927 124.851 38.026C124.431 38.2593 124.086 38.5767 123.815 38.978C123.554 39.3793 123.363 39.832 123.241 40.336C123.12 40.84 123.059 41.3627 123.059 41.904C123.059 42.4173 123.115 42.926 123.227 43.43C123.339 43.9247 123.521 44.3773 123.773 44.788C124.025 45.1987 124.357 45.5253 124.767 45.768C125.178 46.0107 125.682 46.132 126.279 46.132C126.774 46.132 127.199 46.0247 127.553 45.81C127.917 45.586 128.197 45.2873 128.393 44.914C128.599 44.5313 128.701 44.102 128.701 43.626V42.702H126.195L126.363 41.75H130.017V44.676C130.017 45.0587 130.031 45.446 130.059 45.838C130.097 46.23 130.125 46.6173 130.143 47H129.443L128.995 45.936C128.585 46.3747 128.141 46.692 127.665 46.888C127.199 47.0747 126.662 47.168 126.055 47.168C125.318 47.168 124.674 47.0327 124.123 46.762C123.582 46.482 123.129 46.104 122.765 45.628C122.401 45.1427 122.131 44.592 121.953 43.976C121.776 43.36 121.687 42.7113 121.687 42.03C121.687 41.2833 121.785 40.588 121.981 39.944C122.177 39.2907 122.471 38.7213 122.863 38.236C123.255 37.7413 123.745 37.3587 124.333 37.088C124.931 36.808 125.626 36.668 126.419 36.668ZM132.874 39.916C133.042 40.3267 133.149 40.7607 133.196 41.218C133.438 40.8353 133.765 40.5227 134.176 40.28C134.586 40.0373 135.02 39.916 135.478 39.916L135.198 41.148C134.75 41.148 134.367 41.2647 134.05 41.498C133.742 41.7313 133.466 42.0253 133.224 42.38V47H132.062V41.96C132.062 41.7733 132.048 41.5633 132.02 41.33C131.992 41.0967 131.945 40.868 131.88 40.644C131.814 40.42 131.726 40.2287 131.614 40.07L132.874 39.916ZM139.146 39.874C139.883 39.874 140.438 40.0747 140.812 40.476C141.185 40.8773 141.372 41.442 141.372 42.17V45.656C141.372 45.852 141.409 45.9873 141.484 46.062C141.558 46.1273 141.647 46.16 141.75 46.16C141.834 46.16 141.922 46.1507 142.016 46.132C142.109 46.104 142.198 46.0713 142.282 46.034L142.534 46.79C142.384 46.874 142.193 46.9487 141.96 47.014C141.736 47.0887 141.502 47.126 141.26 47.126C141.017 47.126 140.798 47.0607 140.602 46.93C140.406 46.79 140.284 46.538 140.238 46.174C139.967 46.4633 139.65 46.7013 139.286 46.888C138.922 47.0653 138.539 47.154 138.138 47.154C137.587 47.154 137.13 46.9907 136.766 46.664C136.402 46.3373 136.22 45.8893 136.22 45.32C136.22 44.788 136.346 44.3633 136.598 44.046C136.859 43.7287 137.195 43.4907 137.606 43.332C138.016 43.1733 138.45 43.066 138.908 43.01C139.374 42.954 139.808 42.926 140.21 42.926V42.184C140.21 41.9227 140.177 41.6893 140.112 41.484C140.046 41.2693 139.93 41.1013 139.762 40.98C139.594 40.8493 139.356 40.784 139.048 40.784C138.693 40.784 138.352 40.854 138.026 40.994C137.699 41.134 137.372 41.3393 137.046 41.61L136.472 40.784C136.854 40.476 137.274 40.2473 137.732 40.098C138.189 39.9487 138.66 39.874 139.146 39.874ZM140.21 43.836C139.958 43.836 139.673 43.85 139.356 43.878C139.038 43.8967 138.73 43.9527 138.432 44.046C138.133 44.13 137.886 44.27 137.69 44.466C137.503 44.662 137.41 44.9327 137.41 45.278C137.41 45.586 137.512 45.8147 137.718 45.964C137.932 46.104 138.198 46.174 138.516 46.174C138.852 46.174 139.146 46.0807 139.398 45.894C139.65 45.7073 139.846 45.4693 139.986 45.18C140.135 44.8907 140.21 44.592 140.21 44.284V43.836ZM144.453 39.93C144.519 40.0887 144.575 40.252 144.621 40.42C144.668 40.588 144.701 40.756 144.719 40.924C144.999 40.644 145.331 40.4013 145.713 40.196C146.096 39.9813 146.488 39.874 146.889 39.874C147.403 39.874 147.813 39.9813 148.121 40.196C148.439 40.4107 148.667 40.7047 148.807 41.078C148.947 41.442 149.017 41.8667 149.017 42.352V47H147.869V42.73C147.869 42.4407 147.846 42.156 147.799 41.876C147.762 41.596 147.659 41.3673 147.491 41.19C147.333 41.0033 147.067 40.91 146.693 40.91C146.469 40.91 146.241 40.9567 146.007 41.05C145.774 41.134 145.555 41.246 145.349 41.386C145.144 41.526 144.957 41.6753 144.789 41.834V47H143.641V42.072C143.641 41.8853 143.627 41.6707 143.599 41.428C143.571 41.176 143.525 40.9333 143.459 40.7C143.394 40.4573 143.301 40.2567 143.179 40.098L144.453 39.93ZM153.916 39.888C154.233 39.888 154.55 39.9393 154.868 40.042C155.185 40.1447 155.46 40.3033 155.694 40.518C155.684 40.3873 155.675 40.2613 155.666 40.14C155.666 40.0093 155.666 39.8833 155.666 39.762V37.158L155.47 36.332H156.814V44.998C156.814 45.194 156.828 45.4133 156.856 45.656C156.884 45.8987 156.93 46.1367 156.996 46.37C157.061 46.594 157.145 46.7947 157.248 46.972L156.016 47.126C155.95 46.9673 155.894 46.8087 155.848 46.65C155.801 46.4913 155.768 46.3327 155.75 46.174C155.507 46.4913 155.204 46.7387 154.84 46.916C154.476 47.0933 154.093 47.182 153.692 47.182C153.206 47.182 152.782 47.0793 152.418 46.874C152.054 46.6687 151.75 46.3933 151.508 46.048C151.274 45.6933 151.097 45.306 150.976 44.886C150.864 44.4567 150.808 44.0227 150.808 43.584C150.808 43.108 150.868 42.6507 150.99 42.212C151.12 41.764 151.312 41.3673 151.564 41.022C151.825 40.6767 152.152 40.4013 152.544 40.196C152.936 39.9907 153.393 39.888 153.916 39.888ZM153.944 40.84C153.58 40.84 153.272 40.9193 153.02 41.078C152.777 41.2367 152.581 41.4467 152.432 41.708C152.292 41.9693 152.189 42.2587 152.124 42.576C152.068 42.884 152.04 43.192 152.04 43.5C152.04 43.8173 152.072 44.1347 152.138 44.452C152.212 44.76 152.324 45.0447 152.474 45.306C152.632 45.5673 152.838 45.7773 153.09 45.936C153.351 46.0853 153.668 46.16 154.042 46.16C154.368 46.16 154.667 46.0667 154.938 45.88C155.218 45.684 155.46 45.4693 155.666 45.236V42.884C155.666 42.5107 155.605 42.17 155.484 41.862C155.372 41.554 155.19 41.3067 154.938 41.12C154.686 40.9333 154.354 40.84 153.944 40.84ZM161.764 39.874C162.324 39.874 162.796 39.9907 163.178 40.224C163.561 40.448 163.846 40.7653 164.032 41.176C164.228 41.5773 164.326 42.0487 164.326 42.59C164.326 42.7207 164.317 42.856 164.298 42.996C164.289 43.1267 164.275 43.2667 164.256 43.416H159.832C159.832 44.3027 160.028 44.9887 160.42 45.474C160.812 45.9593 161.335 46.202 161.988 46.202C162.259 46.202 162.539 46.16 162.828 46.076C163.127 45.992 163.435 45.866 163.752 45.698L164.186 46.398C163.86 46.6593 163.491 46.8553 163.08 46.986C162.67 47.1167 162.254 47.182 161.834 47.182C161.284 47.182 160.803 47.084 160.392 46.888C159.991 46.6827 159.655 46.412 159.384 46.076C159.123 45.7307 158.927 45.3433 158.796 44.914C158.666 44.4847 158.6 44.046 158.6 43.598C158.6 43.1313 158.666 42.6787 158.796 42.24C158.927 41.8013 159.123 41.4047 159.384 41.05C159.655 40.686 159.986 40.4013 160.378 40.196C160.77 39.9813 161.232 39.874 161.764 39.874ZM161.652 40.756C161.335 40.756 161.055 40.8447 160.812 41.022C160.57 41.1993 160.374 41.428 160.224 41.708C160.075 41.9787 159.972 42.2587 159.916 42.548H163.108C163.118 42.156 163.062 41.8293 162.94 41.568C162.828 41.2973 162.66 41.0967 162.436 40.966C162.222 40.826 161.96 40.756 161.652 40.756ZM169.123 36.808H172.175C172.847 36.808 173.44 36.9153 173.953 37.13C174.476 37.3353 174.882 37.662 175.171 38.11C175.46 38.558 175.605 39.1507 175.605 39.888C175.605 40.5693 175.451 41.1387 175.143 41.596C174.835 42.0533 174.424 42.3987 173.911 42.632C173.398 42.856 172.824 42.968 172.189 42.968H170.635V47H169.333V37.732L169.123 36.808ZM170.635 37.774V42.016H172.161C172.805 42.016 173.314 41.82 173.687 41.428C174.06 41.036 174.247 40.5227 174.247 39.888C174.247 39.2253 174.07 38.7073 173.715 38.334C173.36 37.9607 172.847 37.774 172.175 37.774H170.635ZM179.386 47.182C178.704 47.182 178.13 47.014 177.664 46.678C177.206 46.3327 176.861 45.8847 176.628 45.334C176.404 44.7833 176.292 44.1953 176.292 43.57C176.292 43.1033 176.362 42.6507 176.502 42.212C176.642 41.764 176.847 41.3673 177.118 41.022C177.388 40.6673 177.72 40.3873 178.112 40.182C178.513 39.9767 178.966 39.874 179.47 39.874C180.16 39.874 180.734 40.042 181.192 40.378C181.658 40.714 182.004 41.1573 182.228 41.708C182.461 42.2587 182.578 42.8513 182.578 43.486C182.578 43.962 182.508 44.424 182.368 44.872C182.228 45.3107 182.022 45.7027 181.752 46.048C181.49 46.3933 181.159 46.6687 180.758 46.874C180.366 47.0793 179.908 47.182 179.386 47.182ZM179.4 46.3C179.764 46.3 180.067 46.216 180.31 46.048C180.562 45.8707 180.762 45.642 180.912 45.362C181.07 45.082 181.182 44.7833 181.248 44.466C181.313 44.1393 181.346 43.8267 181.346 43.528C181.346 43.22 181.313 42.9073 181.248 42.59C181.192 42.2633 181.094 41.9647 180.954 41.694C180.814 41.414 180.618 41.19 180.366 41.022C180.123 40.8447 179.82 40.756 179.456 40.756C179.092 40.756 178.784 40.8447 178.532 41.022C178.289 41.19 178.093 41.414 177.944 41.694C177.794 41.974 177.687 42.2773 177.622 42.604C177.556 42.9213 177.524 43.2293 177.524 43.528C177.524 43.8173 177.556 44.1253 177.622 44.452C177.687 44.7693 177.79 45.068 177.93 45.348C178.079 45.628 178.275 45.8567 178.518 46.034C178.76 46.2113 179.054 46.3 179.4 46.3ZM185.046 39.916C185.214 40.3267 185.321 40.7607 185.368 41.218C185.61 40.8353 185.937 40.5227 186.348 40.28C186.758 40.0373 187.192 39.916 187.65 39.916L187.37 41.148C186.922 41.148 186.539 41.2647 186.222 41.498C185.914 41.7313 185.638 42.0253 185.396 42.38V47H184.234V41.96C184.234 41.7733 184.22 41.5633 184.192 41.33C184.164 41.0967 184.117 40.868 184.052 40.644C183.986 40.42 183.898 40.2287 183.786 40.07L185.046 39.916ZM191.012 38.054C190.947 38.3713 190.886 38.7027 190.83 39.048C190.783 39.384 190.751 39.7153 190.732 40.042H192.552L192.314 40.924H190.732V45.376C190.732 45.5533 190.751 45.712 190.788 45.852C190.835 45.9827 190.909 46.0853 191.012 46.16C191.124 46.2253 191.278 46.258 191.474 46.258C191.623 46.258 191.773 46.244 191.922 46.216C192.071 46.188 192.216 46.1553 192.356 46.118L192.552 46.902C192.319 46.9673 192.095 47.0233 191.88 47.07C191.675 47.126 191.437 47.154 191.166 47.154C190.569 47.154 190.153 46.9953 189.92 46.678C189.687 46.3607 189.57 45.9173 189.57 45.348V40.924H188.534V40.224C188.814 40.2147 189.047 40.14 189.234 40C189.421 39.86 189.575 39.6827 189.696 39.468C189.817 39.244 189.915 39.0107 189.99 38.768C190.065 38.516 190.121 38.278 190.158 38.054H191.012ZM196.409 39.874C196.969 39.874 197.44 39.9907 197.823 40.224C198.206 40.448 198.49 40.7653 198.677 41.176C198.873 41.5773 198.971 42.0487 198.971 42.59C198.971 42.7207 198.962 42.856 198.943 42.996C198.934 43.1267 198.92 43.2667 198.901 43.416H194.477C194.477 44.3027 194.673 44.9887 195.065 45.474C195.457 45.9593 195.98 46.202 196.633 46.202C196.904 46.202 197.184 46.16 197.473 46.076C197.772 45.992 198.08 45.866 198.397 45.698L198.831 46.398C198.504 46.6593 198.136 46.8553 197.725 46.986C197.314 47.1167 196.899 47.182 196.479 47.182C195.928 47.182 195.448 47.084 195.037 46.888C194.636 46.6827 194.3 46.412 194.029 46.076C193.768 45.7307 193.572 45.3433 193.441 44.914C193.31 44.4847 193.245 44.046 193.245 43.598C193.245 43.1313 193.31 42.6787 193.441 42.24C193.572 41.8013 193.768 41.4047 194.029 41.05C194.3 40.686 194.631 40.4013 195.023 40.196C195.415 39.9813 195.877 39.874 196.409 39.874ZM196.297 40.756C195.98 40.756 195.7 40.8447 195.457 41.022C195.214 41.1993 195.018 41.428 194.869 41.708C194.72 41.9787 194.617 42.2587 194.561 42.548H197.753C197.762 42.156 197.706 41.8293 197.585 41.568C197.473 41.2973 197.305 41.0967 197.081 40.966C196.866 40.826 196.605 40.756 196.297 40.756Z" fill="black"/>
</svg>
