<?xml version="1.0"?>
<svg width="311" height="97" xmlns="http://www.w3.org/2000/svg" xmlns:svg="http://www.w3.org/2000/svg">
 <g class="layer">
  <title>Layer 1</title>
  <line id="svg_27" stroke="black" x1="5.45" x2="238.45" y1="19.8" y2="16.76"/>
  <line id="svg_26" stroke="black" x1="0.45" x2="238.45" y1="95.8" y2="94.8"/>
  <path d="m41.96,-0.7l2.58,6.22l8.36,0l-6.76,3.84l2.58,6.22l-6.76,-3.84l-6.76,3.84l2.58,-6.22l-6.76,-3.84l8.36,0l2.58,-6.22z" fill="#F7A43C" id="svg_25"/>
  <path d="m64.96,-0.7l2.58,6.22l8.36,0l-6.76,3.84l2.58,6.22l-6.76,-3.84l-6.76,3.84l2.58,-6.22l-6.76,-3.84l8.36,0l2.58,-6.22z" fill="#F7A43C" id="svg_24"/>
  <path d="m87.96,-0.7l2.58,6.22l8.36,0l-6.76,3.84l2.58,6.22l-6.76,-3.84l-6.76,3.84l2.58,-6.22l-6.76,-3.84l8.36,0l2.58,-6.22z" fill="#F7A43C" id="svg_23"/>
  <path d="m133.96,-0.7l2.58,6.22l8.36,0l-6.76,3.84l2.58,6.22l-6.76,-3.84l-6.76,3.84l2.58,-6.22l-6.76,-3.84l8.36,0l2.58,-6.22z" fill="#F7A43C" id="svg_22"/>
  <path d="m110.96,-0.7l2.58,6.22l8.36,0l-6.76,3.84l2.58,6.22l-6.76,-3.84l-6.76,3.84l2.58,-6.22l-6.76,-3.84l8.36,0l2.58,-6.22z" fill="#F7A43C" id="svg_21"/>
  <path d="m12.53,4.87l-3.17,0l0,2.73c0.54,-0.43 1.17,-0.65 1.91,-0.65c0.64,0 1.12,0.19 1.44,0.58c0.33,0.37 0.49,0.97 0.49,1.8l0,0.51c0,1.75 -0.91,2.63 -2.73,2.63c-0.33,0 -0.69,-0.03 -1.08,-0.1c-0.39,-0.06 -0.73,-0.13 -1.03,-0.21l0,-0.97c0.27,0.06 0.63,0.12 1.07,0.19c0.45,0.05 0.79,0.08 1.01,0.08c0.52,0 0.9,-0.14 1.16,-0.41c0.28,-0.28 0.41,-0.68 0.41,-1.21l0,-0.55c0,-0.9 -0.34,-1.34 -1.04,-1.34c-0.37,0 -0.7,0.07 -0.99,0.21c-0.28,0.14 -0.56,0.37 -0.85,0.7l-0.91,0l0,-5.02l4.31,0l0,1.03zm2.58,5.89c0.54,0 0.8,0.22 0.8,0.66l0,0.4c0,0.21 -0.07,0.37 -0.21,0.48c-0.13,0.11 -0.33,0.17 -0.59,0.17c-0.25,0 -0.44,-0.06 -0.58,-0.17c-0.14,-0.11 -0.2,-0.27 -0.2,-0.48l0,-0.4c0,-0.22 0.06,-0.38 0.2,-0.49c0.14,-0.11 0.33,-0.17 0.58,-0.17zm4.79,-7.04c0.84,0 1.48,0.24 1.92,0.73c0.45,0.47 0.67,1.19 0.67,2.14l0,3.01c0,0.95 -0.22,1.67 -0.67,2.15c-0.44,0.48 -1.08,0.72 -1.92,0.72c-0.84,0 -1.48,-0.24 -1.93,-0.72c-0.44,-0.48 -0.66,-1.2 -0.66,-2.15l0,-3.01c0,-0.95 0.22,-1.67 0.66,-2.14c0.45,-0.49 1.09,-0.73 1.93,-0.73zm0,1.01c-0.93,0 -1.4,0.58 -1.4,1.75l0,3.23c0,1.17 0.47,1.75 1.4,1.75c0.94,0 1.4,-0.58 1.4,-1.75l0,-3.23c0,-1.17 -0.46,-1.75 -1.4,-1.75z" fill="#D81111" id="svg_20"/>
  <line id="svg_19" stroke="#D81111" x1="6.46" x2="24.46" y1="14.8" y2="14.8"/>
  <path d="m26.34,75.3l-3.21,-5.23l-3.37,0l0,5.23l-2.87,0l0,-13.76l6.87,0c1.64,0 2.9,0.35 3.78,1.06c0.9,0.71 1.35,1.72 1.35,3.04c0,0.96 -0.27,1.8 -0.82,2.5c-0.55,0.69 -1.28,1.15 -2.22,1.38l3.71,5.78l-3.22,0zm-0.34,-9.54c0,-1.32 -0.85,-1.98 -2.56,-1.98l-3.68,0l0,4.05l3.78,0c0.8,0 1.41,-0.18 1.83,-0.53c0.42,-0.37 0.63,-0.88 0.63,-1.54zm14.82,5.52c0,1.17 -0.41,2.08 -1.21,2.74c-0.79,0.65 -1.95,1 -3.49,1.06l0,1.71l-1.06,0l0,-1.68c-1.4,-0.05 -2.49,-0.38 -3.28,-0.99c-0.79,-0.61 -1.3,-1.54 -1.54,-2.8l2.5,-0.45c0.13,0.74 0.37,1.27 0.73,1.61c0.37,0.34 0.9,0.54 1.59,0.6l0,-3.8c-0.02,-0.02 -0.07,-0.04 -0.15,-0.05c-0.08,-0.02 -0.13,-0.03 -0.17,-0.03c-1.06,-0.24 -1.85,-0.52 -2.38,-0.84c-0.53,-0.34 -0.95,-0.75 -1.25,-1.25c-0.29,-0.52 -0.44,-1.14 -0.44,-1.86c0,-1.07 0.37,-1.91 1.11,-2.5c0.76,-0.6 1.85,-0.93 3.28,-0.99l0,-1.3l1.06,0l0,1.3c0.85,0.03 1.56,0.17 2.12,0.41c0.58,0.24 1.03,0.59 1.37,1.06c0.36,0.45 0.65,1.1 0.87,1.95l-2.58,0.39c-0.1,-0.57 -0.29,-1 -0.58,-1.31c-0.29,-0.32 -0.69,-0.51 -1.2,-0.57l0,3.42l0.09,0.02c0.2,0 0.78,0.16 1.74,0.48c0.96,0.31 1.68,0.77 2.14,1.38c0.49,0.61 0.73,1.37 0.73,2.29zm-5.76,-7.64c-1.21,0.09 -1.82,0.62 -1.83,1.56c0,0.29 0.04,0.53 0.14,0.73c0.11,0.17 0.27,0.33 0.46,0.45c0.19,0.13 0.6,0.3 1.23,0.51l0,-3.25zm3.2,7.68c0,-0.32 -0.05,-0.58 -0.17,-0.79c-0.11,-0.21 -0.28,-0.38 -0.5,-0.51c-0.23,-0.13 -0.72,-0.3 -1.47,-0.53l0,3.59c1.43,-0.09 2.14,-0.68 2.14,-1.76zm18.63,0.1c0,1.29 -0.43,2.29 -1.28,3.01c-0.85,0.71 -2.07,1.06 -3.66,1.06c-1.58,0 -2.8,-0.35 -3.67,-1.06c-0.85,-0.7 -1.27,-1.7 -1.27,-2.99c0,-0.88 0.25,-1.62 0.77,-2.21c0.51,-0.61 1.19,-0.99 2.05,-1.13l0,-0.03c-0.74,-0.16 -1.35,-0.53 -1.81,-1.11c-0.45,-0.58 -0.68,-1.23 -0.68,-1.97c0,-1.13 0.4,-2.02 1.18,-2.68c0.81,-0.66 1.94,-0.99 3.4,-0.99c1.5,0 2.64,0.33 3.42,0.97c0.81,0.62 1.21,1.52 1.21,2.7c0,0.75 -0.23,1.42 -0.68,2c-0.45,0.56 -1.06,0.91 -1.83,1.06l0,0.05c0.89,0.14 1.58,0.5 2.08,1.08c0.51,0.58 0.77,1.32 0.77,2.24zm-3.16,-6.26c0,-0.66 -0.15,-1.15 -0.46,-1.45c-0.3,-0.31 -0.75,-0.46 -1.35,-0.46c-1.19,0 -1.78,0.64 -1.78,1.91c0,1.31 0.6,1.96 1.81,1.95c0.59,0 1.03,-0.15 1.32,-0.44c0.31,-0.3 0.46,-0.81 0.46,-1.51zm0.31,6.04c0,-1.44 -0.71,-2.17 -2.14,-2.17c-0.66,0 -1.17,0.2 -1.54,0.58c-0.36,0.37 -0.53,0.91 -0.53,1.62c0,0.8 0.17,1.4 0.53,1.78c0.35,0.37 0.89,0.56 1.61,0.56c0.71,0 1.23,-0.19 1.57,-0.56c0.33,-0.37 0.5,-0.97 0.5,-1.81zm13.84,-3.01c0,2.44 -0.45,4.27 -1.35,5.5c-0.88,1.2 -2.14,1.8 -3.78,1.8c-1.21,0 -2.16,-0.25 -2.85,-0.77c-0.69,-0.51 -1.18,-1.33 -1.47,-2.46l2.58,-0.36c0.26,0.97 0.85,1.45 1.76,1.45c0.77,0 1.36,-0.37 1.76,-1.11c0.42,-0.74 0.63,-1.83 0.65,-3.28c-0.24,0.48 -0.65,0.87 -1.23,1.16c-0.56,0.27 -1.16,0.41 -1.81,0.41c-1.2,0 -2.17,-0.41 -2.89,-1.23c-0.7,-0.84 -1.06,-1.95 -1.06,-3.35c0,-1.45 0.42,-2.58 1.26,-3.4c0.83,-0.82 2.01,-1.23 3.54,-1.23c1.65,0 2.88,0.57 3.68,1.71c0.81,1.15 1.21,2.86 1.21,5.16zm-2.92,-1.9c0,-0.85 -0.18,-1.53 -0.55,-2.03c-0.37,-0.51 -0.87,-0.77 -1.49,-0.77c-0.62,0 -1.1,0.22 -1.45,0.65c-0.34,0.44 -0.51,1.05 -0.51,1.83c0,0.76 0.17,1.37 0.51,1.84c0.35,0.45 0.84,0.67 1.47,0.67c0.58,0 1.06,-0.19 1.45,-0.58c0.38,-0.4 0.57,-0.94 0.57,-1.61zm7.86,8.36c0,0.79 -0.08,1.48 -0.26,2.07c-0.16,0.6 -0.43,1.15 -0.8,1.66l-1.8,0c0.38,-0.46 0.69,-0.97 0.94,-1.51c0.24,-0.55 0.36,-1.07 0.36,-1.57l-1.26,0l0,-2.99l2.82,0l0,2.34zm11.65,-6.24c0,2.33 -0.41,4.09 -1.21,5.3c-0.8,1.19 -2,1.78 -3.59,1.78c-3.15,0 -4.72,-2.36 -4.72,-7.08c0,-1.66 0.17,-3 0.51,-4.03c0.35,-1.04 0.87,-1.81 1.56,-2.31c0.69,-0.5 1.6,-0.75 2.72,-0.75c1.63,0 2.81,0.6 3.57,1.79c0.77,1.17 1.16,2.94 1.16,5.3zm-2.77,0c0,-1.27 -0.07,-2.25 -0.2,-2.94c-0.11,-0.71 -0.3,-1.21 -0.58,-1.52c-0.27,-0.3 -0.67,-0.46 -1.2,-0.46c-0.55,0 -0.96,0.16 -1.25,0.46c-0.28,0.31 -0.48,0.81 -0.61,1.52c-0.11,0.69 -0.16,1.67 -0.16,2.94c0,1.25 0.06,2.23 0.19,2.94c0.13,0.7 0.33,1.22 0.6,1.54c0.27,0.31 0.68,0.46 1.21,0.46c0.51,0 0.9,-0.16 1.18,-0.48c0.29,-0.34 0.49,-0.86 0.62,-1.57c0.13,-0.71 0.2,-1.67 0.2,-2.89zm13.88,0c0,2.33 -0.4,4.09 -1.21,5.3c-0.8,1.19 -2,1.78 -3.59,1.78c-3.14,0 -4.72,-2.36 -4.72,-7.08c0,-1.66 0.17,-3 0.51,-4.03c0.35,-1.04 0.87,-1.81 1.56,-2.31c0.7,-0.5 1.6,-0.75 2.73,-0.75c1.62,0 2.81,0.6 3.56,1.79c0.77,1.17 1.16,2.94 1.16,5.3zm-2.77,0c0,-1.27 -0.07,-2.25 -0.19,-2.94c-0.12,-0.71 -0.31,-1.21 -0.58,-1.52c-0.27,-0.3 -0.68,-0.46 -1.21,-0.46c-0.54,0 -0.96,0.16 -1.25,0.46c-0.27,0.31 -0.47,0.81 -0.6,1.52c-0.11,0.69 -0.17,1.67 -0.17,2.94c0,1.25 0.06,2.23 0.19,2.94c0.13,0.7 0.33,1.22 0.6,1.54c0.28,0.31 0.68,0.46 1.21,0.46c0.51,0 0.91,-0.16 1.18,-0.48c0.29,-0.34 0.5,-0.86 0.63,-1.57c0.12,-0.71 0.19,-1.67 0.19,-2.89z" fill="#D81111" id="svg_18"/>
  <path d="m10.3,38.47c0,0.35 -0.07,0.69 -0.21,1.01c-0.13,0.32 -0.33,0.59 -0.59,0.83c-0.25,0.22 -0.56,0.37 -0.92,0.43c0.47,0.07 0.86,0.23 1.18,0.49c0.32,0.25 0.57,0.57 0.74,0.95c0.17,0.39 0.26,0.81 0.26,1.26c0,0.61 -0.11,1.11 -0.33,1.49c-0.23,0.37 -0.53,0.66 -0.91,0.87c-0.39,0.19 -0.81,0.33 -1.29,0.4c-0.48,0.07 -0.96,0.1 -1.46,0.1l-2.77,0l0,-9.27c0,-0.01 -0.02,-0.08 -0.05,-0.22c-0.03,-0.14 -0.06,-0.29 -0.09,-0.44c-0.03,-0.15 -0.05,-0.23 -0.05,-0.26l3.4,0c0.4,0 0.78,0.04 1.15,0.11c0.37,0.07 0.7,0.19 0.99,0.36c0.3,0.18 0.53,0.42 0.7,0.73c0.17,0.3 0.25,0.69 0.25,1.16zm-1.36,0.03c0,-0.37 -0.08,-0.66 -0.25,-0.87c-0.16,-0.2 -0.37,-0.35 -0.64,-0.43c-0.27,-0.08 -0.57,-0.13 -0.88,-0.13l-1.87,0l0,3.25l1.5,0c0.44,0 0.82,-0.05 1.14,-0.17c0.31,-0.11 0.56,-0.29 0.74,-0.56c0.17,-0.27 0.26,-0.63 0.26,-1.09zm0.44,4.73c0,-0.47 -0.13,-0.85 -0.38,-1.13c-0.24,-0.29 -0.56,-0.49 -0.95,-0.62c-0.39,-0.13 -0.78,-0.19 -1.19,-0.19l-1.56,0l0,4.04l1.56,0c0.49,0 0.93,-0.05 1.3,-0.16c0.38,-0.13 0.68,-0.34 0.9,-0.65c0.21,-0.31 0.32,-0.74 0.32,-1.29zm5.57,-4.06c0.74,0 1.3,0.2 1.67,0.61c0.37,0.4 0.56,0.96 0.56,1.69l0,3.49c0,0.19 0.04,0.33 0.11,0.4c0.08,0.07 0.16,0.1 0.27,0.1c0.08,0 0.17,-0.01 0.26,-0.03c0.1,-0.03 0.19,-0.06 0.27,-0.1l0.25,0.76c-0.15,0.08 -0.34,0.16 -0.57,0.22c-0.23,0.08 -0.46,0.12 -0.7,0.12c-0.25,0 -0.46,-0.07 -0.66,-0.2c-0.2,-0.14 -0.32,-0.39 -0.36,-0.76c-0.28,0.29 -0.59,0.53 -0.96,0.72c-0.36,0.18 -0.74,0.26 -1.14,0.26c-0.56,0 -1.01,-0.16 -1.38,-0.49c-0.36,-0.32 -0.54,-0.77 -0.54,-1.34c0,-0.53 0.12,-0.96 0.38,-1.27c0.26,-0.32 0.59,-0.56 1,-0.72c0.41,-0.16 0.85,-0.26 1.31,-0.32c0.46,-0.06 0.9,-0.08 1.3,-0.08l0,-0.75c0,-0.26 -0.04,-0.49 -0.1,-0.7c-0.07,-0.21 -0.18,-0.38 -0.35,-0.5c-0.17,-0.13 -0.41,-0.2 -0.71,-0.2c-0.36,0 -0.7,0.07 -1.03,0.21c-0.32,0.14 -0.65,0.35 -0.98,0.62l-0.57,-0.83c0.38,-0.3 0.8,-0.53 1.26,-0.68c0.46,-0.15 0.93,-0.23 1.41,-0.23zm1.07,3.97c-0.25,0 -0.54,0.01 -0.86,0.04c-0.31,0.02 -0.62,0.07 -0.92,0.17c-0.3,0.08 -0.55,0.22 -0.74,0.42c-0.19,0.19 -0.28,0.46 -0.28,0.81c0,0.31 0.1,0.53 0.31,0.68c0.21,0.14 0.48,0.21 0.79,0.21c0.34,0 0.63,-0.09 0.89,-0.28c0.25,-0.18 0.44,-0.42 0.58,-0.71c0.15,-0.29 0.23,-0.59 0.23,-0.9l0,-0.44zm4.24,-3.91c0.07,0.16 0.12,0.32 0.17,0.49c0.05,0.17 0.08,0.34 0.1,0.5c0.28,-0.28 0.61,-0.52 0.99,-0.72c0.38,-0.22 0.78,-0.33 1.18,-0.33c0.51,0 0.92,0.11 1.23,0.33c0.32,0.21 0.55,0.5 0.69,0.88c0.14,0.36 0.21,0.79 0.21,1.27l0,4.65l-1.15,0l0,-4.27c0,-0.29 -0.03,-0.57 -0.07,-0.85c-0.04,-0.28 -0.14,-0.51 -0.31,-0.69c-0.16,-0.19 -0.43,-0.28 -0.8,-0.28c-0.22,0 -0.45,0.05 -0.68,0.14c-0.24,0.08 -0.46,0.2 -0.66,0.34c-0.21,0.14 -0.39,0.29 -0.56,0.44l0,5.17l-1.15,0l0,-4.93c0,-0.18 -0.01,-0.4 -0.04,-0.64c-0.03,-0.25 -0.08,-0.5 -0.14,-0.73c-0.07,-0.24 -0.16,-0.44 -0.28,-0.6l1.27,-0.17zm8.02,-3.6l0,4.54c0.3,-0.28 0.62,-0.52 0.97,-0.72c0.34,-0.19 0.73,-0.29 1.15,-0.29c0.51,0 0.92,0.11 1.23,0.32c0.3,0.22 0.53,0.51 0.67,0.88c0.14,0.37 0.21,0.79 0.21,1.28l0,4.66l-1.15,0l0,-4.28c0,-0.29 -0.02,-0.57 -0.07,-0.84c-0.04,-0.28 -0.13,-0.52 -0.29,-0.7c-0.16,-0.19 -0.43,-0.28 -0.8,-0.28c-0.23,0 -0.47,0.04 -0.7,0.14c-0.23,0.09 -0.44,0.21 -0.65,0.35c-0.2,0.14 -0.39,0.28 -0.57,0.43l0,5.18l-1.15,0l0,-9.84l-0.18,-0.83l1.33,0zm9.07,10.85c-0.68,0 -1.25,-0.17 -1.72,-0.5c-0.46,-0.35 -0.8,-0.8 -1.04,-1.35c-0.22,-0.55 -0.33,-1.13 -0.33,-1.76c0,-0.47 0.07,-0.92 0.21,-1.36c0.14,-0.45 0.34,-0.84 0.61,-1.19c0.27,-0.35 0.61,-0.63 1,-0.84c0.4,-0.2 0.85,-0.31 1.36,-0.31c0.69,0 1.26,0.17 1.72,0.51c0.46,0.33 0.81,0.78 1.03,1.33c0.24,0.55 0.35,1.14 0.35,1.78c0,0.47 -0.07,0.93 -0.21,1.38c-0.14,0.44 -0.34,0.83 -0.61,1.18c-0.26,0.34 -0.59,0.62 -1,0.82c-0.39,0.21 -0.85,0.31 -1.37,0.31zm0.02,-0.88c0.36,0 0.66,-0.08 0.91,-0.25c0.25,-0.18 0.45,-0.41 0.6,-0.69c0.16,-0.28 0.27,-0.58 0.33,-0.89c0.07,-0.33 0.1,-0.64 0.1,-0.94c0,-0.31 -0.03,-0.62 -0.1,-0.94c-0.05,-0.33 -0.15,-0.63 -0.29,-0.9c-0.14,-0.28 -0.34,-0.5 -0.59,-0.67c-0.24,-0.18 -0.54,-0.26 -0.91,-0.26c-0.36,0 -0.67,0.08 -0.92,0.26c-0.24,0.17 -0.44,0.39 -0.59,0.67c-0.15,0.28 -0.26,0.59 -0.32,0.91c-0.07,0.32 -0.1,0.63 -0.1,0.93c0,0.29 0.03,0.6 0.1,0.92c0.06,0.32 0.17,0.62 0.31,0.9c0.14,0.28 0.34,0.51 0.58,0.68c0.25,0.18 0.54,0.27 0.89,0.27zm8.01,-9.49l3.05,0c0.68,0 1.27,0.11 1.78,0.32c0.52,0.21 0.93,0.53 1.22,0.98c0.29,0.45 0.43,1.04 0.43,1.78c0,0.68 -0.15,1.25 -0.46,1.71c-0.31,0.45 -0.72,0.8 -1.23,1.03c-0.51,0.23 -1.09,0.34 -1.72,0.34l-1.56,0l0,4.03l-1.3,0l0,-9.27l-0.21,-0.92zm1.51,0.96l0,4.25l1.53,0c0.64,0 1.15,-0.2 1.53,-0.59c0.37,-0.39 0.56,-0.91 0.56,-1.54c0,-0.66 -0.18,-1.18 -0.54,-1.56c-0.35,-0.37 -0.86,-0.56 -1.54,-0.56l-1.54,0zm8.82,2.1c0.56,0 1.04,0.12 1.42,0.35c0.38,0.23 0.67,0.55 0.85,0.96c0.2,0.4 0.3,0.87 0.3,1.41c0,0.13 -0.01,0.27 -0.03,0.41c-0.01,0.13 -0.03,0.27 -0.04,0.42l-4.43,0c0,0.88 0.2,1.57 0.59,2.05c0.39,0.49 0.92,0.73 1.57,0.73c0.27,0 0.55,-0.04 0.84,-0.12c0.3,-0.09 0.61,-0.21 0.92,-0.38l0.44,0.7c-0.33,0.26 -0.7,0.46 -1.11,0.59c-0.41,0.13 -0.82,0.19 -1.25,0.19c-0.55,0 -1.03,-0.1 -1.44,-0.29c-0.4,-0.21 -0.74,-0.48 -1,-0.81c-0.27,-0.35 -0.46,-0.74 -0.59,-1.17c-0.13,-0.43 -0.2,-0.86 -0.2,-1.31c0,-0.47 0.07,-0.92 0.2,-1.36c0.13,-0.44 0.32,-0.84 0.59,-1.19c0.26,-0.36 0.6,-0.65 0.99,-0.85c0.39,-0.22 0.85,-0.33 1.38,-0.33zm-0.11,0.89c-0.31,0 -0.59,0.08 -0.84,0.26c-0.24,0.18 -0.44,0.41 -0.58,0.69c-0.16,0.27 -0.26,0.55 -0.31,0.84l3.19,0c0.01,-0.39 -0.05,-0.72 -0.17,-0.98c-0.11,-0.27 -0.28,-0.47 -0.5,-0.6c-0.22,-0.14 -0.48,-0.21 -0.79,-0.21zm6.92,-0.89c0.39,0 0.77,0.08 1.13,0.23c0.37,0.15 0.68,0.38 0.93,0.68l0.25,-0.74l0.7,0c-0.01,0.16 -0.02,0.32 -0.03,0.49c-0.01,0.16 -0.01,0.32 -0.01,0.48l0,8.19c0,0.01 0.01,0.07 0.04,0.19c0.03,0.13 0.06,0.27 0.09,0.4c0.03,0.13 0.05,0.21 0.05,0.23l-1.34,0l0,-2.63c0,-0.11 0,-0.23 0,-0.35c0.01,-0.11 0.01,-0.22 0.01,-0.33c0.01,-0.12 0.02,-0.23 0.03,-0.34c-0.29,0.27 -0.59,0.47 -0.91,0.6c-0.32,0.13 -0.68,0.2 -1.09,0.2c-0.49,0 -0.91,-0.1 -1.28,-0.31c-0.36,-0.21 -0.66,-0.49 -0.91,-0.84c-0.23,-0.35 -0.41,-0.74 -0.53,-1.16c-0.12,-0.43 -0.18,-0.86 -0.18,-1.29c0,-0.48 0.06,-0.93 0.18,-1.37c0.12,-0.44 0.31,-0.83 0.56,-1.18c0.25,-0.35 0.57,-0.63 0.95,-0.84c0.39,-0.2 0.84,-0.31 1.36,-0.31zm0.06,0.89c-0.35,0 -0.64,0.09 -0.88,0.28c-0.25,0.17 -0.44,0.4 -0.58,0.68c-0.14,0.28 -0.24,0.59 -0.31,0.91c-0.06,0.32 -0.1,0.62 -0.1,0.9c0,0.31 0.04,0.61 0.1,0.92c0.08,0.31 0.19,0.59 0.34,0.86c0.16,0.25 0.36,0.45 0.6,0.61c0.25,0.16 0.56,0.24 0.91,0.24c0.3,0 0.6,-0.07 0.91,-0.21c0.31,-0.14 0.56,-0.33 0.76,-0.56l0,-2.53c0,-0.4 -0.06,-0.75 -0.17,-1.07c-0.11,-0.32 -0.3,-0.57 -0.56,-0.75c-0.25,-0.19 -0.59,-0.28 -1.02,-0.28zm6.33,-0.72l0,4.29c0,0.27 0.03,0.55 0.07,0.84c0.05,0.28 0.15,0.51 0.31,0.7c0.17,0.18 0.43,0.28 0.79,0.28c0.34,0 0.65,-0.08 0.93,-0.23c0.29,-0.15 0.53,-0.35 0.7,-0.61c0.18,-0.27 0.27,-0.59 0.27,-0.94l0,-3.5c0,-0.01 -0.01,-0.08 -0.04,-0.2c-0.03,-0.13 -0.06,-0.26 -0.09,-0.39c-0.02,-0.14 -0.04,-0.22 -0.05,-0.24l1.34,0l0,5.6c0,0.18 0.03,0.31 0.09,0.39c0.06,0.09 0.16,0.13 0.29,0.13c0.13,0 0.31,-0.04 0.53,-0.13l0.25,0.76c-0.18,0.1 -0.39,0.18 -0.63,0.24c-0.22,0.06 -0.43,0.1 -0.64,0.1c-0.24,0 -0.46,-0.07 -0.64,-0.21c-0.19,-0.14 -0.31,-0.39 -0.37,-0.75c-0.27,0.28 -0.59,0.52 -0.98,0.72c-0.37,0.19 -0.76,0.29 -1.16,0.29c-0.51,0 -0.93,-0.11 -1.25,-0.32c-0.3,-0.21 -0.53,-0.5 -0.67,-0.87c-0.14,-0.37 -0.21,-0.8 -0.21,-1.29l0,-3.83l-0.18,-0.83l1.34,0zm9.24,-0.17c0.56,0 1.03,0.12 1.41,0.35c0.39,0.23 0.67,0.55 0.86,0.96c0.19,0.4 0.29,0.87 0.29,1.41c0,0.13 -0.01,0.27 -0.03,0.41c0,0.13 -0.02,0.27 -0.04,0.42l-4.42,0c0,0.88 0.19,1.57 0.59,2.05c0.39,0.49 0.91,0.73 1.56,0.73c0.28,0 0.56,-0.04 0.84,-0.12c0.3,-0.09 0.61,-0.21 0.93,-0.38l0.43,0.7c-0.33,0.26 -0.69,0.46 -1.1,0.59c-0.42,0.13 -0.83,0.19 -1.25,0.19c-0.55,0 -1.03,-0.1 -1.44,-0.29c-0.4,-0.21 -0.74,-0.48 -1.01,-0.81c-0.26,-0.35 -0.46,-0.74 -0.59,-1.17c-0.13,-0.43 -0.19,-0.86 -0.19,-1.31c0,-0.47 0.06,-0.92 0.19,-1.36c0.13,-0.44 0.33,-0.84 0.59,-1.19c0.27,-0.36 0.6,-0.65 0.99,-0.85c0.4,-0.22 0.86,-0.33 1.39,-0.33zm-0.11,0.89c-0.32,0 -0.6,0.08 -0.84,0.26c-0.24,0.18 -0.44,0.41 -0.59,0.69c-0.15,0.27 -0.25,0.55 -0.31,0.84l3.19,0c0.01,-0.39 -0.04,-0.72 -0.16,-0.98c-0.12,-0.27 -0.28,-0.47 -0.51,-0.6c-0.21,-0.14 -0.47,-0.21 -0.78,-0.21zm5.18,-0.83c0.06,0.16 0.12,0.32 0.17,0.49c0.04,0.17 0.08,0.34 0.1,0.5c0.28,-0.28 0.61,-0.52 0.99,-0.72c0.38,-0.22 0.77,-0.33 1.18,-0.33c0.51,0 0.92,0.11 1.23,0.33c0.32,0.21 0.54,0.5 0.68,0.88c0.14,0.36 0.21,0.79 0.21,1.27l0,4.65l-1.14,0l0,-4.27c0,-0.29 -0.03,-0.57 -0.07,-0.85c-0.04,-0.28 -0.14,-0.51 -0.31,-0.69c-0.16,-0.19 -0.43,-0.28 -0.8,-0.28c-0.22,0 -0.45,0.05 -0.69,0.14c-0.23,0.08 -0.45,0.2 -0.65,0.34c-0.21,0.14 -0.4,0.29 -0.56,0.44l0,5.17l-1.15,0l0,-4.93c0,-0.18 -0.02,-0.4 -0.04,-0.64c-0.03,-0.25 -0.08,-0.5 -0.14,-0.73c-0.07,-0.24 -0.16,-0.44 -0.28,-0.6l1.27,-0.17zm9.43,7.25c-0.68,0 -1.25,-0.17 -1.72,-0.5c-0.46,-0.35 -0.8,-0.8 -1.03,-1.35c-0.23,-0.55 -0.34,-1.13 -0.34,-1.76c0,-0.47 0.07,-0.92 0.21,-1.36c0.14,-0.45 0.35,-0.84 0.62,-1.19c0.27,-0.35 0.6,-0.63 0.99,-0.84c0.4,-0.2 0.85,-0.31 1.36,-0.31c0.69,0 1.26,0.17 1.72,0.51c0.47,0.33 0.81,0.78 1.04,1.33c0.23,0.55 0.35,1.14 0.35,1.78c0,0.47 -0.07,0.93 -0.21,1.38c-0.14,0.44 -0.35,0.83 -0.62,1.18c-0.26,0.34 -0.59,0.62 -0.99,0.82c-0.4,0.21 -0.85,0.31 -1.38,0.31zm0.02,-0.88c0.36,0 0.67,-0.08 0.91,-0.25c0.25,-0.18 0.45,-0.41 0.6,-0.69c0.16,-0.28 0.27,-0.58 0.34,-0.89c0.06,-0.33 0.09,-0.64 0.09,-0.94c0,-0.31 -0.03,-0.62 -0.09,-0.94c-0.06,-0.33 -0.16,-0.63 -0.3,-0.9c-0.14,-0.28 -0.33,-0.5 -0.59,-0.67c-0.24,-0.18 -0.54,-0.26 -0.91,-0.26c-0.36,0 -0.67,0.08 -0.92,0.26c-0.24,0.17 -0.44,0.39 -0.59,0.67c-0.15,0.28 -0.25,0.59 -0.32,0.91c-0.06,0.32 -0.1,0.63 -0.1,0.93c0,0.29 0.04,0.6 0.1,0.92c0.07,0.32 0.17,0.62 0.31,0.9c0.15,0.28 0.34,0.51 0.59,0.68c0.24,0.18 0.53,0.27 0.88,0.27zm8.01,-9.49l3.06,0c0.67,0 1.26,0.11 1.77,0.32c0.53,0.21 0.93,0.53 1.22,0.98c0.29,0.45 0.44,1.04 0.44,1.78c0,0.68 -0.16,1.25 -0.47,1.71c-0.3,0.45 -0.71,0.8 -1.23,1.03c-0.51,0.23 -1.08,0.34 -1.72,0.34l-1.55,0l0,4.03l-1.31,0l0,-9.27l-0.21,-0.92zm1.52,0.96l0,4.25l1.52,0c0.65,0 1.15,-0.2 1.53,-0.59c0.37,-0.39 0.56,-0.91 0.56,-1.54c0,-0.66 -0.18,-1.18 -0.53,-1.56c-0.36,-0.37 -0.87,-0.56 -1.54,-0.56l-1.54,0zm8.75,9.41c-0.68,0 -1.26,-0.17 -1.73,-0.5c-0.45,-0.35 -0.8,-0.8 -1.03,-1.35c-0.23,-0.55 -0.34,-1.13 -0.34,-1.76c0,-0.47 0.07,-0.92 0.21,-1.36c0.14,-0.45 0.35,-0.84 0.62,-1.19c0.27,-0.35 0.6,-0.63 0.99,-0.84c0.41,-0.2 0.86,-0.31 1.36,-0.31c0.69,0 1.27,0.17 1.72,0.51c0.47,0.33 0.81,0.78 1.04,1.33c0.23,0.55 0.35,1.14 0.35,1.78c0,0.47 -0.07,0.93 -0.21,1.38c-0.14,0.44 -0.35,0.83 -0.62,1.18c-0.26,0.34 -0.59,0.62 -0.99,0.82c-0.39,0.21 -0.85,0.31 -1.37,0.31zm0.01,-0.88c0.37,0 0.67,-0.08 0.91,-0.25c0.25,-0.18 0.45,-0.41 0.6,-0.69c0.16,-0.28 0.27,-0.58 0.34,-0.89c0.06,-0.33 0.1,-0.64 0.1,-0.94c0,-0.31 -0.04,-0.62 -0.1,-0.94c-0.06,-0.33 -0.16,-0.63 -0.29,-0.9c-0.15,-0.28 -0.34,-0.5 -0.59,-0.67c-0.25,-0.18 -0.55,-0.26 -0.91,-0.26c-0.37,0 -0.68,0.08 -0.93,0.26c-0.24,0.17 -0.44,0.39 -0.59,0.67c-0.14,0.28 -0.25,0.59 -0.32,0.91c-0.06,0.32 -0.09,0.63 -0.09,0.93c0,0.29 0.03,0.6 0.09,0.92c0.07,0.32 0.17,0.62 0.31,0.9c0.15,0.28 0.35,0.51 0.59,0.68c0.24,0.18 0.54,0.27 0.88,0.27zm5.65,-6.38c0.16,0.41 0.27,0.84 0.32,1.3c0.24,-0.38 0.57,-0.7 0.98,-0.94c0.41,-0.24 0.84,-0.36 1.3,-0.36l-0.28,1.23c-0.45,0 -0.83,0.11 -1.15,0.35c-0.31,0.23 -0.58,0.53 -0.82,0.88l0,4.62l-1.16,0l0,-5.04c0,-0.19 -0.02,-0.4 -0.05,-0.63c-0.03,-0.23 -0.07,-0.46 -0.14,-0.69c-0.06,-0.22 -0.15,-0.41 -0.26,-0.57l1.26,-0.15zm5.96,-1.87c-0.06,0.32 -0.12,0.65 -0.18,1c-0.05,0.33 -0.08,0.67 -0.1,0.99l1.82,0l-0.24,0.88l-1.58,0l0,4.46c0,0.17 0.02,0.33 0.06,0.47c0.05,0.13 0.12,0.24 0.22,0.31c0.11,0.07 0.27,0.1 0.46,0.1c0.15,0 0.3,-0.02 0.45,-0.04c0.15,-0.03 0.3,-0.06 0.44,-0.1l0.19,0.78c-0.23,0.07 -0.45,0.12 -0.67,0.17c-0.2,0.06 -0.44,0.08 -0.71,0.08c-0.6,0 -1.02,-0.15 -1.25,-0.47c-0.23,-0.32 -0.35,-0.76 -0.35,-1.33l0,-4.43l-1.04,0l0,-0.7c0.28,-0.01 0.52,-0.08 0.71,-0.22c0.18,-0.14 0.34,-0.32 0.46,-0.53c0.12,-0.23 0.22,-0.46 0.29,-0.7c0.08,-0.25 0.13,-0.49 0.17,-0.72l0.85,0zm5.4,1.82c0.56,0 1.03,0.12 1.41,0.35c0.39,0.23 0.67,0.55 0.86,0.96c0.19,0.4 0.29,0.87 0.29,1.41c0,0.13 -0.01,0.27 -0.03,0.41c-0.01,0.13 -0.02,0.27 -0.04,0.42l-4.42,0c0,0.88 0.19,1.57 0.59,2.05c0.39,0.49 0.91,0.73 1.56,0.73c0.27,0 0.55,-0.04 0.84,-0.12c0.3,-0.09 0.61,-0.21 0.93,-0.38l0.43,0.7c-0.32,0.26 -0.69,0.46 -1.1,0.59c-0.41,0.13 -0.83,0.19 -1.25,0.19c-0.55,0 -1.03,-0.1 -1.44,-0.29c-0.4,-0.21 -0.74,-0.48 -1.01,-0.81c-0.26,-0.35 -0.46,-0.74 -0.59,-1.17c-0.13,-0.43 -0.19,-0.86 -0.19,-1.31c0,-0.47 0.06,-0.92 0.19,-1.36c0.13,-0.44 0.33,-0.84 0.59,-1.19c0.27,-0.36 0.6,-0.65 0.99,-0.85c0.4,-0.22 0.86,-0.33 1.39,-0.33zm-0.11,0.89c-0.32,0 -0.6,0.08 -0.84,0.26c-0.24,0.18 -0.44,0.41 -0.59,0.69c-0.15,0.27 -0.25,0.55 -0.31,0.84l3.19,0c0.01,-0.39 -0.04,-0.72 -0.16,-0.98c-0.12,-0.27 -0.28,-0.47 -0.51,-0.6c-0.21,-0.14 -0.47,-0.21 -0.78,-0.21z" fill="black" id="svg_17"/>
 </g>
</svg>