<svg width="329" height="101" viewBox="0 0 329 101" fill="none" xmlns="http://www.w3.org/2000/svg">
<line x1="72.998" y1="24.5" x2="328.998" y2="23.5" stroke="black"/>
<path d="M110.5 0L113.082 6.21885H121.437L114.678 10.0623L117.26 16.2812L110.5 12.4377L103.74 16.2812L106.322 10.0623L99.5628 6.21885H107.918L110.5 0Z" fill="#F7A43C"/>
<path d="M133.5 0L136.082 6.21885H144.437L137.678 10.0623L140.26 16.2812L133.5 12.4377L126.74 16.2812L129.322 10.0623L122.563 6.21885H130.918L133.5 0Z" fill="#F7A43C"/>
<path d="M156.5 0L159.082 6.21885H167.437L160.678 10.0623L163.26 16.2812L156.5 12.4377L149.74 16.2812L152.322 10.0623L145.563 6.21885H153.918L156.5 0Z" fill="#F7A43C"/>
<path d="M202.5 0L205.082 6.21885H213.437L206.678 10.0623L209.26 16.2812L202.5 12.4377L195.74 16.2812L198.322 10.0623L191.563 6.21885H199.918L202.5 0Z" fill="#F7A43C"/>
<path d="M179.5 0L182.082 6.21885H190.437L183.678 10.0623L186.26 16.2812L179.5 12.4377L172.74 16.2812L175.322 10.0623L168.563 6.21885H176.918L179.5 0Z" fill="#F7A43C"/>
<path d="M81.0686 5.566H77.9046V8.296C78.4366 7.86667 79.0713 7.652 79.8086 7.652C80.4526 7.652 80.9333 7.84333 81.2506 8.226C81.5773 8.59933 81.7406 9.20133 81.7406 10.032V10.536C81.7406 12.2907 80.8306 13.168 79.0106 13.168C78.684 13.168 78.3246 13.1353 77.9326 13.07C77.5406 13.014 77.1953 12.944 76.8966 12.86V11.894C77.1673 11.95 77.5266 12.0107 77.9746 12.076C78.4226 12.132 78.7586 12.16 78.9826 12.16C79.496 12.16 79.8833 12.0247 80.1446 11.754C80.4153 11.474 80.5506 11.068 80.5506 10.536V9.99C80.5506 9.094 80.2053 8.646 79.5146 8.646C79.1413 8.646 78.81 8.716 78.5206 8.856C78.2406 8.996 77.956 9.22933 77.6666 9.556H76.7566V4.544H81.0686V5.566ZM83.6536 11.46C84.1856 11.46 84.4516 11.6793 84.4516 12.118V12.524C84.4516 12.7293 84.3816 12.888 84.2416 13C84.1109 13.112 83.9149 13.168 83.6536 13.168C83.4016 13.168 83.2056 13.112 83.0656 13C82.9349 12.888 82.8696 12.7293 82.8696 12.524V12.118C82.8696 11.9033 82.9349 11.74 83.0656 11.628C83.2056 11.516 83.4016 11.46 83.6536 11.46ZM88.4434 4.418C89.2834 4.418 89.9227 4.66067 90.3614 5.146C90.8094 5.622 91.0334 6.336 91.0334 7.288V10.298C91.0334 11.25 90.8094 11.9687 90.3614 12.454C89.9227 12.93 89.2834 13.168 88.4434 13.168C87.6034 13.168 86.9594 12.93 86.5114 12.454C86.0727 11.9687 85.8534 11.25 85.8534 10.298V7.288C85.8534 6.336 86.0727 5.622 86.5114 5.146C86.9594 4.66067 87.6034 4.418 88.4434 4.418ZM88.4434 5.426C87.51 5.426 87.0434 6.00933 87.0434 7.176V10.41C87.0434 11.5767 87.51 12.16 88.4434 12.16C89.3767 12.16 89.8434 11.5767 89.8434 10.41V7.176C89.8434 6.00933 89.3767 5.426 88.4434 5.426Z" fill="#D81111"/>
<line x1="75" y1="15.5" x2="93" y2="15.5" stroke="#D81111"/>
<path d="M89.3186 90L86.1138 84.7711H82.7403V90H79.8728V76.241H86.7403C88.3789 76.241 89.6399 76.5944 90.5234 77.3012C91.423 78.008 91.8728 79.0201 91.8728 80.3373C91.8728 81.3012 91.5997 82.1365 91.0536 82.8434C90.5074 83.5341 89.7684 83.992 88.8367 84.2169L92.5475 90H89.3186ZM88.9813 80.4578C88.9813 79.1406 88.1299 78.4819 86.4271 78.4819H82.7403V82.5301H86.5234C87.3267 82.5301 87.9371 82.3534 88.3548 82C88.7724 81.6305 88.9813 81.1165 88.9813 80.4578ZM103.8 85.9759C103.8 87.1486 103.399 88.0643 102.596 88.7229C101.808 89.3655 100.644 89.7189 99.1016 89.7831V91.494H98.0414V89.8072C96.6438 89.759 95.5514 89.4297 94.7643 88.8193C93.9771 88.2088 93.4631 87.2771 93.2221 86.0241L95.7281 85.5663C95.8566 86.3052 96.0976 86.8434 96.451 87.1807C96.8205 87.5181 97.3506 87.7189 98.0414 87.7831V83.9759C98.0253 83.9598 97.9771 83.9438 97.8968 83.9277C97.8165 83.9116 97.7602 83.9036 97.7281 83.9036C96.6679 83.6627 95.8727 83.3815 95.3426 83.0602C94.8125 82.7229 94.3948 82.3052 94.0896 81.8072C93.8004 81.2932 93.6558 80.6747 93.6558 79.9518C93.6558 78.8755 94.0253 78.0402 94.7643 77.4458C95.5193 76.8514 96.6116 76.5221 98.0414 76.4578V75.1566H99.1016V76.4578C99.953 76.49 100.66 76.6265 101.222 76.8675C101.8 77.1084 102.258 77.4618 102.596 77.9277C102.949 78.3775 103.238 79.0281 103.463 79.8795L100.885 80.2651C100.788 79.7028 100.596 79.2691 100.306 78.9639C100.017 78.6426 99.6157 78.4498 99.1016 78.3855V81.8072L99.198 81.8313C99.3908 81.8313 99.9691 81.992 100.933 82.3133C101.897 82.6185 102.612 83.0763 103.078 83.6867C103.559 84.2972 103.8 85.0602 103.8 85.9759ZM98.0414 78.3373C96.8365 78.4337 96.2261 78.9558 96.21 79.9036C96.21 80.1928 96.2582 80.4337 96.3546 80.6265C96.4671 80.8032 96.6197 80.9558 96.8125 81.0843C97.0052 81.2129 97.4149 81.3815 98.0414 81.5904V78.3373ZM101.246 86.0241C101.246 85.7028 101.19 85.4378 101.078 85.2289C100.965 85.0201 100.796 84.8514 100.571 84.7229C100.347 84.5944 99.8566 84.4177 99.1016 84.1928V87.7831C100.531 87.6867 101.246 87.1004 101.246 86.0241ZM110.616 90V87.9518H114.038V78.5783L110.737 80.6265V78.4819L114.183 76.241H116.785V87.9518H119.942V90H110.616ZM121.175 90V88.0964C121.529 87.3092 122.035 86.5462 122.693 85.8072C123.352 85.0522 124.187 84.2651 125.199 83.4458C126.163 82.6586 126.838 82.0161 127.224 81.5181C127.609 81.004 127.802 80.506 127.802 80.0241C127.802 78.8193 127.199 78.2169 125.995 78.2169C125.416 78.2169 124.967 78.3775 124.645 78.6988C124.34 79.0201 124.139 79.494 124.043 80.1205L121.296 79.9518C121.456 78.6827 121.93 77.7108 122.718 77.0361C123.521 76.3614 124.605 76.0241 125.971 76.0241C127.448 76.0241 128.581 76.3695 129.368 77.0602C130.171 77.7349 130.573 78.6827 130.573 79.9036C130.573 80.5462 130.444 81.1325 130.187 81.6627C129.946 82.1767 129.625 82.6586 129.224 83.1084C128.822 83.5422 128.38 83.9518 127.898 84.3373C127.416 84.7068 126.942 85.0763 126.477 85.4458C126.027 85.8153 125.617 86.1847 125.248 86.5542C124.878 86.9237 124.597 87.3173 124.404 87.7349H130.79V90H121.175ZM141.903 83.1084C141.903 85.4378 141.501 87.2048 140.698 88.4096C139.895 89.5984 138.698 90.1928 137.108 90.1928C133.959 90.1928 132.385 87.8313 132.385 83.1084C132.385 81.4538 132.554 80.1124 132.891 79.0843C133.244 78.0402 133.767 77.2691 134.457 76.7711C135.148 76.2731 136.056 76.0241 137.18 76.0241C138.803 76.0241 139.991 76.6185 140.746 77.8072C141.518 78.9799 141.903 80.747 141.903 83.1084ZM139.132 83.1084C139.132 81.8394 139.068 80.8594 138.939 80.1687C138.827 79.4618 138.634 78.9558 138.361 78.6506C138.088 78.3454 137.686 78.1928 137.156 78.1928C136.61 78.1928 136.192 78.3454 135.903 78.6506C135.63 78.9558 135.429 79.4618 135.301 80.1687C135.188 80.8594 135.132 81.8394 135.132 83.1084C135.132 84.3614 135.196 85.3414 135.325 86.0482C135.453 86.755 135.654 87.2691 135.927 87.5904C136.2 87.8956 136.602 88.0482 137.132 88.0482C137.646 88.0482 138.04 87.8876 138.313 87.5663C138.602 87.2289 138.811 86.7068 138.939 86C139.068 85.2932 139.132 84.3293 139.132 83.1084ZM146.92 89.3494C146.92 90.1365 146.832 90.8273 146.655 91.4217C146.494 92.0161 146.229 92.5703 145.86 93.0843H144.053C144.438 92.6185 144.751 92.1124 144.992 91.5663C145.233 91.0201 145.354 90.498 145.354 90H144.101V87.012H146.92V89.3494ZM158.563 83.1084C158.563 85.4378 158.162 87.2048 157.358 88.4096C156.555 89.5984 155.358 90.1928 153.768 90.1928C150.619 90.1928 149.045 87.8313 149.045 83.1084C149.045 81.4538 149.214 80.1124 149.551 79.0843C149.905 78.0402 150.427 77.2691 151.117 76.7711C151.808 76.2731 152.716 76.0241 153.84 76.0241C155.463 76.0241 156.652 76.6185 157.407 77.8072C158.178 78.9799 158.563 80.747 158.563 83.1084ZM155.792 83.1084C155.792 81.8394 155.728 80.8594 155.599 80.1687C155.487 79.4618 155.294 78.9558 155.021 78.6506C154.748 78.3454 154.346 78.1928 153.816 78.1928C153.27 78.1928 152.852 78.3454 152.563 78.6506C152.29 78.9558 152.089 79.4618 151.961 80.1687C151.848 80.8594 151.792 81.8394 151.792 83.1084C151.792 84.3614 151.856 85.3414 151.985 86.0482C152.113 86.755 152.314 87.2691 152.587 87.5904C152.86 87.8956 153.262 88.0482 153.792 88.0482C154.306 88.0482 154.7 87.8876 154.973 87.5663C155.262 87.2289 155.471 86.7068 155.599 86C155.728 85.2932 155.792 84.3293 155.792 83.1084ZM169.677 83.1084C169.677 85.4378 169.275 87.2048 168.472 88.4096C167.669 89.5984 166.472 90.1928 164.881 90.1928C161.733 90.1928 160.158 87.8313 160.158 83.1084C160.158 81.4538 160.327 80.1124 160.664 79.0843C161.018 78.0402 161.54 77.2691 162.231 76.7711C162.922 76.2731 163.829 76.0241 164.954 76.0241C166.576 76.0241 167.765 76.6185 168.52 77.8072C169.291 78.9799 169.677 80.747 169.677 83.1084ZM166.905 83.1084C166.905 81.8394 166.841 80.8594 166.713 80.1687C166.6 79.4618 166.407 78.9558 166.134 78.6506C165.861 78.3454 165.46 78.1928 164.93 78.1928C164.383 78.1928 163.966 78.3454 163.677 78.6506C163.403 78.9558 163.203 79.4618 163.074 80.1687C162.962 80.8594 162.905 81.8394 162.905 83.1084C162.905 84.3614 162.97 85.3414 163.098 86.0482C163.227 86.755 163.428 87.2691 163.701 87.5904C163.974 87.8956 164.375 88.0482 164.905 88.0482C165.42 88.0482 165.813 87.8876 166.086 87.5663C166.375 87.2289 166.584 86.7068 166.713 86C166.841 85.2932 166.905 84.3293 166.905 83.1084Z" fill="#D81111"/>
<path d="M86.9431 42.174C86.9431 42.5193 86.8731 42.8553 86.7331 43.182C86.6025 43.4993 86.4065 43.7747 86.1451 44.008C85.8931 44.232 85.5851 44.3767 85.2211 44.442C85.6878 44.5073 86.0798 44.6707 86.3971 44.932C86.7238 45.184 86.9711 45.5013 87.1391 45.884C87.3165 46.2667 87.4051 46.6867 87.4051 47.144C87.4051 47.7507 87.2931 48.2453 87.0691 48.628C86.8451 49.0013 86.5418 49.2907 86.1591 49.496C85.7765 49.692 85.3471 49.8273 84.8711 49.902C84.3951 49.9673 83.9098 50 83.4151 50H80.6431V40.732C80.6431 40.7227 80.6245 40.648 80.5871 40.508C80.5591 40.368 80.5311 40.2233 80.5031 40.074C80.4751 39.9247 80.4565 39.836 80.4471 39.808H83.8491C84.2505 39.808 84.6331 39.8453 84.9971 39.92C85.3705 39.9853 85.7018 40.1067 85.9911 40.284C86.2898 40.4613 86.5231 40.704 86.6911 41.012C86.8591 41.3107 86.9431 41.698 86.9431 42.174ZM85.5851 42.202C85.5851 41.8287 85.5011 41.5393 85.3331 41.334C85.1745 41.1287 84.9598 40.984 84.6891 40.9C84.4185 40.816 84.1245 40.774 83.8071 40.774H81.9451V44.022H83.4431C83.8818 44.022 84.2598 43.966 84.5771 43.854C84.8945 43.742 85.1418 43.5553 85.3191 43.294C85.4965 43.0233 85.5851 42.6593 85.5851 42.202ZM86.0191 46.934C86.0191 46.458 85.8931 46.08 85.6411 45.8C85.3985 45.5107 85.0811 45.3053 84.6891 45.184C84.3065 45.0533 83.9098 44.988 83.4991 44.988H81.9451V49.034H83.4991C83.9938 49.034 84.4278 48.978 84.8011 48.866C85.1838 48.7447 85.4825 48.53 85.6971 48.222C85.9118 47.914 86.0191 47.4847 86.0191 46.934ZM91.5947 42.874C92.3321 42.874 92.8874 43.0747 93.2607 43.476C93.6341 43.8773 93.8207 44.442 93.8207 45.17V48.656C93.8207 48.852 93.8581 48.9873 93.9327 49.062C94.0074 49.1273 94.0961 49.16 94.1987 49.16C94.2827 49.16 94.3714 49.1507 94.4647 49.132C94.5581 49.104 94.6467 49.0713 94.7307 49.034L94.9827 49.79C94.8334 49.874 94.6421 49.9487 94.4087 50.014C94.1847 50.0887 93.9514 50.126 93.7087 50.126C93.4661 50.126 93.2467 50.0607 93.0507 49.93C92.8547 49.79 92.7334 49.538 92.6867 49.174C92.4161 49.4633 92.0987 49.7013 91.7347 49.888C91.3707 50.0653 90.9881 50.154 90.5867 50.154C90.0361 50.154 89.5787 49.9907 89.2147 49.664C88.8507 49.3373 88.6687 48.8893 88.6687 48.32C88.6687 47.788 88.7947 47.3633 89.0467 47.046C89.3081 46.7287 89.6441 46.4907 90.0547 46.332C90.4654 46.1733 90.8994 46.066 91.3567 46.01C91.8234 45.954 92.2574 45.926 92.6587 45.926V45.184C92.6587 44.9227 92.6261 44.6893 92.5607 44.484C92.4954 44.2693 92.3787 44.1013 92.2107 43.98C92.0427 43.8493 91.8047 43.784 91.4967 43.784C91.1421 43.784 90.8014 43.854 90.4747 43.994C90.1481 44.134 89.8214 44.3393 89.4947 44.61L88.9207 43.784C89.3034 43.476 89.7234 43.2473 90.1807 43.098C90.6381 42.9487 91.1094 42.874 91.5947 42.874ZM92.6587 46.836C92.4067 46.836 92.1221 46.85 91.8047 46.878C91.4874 46.8967 91.1794 46.9527 90.8807 47.046C90.5821 47.13 90.3347 47.27 90.1387 47.466C89.9521 47.662 89.8587 47.9327 89.8587 48.278C89.8587 48.586 89.9614 48.8147 90.1667 48.964C90.3814 49.104 90.6474 49.174 90.9647 49.174C91.3007 49.174 91.5947 49.0807 91.8467 48.894C92.0987 48.7073 92.2947 48.4693 92.4347 48.18C92.5841 47.8907 92.6587 47.592 92.6587 47.284V46.836ZM96.9027 42.93C96.968 43.0887 97.024 43.252 97.0707 43.42C97.1174 43.588 97.15 43.756 97.1687 43.924C97.4487 43.644 97.78 43.4013 98.1627 43.196C98.5454 42.9813 98.9374 42.874 99.3387 42.874C99.852 42.874 100.263 42.9813 100.571 43.196C100.888 43.4107 101.117 43.7047 101.257 44.078C101.397 44.442 101.467 44.8667 101.467 45.352V50H100.319V45.73C100.319 45.4407 100.295 45.156 100.249 44.876C100.211 44.596 100.109 44.3673 99.9407 44.19C99.782 44.0033 99.516 43.91 99.1427 43.91C98.9187 43.91 98.69 43.9567 98.4567 44.05C98.2234 44.134 98.004 44.246 97.7987 44.386C97.5934 44.526 97.4067 44.6753 97.2387 44.834V50H96.0907V45.072C96.0907 44.8853 96.0767 44.6707 96.0487 44.428C96.0207 44.176 95.974 43.9333 95.9087 43.7C95.8434 43.4573 95.75 43.2567 95.6287 43.098L96.9027 42.93ZM104.923 39.332V43.868C105.222 43.588 105.544 43.35 105.889 43.154C106.234 42.958 106.617 42.86 107.037 42.86C107.55 42.86 107.961 42.9673 108.269 43.182C108.577 43.3967 108.801 43.6907 108.941 44.064C109.081 44.428 109.151 44.8527 109.151 45.338V50H108.003V45.716C108.003 45.4267 107.98 45.1467 107.933 44.876C107.896 44.596 107.798 44.3627 107.639 44.176C107.48 43.9893 107.214 43.896 106.841 43.896C106.608 43.896 106.374 43.9427 106.141 44.036C105.917 44.1293 105.702 44.246 105.497 44.386C105.292 44.526 105.1 44.6707 104.923 44.82V50H103.775V40.158L103.593 39.332H104.923ZM113.993 50.182C113.312 50.182 112.738 50.014 112.271 49.678C111.814 49.3327 111.469 48.8847 111.235 48.334C111.011 47.7833 110.899 47.1953 110.899 46.57C110.899 46.1033 110.969 45.6507 111.109 45.212C111.249 44.764 111.455 44.3673 111.725 44.022C111.996 43.6673 112.327 43.3873 112.719 43.182C113.121 42.9767 113.573 42.874 114.077 42.874C114.768 42.874 115.342 43.042 115.799 43.378C116.266 43.714 116.611 44.1573 116.835 44.708C117.069 45.2587 117.185 45.8513 117.185 46.486C117.185 46.962 117.115 47.424 116.975 47.872C116.835 48.3107 116.63 48.7027 116.359 49.048C116.098 49.3933 115.767 49.6687 115.365 49.874C114.973 50.0793 114.516 50.182 113.993 50.182ZM114.007 49.3C114.371 49.3 114.675 49.216 114.917 49.048C115.169 48.8707 115.37 48.642 115.519 48.362C115.678 48.082 115.79 47.7833 115.855 47.466C115.921 47.1393 115.953 46.8267 115.953 46.528C115.953 46.22 115.921 45.9073 115.855 45.59C115.799 45.2633 115.701 44.9647 115.561 44.694C115.421 44.414 115.225 44.19 114.973 44.022C114.731 43.8447 114.427 43.756 114.063 43.756C113.699 43.756 113.391 43.8447 113.139 44.022C112.897 44.19 112.701 44.414 112.551 44.694C112.402 44.974 112.295 45.2773 112.229 45.604C112.164 45.9213 112.131 46.2293 112.131 46.528C112.131 46.8173 112.164 47.1253 112.229 47.452C112.295 47.7693 112.397 48.068 112.537 48.348C112.687 48.628 112.883 48.8567 113.125 49.034C113.368 49.2113 113.662 49.3 114.007 49.3ZM126.419 39.668C126.783 39.668 127.171 39.71 127.581 39.794C128.001 39.8687 128.403 39.9947 128.785 40.172C129.177 40.34 129.504 40.5593 129.765 40.83L129.023 41.698C128.734 41.4647 128.463 41.2733 128.211 41.124C127.959 40.9747 127.693 40.8627 127.413 40.788C127.143 40.7133 126.811 40.676 126.419 40.676C125.803 40.676 125.281 40.7927 124.851 41.026C124.431 41.2593 124.086 41.5767 123.815 41.978C123.554 42.3793 123.363 42.832 123.241 43.336C123.12 43.84 123.059 44.3627 123.059 44.904C123.059 45.4173 123.115 45.926 123.227 46.43C123.339 46.9247 123.521 47.3773 123.773 47.788C124.025 48.1987 124.357 48.5253 124.767 48.768C125.178 49.0107 125.682 49.132 126.279 49.132C126.774 49.132 127.199 49.0247 127.553 48.81C127.917 48.586 128.197 48.2873 128.393 47.914C128.599 47.5313 128.701 47.102 128.701 46.626V45.702H126.195L126.363 44.75H130.017V47.676C130.017 48.0587 130.031 48.446 130.059 48.838C130.097 49.23 130.125 49.6173 130.143 50H129.443L128.995 48.936C128.585 49.3747 128.141 49.692 127.665 49.888C127.199 50.0747 126.662 50.168 126.055 50.168C125.318 50.168 124.674 50.0327 124.123 49.762C123.582 49.482 123.129 49.104 122.765 48.628C122.401 48.1427 122.131 47.592 121.953 46.976C121.776 46.36 121.687 45.7113 121.687 45.03C121.687 44.2833 121.785 43.588 121.981 42.944C122.177 42.2907 122.471 41.7213 122.863 41.236C123.255 40.7413 123.745 40.3587 124.333 40.088C124.931 39.808 125.626 39.668 126.419 39.668ZM132.874 42.916C133.042 43.3267 133.149 43.7607 133.196 44.218C133.438 43.8353 133.765 43.5227 134.176 43.28C134.586 43.0373 135.02 42.916 135.478 42.916L135.198 44.148C134.75 44.148 134.367 44.2647 134.05 44.498C133.742 44.7313 133.466 45.0253 133.224 45.38V50H132.062V44.96C132.062 44.7733 132.048 44.5633 132.02 44.33C131.992 44.0967 131.945 43.868 131.88 43.644C131.814 43.42 131.726 43.2287 131.614 43.07L132.874 42.916ZM139.146 42.874C139.883 42.874 140.438 43.0747 140.812 43.476C141.185 43.8773 141.372 44.442 141.372 45.17V48.656C141.372 48.852 141.409 48.9873 141.484 49.062C141.558 49.1273 141.647 49.16 141.75 49.16C141.834 49.16 141.922 49.1507 142.016 49.132C142.109 49.104 142.198 49.0713 142.282 49.034L142.534 49.79C142.384 49.874 142.193 49.9487 141.96 50.014C141.736 50.0887 141.502 50.126 141.26 50.126C141.017 50.126 140.798 50.0607 140.602 49.93C140.406 49.79 140.284 49.538 140.238 49.174C139.967 49.4633 139.65 49.7013 139.286 49.888C138.922 50.0653 138.539 50.154 138.138 50.154C137.587 50.154 137.13 49.9907 136.766 49.664C136.402 49.3373 136.22 48.8893 136.22 48.32C136.22 47.788 136.346 47.3633 136.598 47.046C136.859 46.7287 137.195 46.4907 137.606 46.332C138.016 46.1733 138.45 46.066 138.908 46.01C139.374 45.954 139.808 45.926 140.21 45.926V45.184C140.21 44.9227 140.177 44.6893 140.112 44.484C140.046 44.2693 139.93 44.1013 139.762 43.98C139.594 43.8493 139.356 43.784 139.048 43.784C138.693 43.784 138.352 43.854 138.026 43.994C137.699 44.134 137.372 44.3393 137.046 44.61L136.472 43.784C136.854 43.476 137.274 43.2473 137.732 43.098C138.189 42.9487 138.66 42.874 139.146 42.874ZM140.21 46.836C139.958 46.836 139.673 46.85 139.356 46.878C139.038 46.8967 138.73 46.9527 138.432 47.046C138.133 47.13 137.886 47.27 137.69 47.466C137.503 47.662 137.41 47.9327 137.41 48.278C137.41 48.586 137.512 48.8147 137.718 48.964C137.932 49.104 138.198 49.174 138.516 49.174C138.852 49.174 139.146 49.0807 139.398 48.894C139.65 48.7073 139.846 48.4693 139.986 48.18C140.135 47.8907 140.21 47.592 140.21 47.284V46.836ZM144.453 42.93C144.519 43.0887 144.575 43.252 144.621 43.42C144.668 43.588 144.701 43.756 144.719 43.924C144.999 43.644 145.331 43.4013 145.713 43.196C146.096 42.9813 146.488 42.874 146.889 42.874C147.403 42.874 147.813 42.9813 148.121 43.196C148.439 43.4107 148.667 43.7047 148.807 44.078C148.947 44.442 149.017 44.8667 149.017 45.352V50H147.869V45.73C147.869 45.4407 147.846 45.156 147.799 44.876C147.762 44.596 147.659 44.3673 147.491 44.19C147.333 44.0033 147.067 43.91 146.693 43.91C146.469 43.91 146.241 43.9567 146.007 44.05C145.774 44.134 145.555 44.246 145.349 44.386C145.144 44.526 144.957 44.6753 144.789 44.834V50H143.641V45.072C143.641 44.8853 143.627 44.6707 143.599 44.428C143.571 44.176 143.525 43.9333 143.459 43.7C143.394 43.4573 143.301 43.2567 143.179 43.098L144.453 42.93ZM153.916 42.888C154.233 42.888 154.55 42.9393 154.868 43.042C155.185 43.1447 155.46 43.3033 155.694 43.518C155.684 43.3873 155.675 43.2613 155.666 43.14C155.666 43.0093 155.666 42.8833 155.666 42.762V40.158L155.47 39.332H156.814V47.998C156.814 48.194 156.828 48.4133 156.856 48.656C156.884 48.8987 156.93 49.1367 156.996 49.37C157.061 49.594 157.145 49.7947 157.248 49.972L156.016 50.126C155.95 49.9673 155.894 49.8087 155.848 49.65C155.801 49.4913 155.768 49.3327 155.75 49.174C155.507 49.4913 155.204 49.7387 154.84 49.916C154.476 50.0933 154.093 50.182 153.692 50.182C153.206 50.182 152.782 50.0793 152.418 49.874C152.054 49.6687 151.75 49.3933 151.508 49.048C151.274 48.6933 151.097 48.306 150.976 47.886C150.864 47.4567 150.808 47.0227 150.808 46.584C150.808 46.108 150.868 45.6507 150.99 45.212C151.12 44.764 151.312 44.3673 151.564 44.022C151.825 43.6767 152.152 43.4013 152.544 43.196C152.936 42.9907 153.393 42.888 153.916 42.888ZM153.944 43.84C153.58 43.84 153.272 43.9193 153.02 44.078C152.777 44.2367 152.581 44.4467 152.432 44.708C152.292 44.9693 152.189 45.2587 152.124 45.576C152.068 45.884 152.04 46.192 152.04 46.5C152.04 46.8173 152.072 47.1347 152.138 47.452C152.212 47.76 152.324 48.0447 152.474 48.306C152.632 48.5673 152.838 48.7773 153.09 48.936C153.351 49.0853 153.668 49.16 154.042 49.16C154.368 49.16 154.667 49.0667 154.938 48.88C155.218 48.684 155.46 48.4693 155.666 48.236V45.884C155.666 45.5107 155.605 45.17 155.484 44.862C155.372 44.554 155.19 44.3067 154.938 44.12C154.686 43.9333 154.354 43.84 153.944 43.84ZM161.764 42.874C162.324 42.874 162.796 42.9907 163.178 43.224C163.561 43.448 163.846 43.7653 164.032 44.176C164.228 44.5773 164.326 45.0487 164.326 45.59C164.326 45.7207 164.317 45.856 164.298 45.996C164.289 46.1267 164.275 46.2667 164.256 46.416H159.832C159.832 47.3027 160.028 47.9887 160.42 48.474C160.812 48.9593 161.335 49.202 161.988 49.202C162.259 49.202 162.539 49.16 162.828 49.076C163.127 48.992 163.435 48.866 163.752 48.698L164.186 49.398C163.86 49.6593 163.491 49.8553 163.08 49.986C162.67 50.1167 162.254 50.182 161.834 50.182C161.284 50.182 160.803 50.084 160.392 49.888C159.991 49.6827 159.655 49.412 159.384 49.076C159.123 48.7307 158.927 48.3433 158.796 47.914C158.666 47.4847 158.6 47.046 158.6 46.598C158.6 46.1313 158.666 45.6787 158.796 45.24C158.927 44.8013 159.123 44.4047 159.384 44.05C159.655 43.686 159.986 43.4013 160.378 43.196C160.77 42.9813 161.232 42.874 161.764 42.874ZM161.652 43.756C161.335 43.756 161.055 43.8447 160.812 44.022C160.57 44.1993 160.374 44.428 160.224 44.708C160.075 44.9787 159.972 45.2587 159.916 45.548H163.108C163.118 45.156 163.062 44.8293 162.94 44.568C162.828 44.2973 162.66 44.0967 162.436 43.966C162.222 43.826 161.96 43.756 161.652 43.756ZM169.123 39.808H172.175C172.847 39.808 173.44 39.9153 173.953 40.13C174.476 40.3353 174.882 40.662 175.171 41.11C175.46 41.558 175.605 42.1507 175.605 42.888C175.605 43.5693 175.451 44.1387 175.143 44.596C174.835 45.0533 174.424 45.3987 173.911 45.632C173.398 45.856 172.824 45.968 172.189 45.968H170.635V50H169.333V40.732L169.123 39.808ZM170.635 40.774V45.016H172.161C172.805 45.016 173.314 44.82 173.687 44.428C174.06 44.036 174.247 43.5227 174.247 42.888C174.247 42.2253 174.07 41.7073 173.715 41.334C173.36 40.9607 172.847 40.774 172.175 40.774H170.635ZM179.386 50.182C178.704 50.182 178.13 50.014 177.664 49.678C177.206 49.3327 176.861 48.8847 176.628 48.334C176.404 47.7833 176.292 47.1953 176.292 46.57C176.292 46.1033 176.362 45.6507 176.502 45.212C176.642 44.764 176.847 44.3673 177.118 44.022C177.388 43.6673 177.72 43.3873 178.112 43.182C178.513 42.9767 178.966 42.874 179.47 42.874C180.16 42.874 180.734 43.042 181.192 43.378C181.658 43.714 182.004 44.1573 182.228 44.708C182.461 45.2587 182.578 45.8513 182.578 46.486C182.578 46.962 182.508 47.424 182.368 47.872C182.228 48.3107 182.022 48.7027 181.752 49.048C181.49 49.3933 181.159 49.6687 180.758 49.874C180.366 50.0793 179.908 50.182 179.386 50.182ZM179.4 49.3C179.764 49.3 180.067 49.216 180.31 49.048C180.562 48.8707 180.762 48.642 180.912 48.362C181.07 48.082 181.182 47.7833 181.248 47.466C181.313 47.1393 181.346 46.8267 181.346 46.528C181.346 46.22 181.313 45.9073 181.248 45.59C181.192 45.2633 181.094 44.9647 180.954 44.694C180.814 44.414 180.618 44.19 180.366 44.022C180.123 43.8447 179.82 43.756 179.456 43.756C179.092 43.756 178.784 43.8447 178.532 44.022C178.289 44.19 178.093 44.414 177.944 44.694C177.794 44.974 177.687 45.2773 177.622 45.604C177.556 45.9213 177.524 46.2293 177.524 46.528C177.524 46.8173 177.556 47.1253 177.622 47.452C177.687 47.7693 177.79 48.068 177.93 48.348C178.079 48.628 178.275 48.8567 178.518 49.034C178.76 49.2113 179.054 49.3 179.4 49.3ZM185.046 42.916C185.214 43.3267 185.321 43.7607 185.368 44.218C185.61 43.8353 185.937 43.5227 186.348 43.28C186.758 43.0373 187.192 42.916 187.65 42.916L187.37 44.148C186.922 44.148 186.539 44.2647 186.222 44.498C185.914 44.7313 185.638 45.0253 185.396 45.38V50H184.234V44.96C184.234 44.7733 184.22 44.5633 184.192 44.33C184.164 44.0967 184.117 43.868 184.052 43.644C183.986 43.42 183.898 43.2287 183.786 43.07L185.046 42.916ZM191.012 41.054C190.947 41.3713 190.886 41.7027 190.83 42.048C190.783 42.384 190.751 42.7153 190.732 43.042H192.552L192.314 43.924H190.732V48.376C190.732 48.5533 190.751 48.712 190.788 48.852C190.835 48.9827 190.909 49.0853 191.012 49.16C191.124 49.2253 191.278 49.258 191.474 49.258C191.623 49.258 191.773 49.244 191.922 49.216C192.071 49.188 192.216 49.1553 192.356 49.118L192.552 49.902C192.319 49.9673 192.095 50.0233 191.88 50.07C191.675 50.126 191.437 50.154 191.166 50.154C190.569 50.154 190.153 49.9953 189.92 49.678C189.687 49.3607 189.57 48.9173 189.57 48.348V43.924H188.534V43.224C188.814 43.2147 189.047 43.14 189.234 43C189.421 42.86 189.575 42.6827 189.696 42.468C189.817 42.244 189.915 42.0107 189.99 41.768C190.065 41.516 190.121 41.278 190.158 41.054H191.012ZM196.409 42.874C196.969 42.874 197.44 42.9907 197.823 43.224C198.206 43.448 198.49 43.7653 198.677 44.176C198.873 44.5773 198.971 45.0487 198.971 45.59C198.971 45.7207 198.962 45.856 198.943 45.996C198.934 46.1267 198.92 46.2667 198.901 46.416H194.477C194.477 47.3027 194.673 47.9887 195.065 48.474C195.457 48.9593 195.98 49.202 196.633 49.202C196.904 49.202 197.184 49.16 197.473 49.076C197.772 48.992 198.08 48.866 198.397 48.698L198.831 49.398C198.504 49.6593 198.136 49.8553 197.725 49.986C197.314 50.1167 196.899 50.182 196.479 50.182C195.928 50.182 195.448 50.084 195.037 49.888C194.636 49.6827 194.3 49.412 194.029 49.076C193.768 48.7307 193.572 48.3433 193.441 47.914C193.31 47.4847 193.245 47.046 193.245 46.598C193.245 46.1313 193.31 45.6787 193.441 45.24C193.572 44.8013 193.768 44.4047 194.029 44.05C194.3 43.686 194.631 43.4013 195.023 43.196C195.415 42.9813 195.877 42.874 196.409 42.874ZM196.297 43.756C195.98 43.756 195.7 43.8447 195.457 44.022C195.214 44.1993 195.018 44.428 194.869 44.708C194.72 44.9787 194.617 45.2587 194.561 45.548H197.753C197.762 45.156 197.706 44.8293 197.585 44.568C197.473 44.2973 197.305 44.0967 197.081 43.966C196.866 43.826 196.605 43.756 196.297 43.756Z" fill="black"/>
</svg>
