<svg width="340" height="103" viewBox="0 0 340 103" fill="none" xmlns="http://www.w3.org/2000/svg">
<line x1="83.998" y1="24.5" x2="339.998" y2="23.5" stroke="black"/>
<path d="M121.5 0L124.082 6.21885H132.437L125.678 10.0623L128.26 16.2812L121.5 12.4377L114.74 16.2812L117.322 10.0623L110.563 6.21885H118.918L121.5 0Z" fill="#F7A43C"/>
<path d="M144.5 0L147.082 6.21885H155.437L148.678 10.0623L151.26 16.2812L144.5 12.4377L137.74 16.2812L140.322 10.0623L133.563 6.21885H141.918L144.5 0Z" fill="#F7A43C"/>
<path d="M167.5 0L170.082 6.21885H178.437L171.678 10.0623L174.26 16.2812L167.5 12.4377L160.74 16.2812L163.322 10.0623L156.563 6.21885H164.918L167.5 0Z" fill="#F7A43C"/>
<path d="M213.5 0L216.082 6.21885H224.437L217.678 10.0623L220.26 16.2812L213.5 12.4377L206.74 16.2812L209.322 10.0623L202.563 6.21885H210.918L213.5 0Z" fill="#F7A43C"/>
<path d="M190.5 0L193.082 6.21885H201.437L194.678 10.0623L197.26 16.2812L190.5 12.4377L183.74 16.2812L186.322 10.0623L179.563 6.21885H187.918L190.5 0Z" fill="#F7A43C"/>
<path d="M92.0686 5.566H88.9046V8.296C89.4366 7.86667 90.0713 7.652 90.8086 7.652C91.4526 7.652 91.9333 7.84333 92.2506 8.226C92.5773 8.59933 92.7406 9.20133 92.7406 10.032V10.536C92.7406 12.2907 91.8306 13.168 90.0106 13.168C89.684 13.168 89.3246 13.1353 88.9326 13.07C88.5406 13.014 88.1953 12.944 87.8966 12.86V11.894C88.1673 11.95 88.5266 12.0107 88.9746 12.076C89.4226 12.132 89.7586 12.16 89.9826 12.16C90.496 12.16 90.8833 12.0247 91.1446 11.754C91.4153 11.474 91.5506 11.068 91.5506 10.536V9.99C91.5506 9.094 91.2053 8.646 90.5146 8.646C90.1413 8.646 89.81 8.716 89.5206 8.856C89.2406 8.996 88.956 9.22933 88.6666 9.556H87.7566V4.544H92.0686V5.566ZM94.6536 11.46C95.1856 11.46 95.4516 11.6793 95.4516 12.118V12.524C95.4516 12.7293 95.3816 12.888 95.2416 13C95.1109 13.112 94.9149 13.168 94.6536 13.168C94.4016 13.168 94.2056 13.112 94.0656 13C93.9349 12.888 93.8696 12.7293 93.8696 12.524V12.118C93.8696 11.9033 93.9349 11.74 94.0656 11.628C94.2056 11.516 94.4016 11.46 94.6536 11.46ZM99.4434 4.418C100.283 4.418 100.923 4.66067 101.361 5.146C101.809 5.622 102.033 6.336 102.033 7.288V10.298C102.033 11.25 101.809 11.9687 101.361 12.454C100.923 12.93 100.283 13.168 99.4434 13.168C98.6034 13.168 97.9594 12.93 97.5114 12.454C97.0727 11.9687 96.8534 11.25 96.8534 10.298V7.288C96.8534 6.336 97.0727 5.622 97.5114 5.146C97.9594 4.66067 98.6034 4.418 99.4434 4.418ZM99.4434 5.426C98.51 5.426 98.0434 6.00933 98.0434 7.176V10.41C98.0434 11.5767 98.51 12.16 99.4434 12.16C100.377 12.16 100.843 11.5767 100.843 10.41V7.176C100.843 6.00933 100.377 5.426 99.4434 5.426Z" fill="#D81111"/>
<line x1="86" y1="15.5" x2="104" y2="15.5" stroke="#D81111"/>
<path d="M96.8753 92L93.6704 86.7711H90.2969V92H87.4295V78.241H94.2969C95.9355 78.241 97.1965 78.5944 98.0801 79.3012C98.9797 80.008 99.4295 81.0201 99.4295 82.3373C99.4295 83.3012 99.1564 84.1365 98.6102 84.8434C98.064 85.5341 97.3251 85.992 96.3933 86.2169L100.104 92H96.8753ZM96.5379 82.4578C96.5379 81.1406 95.6865 80.4819 93.9837 80.4819H90.2969V84.5301H94.0801C94.8833 84.5301 95.4937 84.3534 95.9114 84C96.3291 83.6305 96.5379 83.1165 96.5379 82.4578ZM111.357 87.9759C111.357 89.1486 110.955 90.0643 110.152 90.7229C109.365 91.3655 108.2 91.7189 106.658 91.7831V93.494H105.598V91.8072C104.2 91.759 103.108 91.4297 102.321 90.8193C101.534 90.2088 101.02 89.2771 100.779 88.0241L103.285 87.5663C103.413 88.3052 103.654 88.8434 104.008 89.1807C104.377 89.5181 104.907 89.7189 105.598 89.7831V85.9759C105.582 85.9598 105.534 85.9438 105.453 85.9277C105.373 85.9116 105.317 85.9036 105.285 85.9036C104.225 85.6627 103.429 85.3815 102.899 85.0602C102.369 84.7229 101.951 84.3052 101.646 83.8072C101.357 83.2932 101.212 82.6747 101.212 81.9518C101.212 80.8755 101.582 80.0402 102.321 79.4458C103.076 78.8514 104.168 78.5221 105.598 78.4578V77.1566H106.658V78.4578C107.51 78.49 108.216 78.6265 108.779 78.8675C109.357 79.1084 109.815 79.4618 110.152 79.9277C110.506 80.3775 110.795 81.0281 111.02 81.8795L108.441 82.2651C108.345 81.7028 108.152 81.2691 107.863 80.9639C107.574 80.6426 107.172 80.4498 106.658 80.3855V83.8072L106.755 83.8313C106.947 83.8313 107.526 83.992 108.49 84.3133C109.453 84.6185 110.168 85.0763 110.634 85.6867C111.116 86.2972 111.357 87.0602 111.357 87.9759ZM105.598 80.3373C104.393 80.4337 103.783 80.9558 103.767 81.9036C103.767 82.1928 103.815 82.4337 103.911 82.6265C104.024 82.8032 104.176 82.9558 104.369 83.0843C104.562 83.2129 104.972 83.3815 105.598 83.5904V80.3373ZM108.803 88.0241C108.803 87.7028 108.747 87.4378 108.634 87.2289C108.522 87.0201 108.353 86.8514 108.128 86.7229C107.903 86.5944 107.413 86.4177 106.658 86.1928V89.7831C108.088 89.6867 108.803 89.1004 108.803 88.0241ZM127.33 87.494C127.33 88.9558 126.912 90.1044 126.077 90.9398C125.257 91.7751 124.133 92.1928 122.703 92.1928C121.081 92.1928 119.828 91.6305 118.944 90.506C118.077 89.3655 117.643 87.6787 117.643 85.4458C117.643 82.988 118.085 81.1406 118.968 79.9036C119.852 78.6506 121.113 78.0241 122.751 78.0241C123.924 78.0241 124.848 78.2811 125.522 78.7952C126.197 79.3092 126.671 80.1124 126.944 81.2048L124.366 81.5663C124.125 80.6667 123.571 80.2088 122.703 80.1928C121.964 80.1928 121.386 80.5622 120.968 81.3012C120.55 82.0402 120.342 83.1566 120.342 84.6506C120.631 84.1687 121.032 83.7992 121.546 83.5422C122.077 83.2691 122.671 83.1325 123.33 83.1325C124.567 83.1325 125.538 83.5261 126.245 84.3133C126.968 85.1004 127.33 86.1606 127.33 87.494ZM124.558 87.5663C124.558 86.7791 124.374 86.1847 124.004 85.7831C123.651 85.3655 123.161 85.1566 122.534 85.1566C121.924 85.1566 121.434 85.3574 121.065 85.759C120.711 86.1446 120.534 86.6506 120.534 87.2771C120.534 88.0803 120.719 88.747 121.089 89.2771C121.474 89.7912 121.98 90.0482 122.607 90.0482C123.233 90.0482 123.715 89.8313 124.052 89.3976C124.39 88.9478 124.558 88.3373 124.558 87.5663ZM138.612 87.4217C138.612 88.8835 138.154 90.0482 137.238 90.9157C136.322 91.7671 135.077 92.1928 133.503 92.1928C132.122 92.1928 131.013 91.8876 130.178 91.2771C129.359 90.6506 128.852 89.743 128.66 88.5542L131.383 88.3373C131.527 88.9157 131.784 89.3414 132.154 89.6145C132.523 89.8876 132.981 90.0241 133.527 90.0241C134.218 90.0241 134.764 89.8072 135.166 89.3735C135.567 88.9237 135.768 88.2892 135.768 87.4699C135.768 86.747 135.575 86.1687 135.19 85.7349C134.82 85.3012 134.29 85.0843 133.599 85.0843C132.844 85.0843 132.218 85.3815 131.72 85.9759H129.045L129.527 78.241H137.792V80.2892H132.009L131.792 83.759C132.451 83.1807 133.278 82.8835 134.274 82.8675C135.575 82.8675 136.62 83.2771 137.407 84.0964C138.21 84.9157 138.612 86.0241 138.612 87.4217ZM143.363 91.3494C143.363 92.1365 143.275 92.8273 143.098 93.4217C142.938 94.0161 142.673 94.5703 142.303 95.0843H140.496C140.881 94.6185 141.195 94.1124 141.436 93.5663C141.677 93.0201 141.797 92.498 141.797 92H140.544V89.012H143.363V91.3494ZM155.007 85.1084C155.007 87.4378 154.605 89.2048 153.802 90.4096C152.999 91.5984 151.802 92.1928 150.211 92.1928C147.063 92.1928 145.489 89.8313 145.489 85.1084C145.489 83.4538 145.657 82.1124 145.995 81.0843C146.348 80.0402 146.87 79.2691 147.561 78.7711C148.252 78.2731 149.159 78.0241 150.284 78.0241C151.906 78.0241 153.095 78.6185 153.85 79.8072C154.621 80.9799 155.007 82.747 155.007 85.1084ZM152.236 85.1084C152.236 83.8394 152.171 82.8594 152.043 82.1687C151.93 81.4618 151.738 80.9558 151.464 80.6506C151.191 80.3454 150.79 80.1928 150.26 80.1928C149.713 80.1928 149.296 80.3454 149.007 80.6506C148.734 80.9558 148.533 81.4618 148.404 82.1687C148.292 82.8594 148.236 83.8394 148.236 85.1084C148.236 86.3614 148.3 87.3414 148.428 88.0482C148.557 88.755 148.758 89.2691 149.031 89.5904C149.304 89.8956 149.705 90.0482 150.236 90.0482C150.75 90.0482 151.143 89.8876 151.416 89.5663C151.705 89.2289 151.914 88.7068 152.043 88C152.171 87.2932 152.236 86.3293 152.236 85.1084ZM166.12 85.1084C166.12 87.4378 165.718 89.2048 164.915 90.4096C164.112 91.5984 162.915 92.1928 161.325 92.1928C158.176 92.1928 156.602 89.8313 156.602 85.1084C156.602 83.4538 156.77 82.1124 157.108 81.0843C157.461 80.0402 157.983 79.2691 158.674 78.7711C159.365 78.2731 160.273 78.0241 161.397 78.0241C163.019 78.0241 164.208 78.6185 164.963 79.8072C165.734 80.9799 166.12 82.747 166.12 85.1084ZM163.349 85.1084C163.349 83.8394 163.285 82.8594 163.156 82.1687C163.044 81.4618 162.851 80.9558 162.578 80.6506C162.305 80.3454 161.903 80.1928 161.373 80.1928C160.827 80.1928 160.409 80.3454 160.12 80.6506C159.847 80.9558 159.646 81.4618 159.517 82.1687C159.405 82.8594 159.349 83.8394 159.349 85.1084C159.349 86.3614 159.413 87.3414 159.542 88.0482C159.67 88.755 159.871 89.2691 160.144 89.5904C160.417 89.8956 160.819 90.0482 161.349 90.0482C161.863 90.0482 162.256 89.8876 162.53 89.5663C162.819 89.2289 163.028 88.7068 163.156 88C163.285 87.2932 163.349 86.3293 163.349 85.1084Z" fill="#D81111"/>
<path d="M84.4196 40.774H81.3956V39.808H88.8156V40.774H85.7496V50H84.4196V40.774ZM91.25 50.182C90.5687 50.182 89.9947 50.014 89.528 49.678C89.0707 49.3327 88.7254 48.8847 88.492 48.334C88.268 47.7833 88.156 47.1953 88.156 46.57C88.156 46.1033 88.226 45.6507 88.366 45.212C88.506 44.764 88.7114 44.3673 88.982 44.022C89.2527 43.6673 89.584 43.3873 89.976 43.182C90.3774 42.9767 90.83 42.874 91.334 42.874C92.0247 42.874 92.5987 43.042 93.056 43.378C93.5227 43.714 93.868 44.1573 94.092 44.708C94.3254 45.2587 94.442 45.8513 94.442 46.486C94.442 46.962 94.372 47.424 94.232 47.872C94.092 48.3107 93.8867 48.7027 93.616 49.048C93.3547 49.3933 93.0234 49.6687 92.622 49.874C92.23 50.0793 91.7727 50.182 91.25 50.182ZM91.264 49.3C91.628 49.3 91.9314 49.216 92.174 49.048C92.426 48.8707 92.6267 48.642 92.776 48.362C92.9347 48.082 93.0467 47.7833 93.112 47.466C93.1774 47.1393 93.21 46.8267 93.21 46.528C93.21 46.22 93.1774 45.9073 93.112 45.59C93.056 45.2633 92.958 44.9647 92.818 44.694C92.678 44.414 92.482 44.19 92.23 44.022C91.9874 43.8447 91.684 43.756 91.32 43.756C90.956 43.756 90.648 43.8447 90.396 44.022C90.1534 44.19 89.9574 44.414 89.808 44.694C89.6587 44.974 89.5514 45.2773 89.486 45.604C89.4207 45.9213 89.388 46.2293 89.388 46.528C89.388 46.8173 89.4207 47.1253 89.486 47.452C89.5514 47.7693 89.654 48.068 89.794 48.348C89.9434 48.628 90.1394 48.8567 90.382 49.034C90.6247 49.2113 90.9187 49.3 91.264 49.3ZM98.4756 42.874C98.7929 42.874 99.1056 42.916 99.4136 43C99.7309 43.0747 100.02 43.196 100.282 43.364L99.8756 44.26C99.6702 44.092 99.4416 43.966 99.1896 43.882C98.9376 43.798 98.6902 43.756 98.4476 43.756C98.1022 43.756 97.7989 43.8353 97.5376 43.994C97.2856 44.1527 97.1596 44.3907 97.1596 44.708C97.1596 44.932 97.2109 45.1187 97.3136 45.268C97.4256 45.4173 97.5702 45.5433 97.7476 45.646C97.9249 45.7487 98.1162 45.8513 98.3216 45.954C98.5549 46.066 98.7882 46.1827 99.0216 46.304C99.2642 46.416 99.4836 46.556 99.6796 46.724C99.8849 46.8827 100.048 47.0787 100.17 47.312C100.3 47.536 100.366 47.816 100.366 48.152C100.366 48.6187 100.249 49.006 100.016 49.314C99.7916 49.6127 99.4929 49.832 99.1196 49.972C98.7556 50.112 98.3589 50.182 97.9296 50.182C97.5562 50.182 97.1829 50.1307 96.8096 50.028C96.4362 49.9253 96.0909 49.7807 95.7736 49.594L96.2636 48.74C96.4876 48.908 96.7396 49.0433 97.0196 49.146C97.2996 49.2487 97.5702 49.3 97.8316 49.3C98.1862 49.3 98.4942 49.216 98.7556 49.048C99.0262 48.88 99.1616 48.628 99.1616 48.292C99.1616 48.0587 99.0869 47.8673 98.9376 47.718C98.7976 47.5593 98.6156 47.4193 98.3916 47.298C98.1676 47.1767 97.9342 47.06 97.6916 46.948C97.4116 46.808 97.1362 46.6587 96.8656 46.5C96.6042 46.332 96.3896 46.122 96.2216 45.87C96.0536 45.618 95.9696 45.296 95.9696 44.904C95.9696 44.456 96.0862 44.0827 96.3196 43.784C96.5622 43.4853 96.8749 43.2613 97.2576 43.112C97.6402 42.9533 98.0462 42.874 98.4756 42.874ZM104.617 42.874C105.355 42.874 105.91 43.0747 106.283 43.476C106.657 43.8773 106.843 44.442 106.843 45.17V48.656C106.843 48.852 106.881 48.9873 106.955 49.062C107.03 49.1273 107.119 49.16 107.221 49.16C107.305 49.16 107.394 49.1507 107.487 49.132C107.581 49.104 107.669 49.0713 107.753 49.034L108.005 49.79C107.856 49.874 107.665 49.9487 107.431 50.014C107.207 50.0887 106.974 50.126 106.731 50.126C106.489 50.126 106.269 50.0607 106.073 49.93C105.877 49.79 105.756 49.538 105.709 49.174C105.439 49.4633 105.121 49.7013 104.757 49.888C104.393 50.0653 104.011 50.154 103.609 50.154C103.059 50.154 102.601 49.9907 102.237 49.664C101.873 49.3373 101.691 48.8893 101.691 48.32C101.691 47.788 101.817 47.3633 102.069 47.046C102.331 46.7287 102.667 46.4907 103.077 46.332C103.488 46.1733 103.922 46.066 104.379 46.01C104.846 45.954 105.28 45.926 105.681 45.926V45.184C105.681 44.9227 105.649 44.6893 105.583 44.484C105.518 44.2693 105.401 44.1013 105.233 43.98C105.065 43.8493 104.827 43.784 104.519 43.784C104.165 43.784 103.824 43.854 103.497 43.994C103.171 44.134 102.844 44.3393 102.517 44.61L101.943 43.784C102.326 43.476 102.746 43.2473 103.203 43.098C103.661 42.9487 104.132 42.874 104.617 42.874ZM105.681 46.836C105.429 46.836 105.145 46.85 104.827 46.878C104.51 46.8967 104.202 46.9527 103.903 47.046C103.605 47.13 103.357 47.27 103.161 47.466C102.975 47.662 102.881 47.9327 102.881 48.278C102.881 48.586 102.984 48.8147 103.189 48.964C103.404 49.104 103.67 49.174 103.987 49.174C104.323 49.174 104.617 49.0807 104.869 48.894C105.121 48.7073 105.317 48.4693 105.457 48.18C105.607 47.8907 105.681 47.592 105.681 47.284V46.836ZM112.214 39.808H115.266C115.938 39.808 116.53 39.9153 117.044 40.13C117.566 40.3353 117.972 40.662 118.262 41.11C118.551 41.558 118.696 42.1507 118.696 42.888C118.696 43.5693 118.542 44.1387 118.234 44.596C117.926 45.0533 117.515 45.3987 117.002 45.632C116.488 45.856 115.914 45.968 115.28 45.968H113.726V50H112.424V40.732L112.214 39.808ZM113.726 40.774V45.016H115.252C115.896 45.016 116.404 44.82 116.778 44.428C117.151 44.036 117.338 43.5227 117.338 42.888C117.338 42.2253 117.16 41.7073 116.806 41.334C116.451 40.9607 115.938 40.774 115.266 40.774H113.726ZM122.547 42.874C123.107 42.874 123.578 42.9907 123.961 43.224C124.343 43.448 124.628 43.7653 124.815 44.176C125.011 44.5773 125.109 45.0487 125.109 45.59C125.109 45.7207 125.099 45.856 125.081 45.996C125.071 46.1267 125.057 46.2667 125.039 46.416H120.615C120.615 47.3027 120.811 47.9887 121.203 48.474C121.595 48.9593 122.117 49.202 122.771 49.202C123.041 49.202 123.321 49.16 123.611 49.076C123.909 48.992 124.217 48.866 124.535 48.698L124.969 49.398C124.642 49.6593 124.273 49.8553 123.863 49.986C123.452 50.1167 123.037 50.182 122.617 50.182C122.066 50.182 121.585 50.084 121.175 49.888C120.773 49.6827 120.437 49.412 120.167 49.076C119.905 48.7307 119.709 48.3433 119.579 47.914C119.448 47.4847 119.383 47.046 119.383 46.598C119.383 46.1313 119.448 45.6787 119.579 45.24C119.709 44.8013 119.905 44.4047 120.167 44.05C120.437 43.686 120.769 43.4013 121.161 43.196C121.553 42.9813 122.015 42.874 122.547 42.874ZM122.435 43.756C122.117 43.756 121.837 43.8447 121.595 44.022C121.352 44.1993 121.156 44.428 121.007 44.708C120.857 44.9787 120.755 45.2587 120.699 45.548H123.891C123.9 45.156 123.844 44.8293 123.723 44.568C123.611 44.2973 123.443 44.0967 123.219 43.966C123.004 43.826 122.743 43.756 122.435 43.756ZM129.353 42.874C129.745 42.874 130.123 42.9487 130.487 43.098C130.851 43.2473 131.159 43.476 131.411 43.784L131.663 43.042H132.363C132.353 43.2007 132.344 43.364 132.335 43.532C132.325 43.6907 132.321 43.8493 132.321 44.008V52.198C132.321 52.2073 132.335 52.2727 132.363 52.394C132.391 52.5247 132.419 52.6553 132.447 52.786C132.484 52.9167 132.503 52.996 132.503 53.024H131.159V50.392C131.159 50.28 131.159 50.1633 131.159 50.042C131.168 49.93 131.173 49.818 131.173 49.706C131.182 49.594 131.191 49.482 131.201 49.37C130.911 49.6407 130.608 49.8413 130.291 49.972C129.973 50.1027 129.609 50.168 129.199 50.168C128.713 50.168 128.289 50.0653 127.925 49.86C127.561 49.6453 127.257 49.3653 127.015 49.02C126.781 48.6653 126.604 48.278 126.483 47.858C126.361 47.4287 126.301 46.9993 126.301 46.57C126.301 46.094 126.361 45.6367 126.483 45.198C126.604 44.7593 126.791 44.3673 127.043 44.022C127.295 43.6673 127.612 43.3873 127.995 43.182C128.377 42.9767 128.83 42.874 129.353 42.874ZM129.409 43.756C129.063 43.756 128.769 43.8493 128.527 44.036C128.284 44.2133 128.093 44.442 127.953 44.722C127.813 45.002 127.71 45.3053 127.645 45.632C127.579 45.9493 127.547 46.248 127.547 46.528C127.547 46.836 127.579 47.144 127.645 47.452C127.719 47.76 127.831 48.0447 127.981 48.306C128.139 48.558 128.34 48.7633 128.583 48.922C128.835 49.0807 129.138 49.16 129.493 49.16C129.791 49.16 130.095 49.09 130.403 48.95C130.711 48.81 130.963 48.6233 131.159 48.39V45.856C131.159 45.464 131.103 45.1093 130.991 44.792C130.879 44.4747 130.692 44.2227 130.431 44.036C130.179 43.8493 129.838 43.756 129.409 43.756ZM135.746 43.042V47.326C135.746 47.5967 135.769 47.8767 135.816 48.166C135.863 48.446 135.965 48.6793 136.124 48.866C136.292 49.0527 136.553 49.146 136.908 49.146C137.253 49.146 137.566 49.0713 137.846 48.922C138.135 48.7727 138.369 48.5673 138.546 48.306C138.723 48.0353 138.812 47.7227 138.812 47.368V43.868C138.812 43.8587 138.798 43.7933 138.77 43.672C138.742 43.5413 138.714 43.4107 138.686 43.28C138.658 43.14 138.639 43.0607 138.63 43.042H139.974V48.642C139.974 48.8193 140.002 48.95 140.058 49.034C140.123 49.118 140.221 49.16 140.352 49.16C140.483 49.16 140.66 49.118 140.884 49.034L141.136 49.79C140.949 49.8927 140.739 49.972 140.506 50.028C140.282 50.0933 140.067 50.126 139.862 50.126C139.619 50.126 139.405 50.056 139.218 49.916C139.031 49.776 138.91 49.5287 138.854 49.174C138.583 49.454 138.257 49.692 137.874 49.888C137.501 50.084 137.113 50.182 136.712 50.182C136.199 50.182 135.783 50.0747 135.466 49.86C135.158 49.6453 134.934 49.356 134.794 48.992C134.654 48.6187 134.584 48.1893 134.584 47.704V43.868L134.402 43.042H135.746ZM144.982 42.874C145.542 42.874 146.013 42.9907 146.396 43.224C146.779 43.448 147.063 43.7653 147.25 44.176C147.446 44.5773 147.544 45.0487 147.544 45.59C147.544 45.7207 147.535 45.856 147.516 45.996C147.507 46.1267 147.493 46.2667 147.474 46.416H143.05C143.05 47.3027 143.246 47.9887 143.638 48.474C144.03 48.9593 144.553 49.202 145.206 49.202C145.477 49.202 145.757 49.16 146.046 49.076C146.345 48.992 146.653 48.866 146.97 48.698L147.404 49.398C147.077 49.6593 146.709 49.8553 146.298 49.986C145.887 50.1167 145.472 50.182 145.052 50.182C144.501 50.182 144.021 50.084 143.61 49.888C143.209 49.6827 142.873 49.412 142.602 49.076C142.341 48.7307 142.145 48.3433 142.014 47.914C141.883 47.4847 141.818 47.046 141.818 46.598C141.818 46.1313 141.883 45.6787 142.014 45.24C142.145 44.8013 142.341 44.4047 142.602 44.05C142.873 43.686 143.204 43.4013 143.596 43.196C143.988 42.9813 144.45 42.874 144.982 42.874ZM144.87 43.756C144.553 43.756 144.273 43.8447 144.03 44.022C143.787 44.1993 143.591 44.428 143.442 44.708C143.293 44.9787 143.19 45.2587 143.134 45.548H146.326C146.335 45.156 146.279 44.8293 146.158 44.568C146.046 44.2973 145.878 44.0967 145.654 43.966C145.439 43.826 145.178 43.756 144.87 43.756ZM150.052 42.93C150.117 43.0887 150.173 43.252 150.22 43.42C150.267 43.588 150.299 43.756 150.318 43.924C150.598 43.644 150.929 43.4013 151.312 43.196C151.695 42.9813 152.087 42.874 152.488 42.874C153.001 42.874 153.412 42.9813 153.72 43.196C154.037 43.4107 154.266 43.7047 154.406 44.078C154.546 44.442 154.616 44.8667 154.616 45.352V50H153.468V45.73C153.468 45.4407 153.445 45.156 153.398 44.876C153.361 44.596 153.258 44.3673 153.09 44.19C152.931 44.0033 152.665 43.91 152.292 43.91C152.068 43.91 151.839 43.9567 151.606 44.05C151.373 44.134 151.153 44.246 150.948 44.386C150.743 44.526 150.556 44.6753 150.388 44.834V50H149.24V45.072C149.24 44.8853 149.226 44.6707 149.198 44.428C149.17 44.176 149.123 43.9333 149.058 43.7C148.993 43.4573 148.899 43.2567 148.778 43.098L150.052 42.93ZM159.486 50.182C158.805 50.182 158.231 50.014 157.764 49.678C157.307 49.3327 156.962 48.8847 156.728 48.334C156.504 47.7833 156.392 47.1953 156.392 46.57C156.392 46.1033 156.462 45.6507 156.602 45.212C156.742 44.764 156.948 44.3673 157.218 44.022C157.489 43.6673 157.82 43.3873 158.212 43.182C158.614 42.9767 159.066 42.874 159.57 42.874C160.261 42.874 160.835 43.042 161.292 43.378C161.759 43.714 162.104 44.1573 162.328 44.708C162.562 45.2587 162.678 45.8513 162.678 46.486C162.678 46.962 162.608 47.424 162.468 47.872C162.328 48.3107 162.123 48.7027 161.852 49.048C161.591 49.3933 161.26 49.6687 160.858 49.874C160.466 50.0793 160.009 50.182 159.486 50.182ZM159.5 49.3C159.864 49.3 160.168 49.216 160.41 49.048C160.662 48.8707 160.863 48.642 161.012 48.362C161.171 48.082 161.283 47.7833 161.348 47.466C161.414 47.1393 161.446 46.8267 161.446 46.528C161.446 46.22 161.414 45.9073 161.348 45.59C161.292 45.2633 161.194 44.9647 161.054 44.694C160.914 44.414 160.718 44.19 160.466 44.022C160.224 43.8447 159.92 43.756 159.556 43.756C159.192 43.756 158.884 43.8447 158.632 44.022C158.39 44.19 158.194 44.414 158.044 44.694C157.895 44.974 157.788 45.2773 157.722 45.604C157.657 45.9213 157.624 46.2293 157.624 46.528C157.624 46.8173 157.657 47.1253 157.722 47.452C157.788 47.7693 157.89 48.068 158.03 48.348C158.18 48.628 158.376 48.8567 158.618 49.034C158.861 49.2113 159.155 49.3 159.5 49.3ZM167.516 39.808H170.568C171.24 39.808 171.833 39.9153 172.346 40.13C172.869 40.3353 173.275 40.662 173.564 41.11C173.854 41.558 173.998 42.1507 173.998 42.888C173.998 43.5693 173.844 44.1387 173.536 44.596C173.228 45.0533 172.818 45.3987 172.304 45.632C171.791 45.856 171.217 45.968 170.582 45.968H169.028V50H167.726V40.732L167.516 39.808ZM169.028 40.774V45.016H170.554C171.198 45.016 171.707 44.82 172.08 44.428C172.454 44.036 172.64 43.5227 172.64 42.888C172.64 42.2253 172.463 41.7073 172.108 41.334C171.754 40.9607 171.24 40.774 170.568 40.774H169.028ZM177.779 50.182C177.098 50.182 176.524 50.014 176.057 49.678C175.6 49.3327 175.255 48.8847 175.021 48.334C174.797 47.7833 174.685 47.1953 174.685 46.57C174.685 46.1033 174.755 45.6507 174.895 45.212C175.035 44.764 175.241 44.3673 175.511 44.022C175.782 43.6673 176.113 43.3873 176.505 43.182C176.907 42.9767 177.359 42.874 177.863 42.874C178.554 42.874 179.128 43.042 179.585 43.378C180.052 43.714 180.397 44.1573 180.621 44.708C180.855 45.2587 180.971 45.8513 180.971 46.486C180.971 46.962 180.901 47.424 180.761 47.872C180.621 48.3107 180.416 48.7027 180.145 49.048C179.884 49.3933 179.553 49.6687 179.151 49.874C178.759 50.0793 178.302 50.182 177.779 50.182ZM177.793 49.3C178.157 49.3 178.461 49.216 178.703 49.048C178.955 48.8707 179.156 48.642 179.305 48.362C179.464 48.082 179.576 47.7833 179.641 47.466C179.707 47.1393 179.739 46.8267 179.739 46.528C179.739 46.22 179.707 45.9073 179.641 45.59C179.585 45.2633 179.487 44.9647 179.347 44.694C179.207 44.414 179.011 44.19 178.759 44.022C178.517 43.8447 178.213 43.756 177.849 43.756C177.485 43.756 177.177 43.8447 176.925 44.022C176.683 44.19 176.487 44.414 176.337 44.694C176.188 44.974 176.081 45.2773 176.015 45.604C175.95 45.9213 175.917 46.2293 175.917 46.528C175.917 46.8173 175.95 47.1253 176.015 47.452C176.081 47.7693 176.183 48.068 176.323 48.348C176.473 48.628 176.669 48.8567 176.911 49.034C177.154 49.2113 177.448 49.3 177.793 49.3ZM183.439 42.916C183.607 43.3267 183.714 43.7607 183.761 44.218C184.004 43.8353 184.33 43.5227 184.741 43.28C185.152 43.0373 185.586 42.916 186.043 42.916L185.763 44.148C185.315 44.148 184.932 44.2647 184.615 44.498C184.307 44.7313 184.032 45.0253 183.789 45.38V50H182.627V44.96C182.627 44.7733 182.613 44.5633 182.585 44.33C182.557 44.0967 182.51 43.868 182.445 43.644C182.38 43.42 182.291 43.2287 182.179 43.07L183.439 42.916ZM189.405 41.054C189.34 41.3713 189.279 41.7027 189.223 42.048C189.177 42.384 189.144 42.7153 189.125 43.042H190.945L190.707 43.924H189.125V48.376C189.125 48.5533 189.144 48.712 189.181 48.852C189.228 48.9827 189.303 49.0853 189.405 49.16C189.517 49.2253 189.671 49.258 189.867 49.258C190.017 49.258 190.166 49.244 190.315 49.216C190.465 49.188 190.609 49.1553 190.749 49.118L190.945 49.902C190.712 49.9673 190.488 50.0233 190.273 50.07C190.068 50.126 189.83 50.154 189.559 50.154C188.962 50.154 188.547 49.9953 188.313 49.678C188.08 49.3607 187.963 48.9173 187.963 48.348V43.924H186.927V43.224C187.207 43.2147 187.441 43.14 187.627 43C187.814 42.86 187.968 42.6827 188.089 42.468C188.211 42.244 188.309 42.0107 188.383 41.768C188.458 41.516 188.514 41.278 188.551 41.054H189.405ZM194.802 42.874C195.362 42.874 195.834 42.9907 196.216 43.224C196.599 43.448 196.884 43.7653 197.07 44.176C197.266 44.5773 197.364 45.0487 197.364 45.59C197.364 45.7207 197.355 45.856 197.336 45.996C197.327 46.1267 197.313 46.2667 197.294 46.416H192.87C192.87 47.3027 193.066 47.9887 193.458 48.474C193.85 48.9593 194.373 49.202 195.026 49.202C195.297 49.202 195.577 49.16 195.866 49.076C196.165 48.992 196.473 48.866 196.79 48.698L197.224 49.398C196.898 49.6593 196.529 49.8553 196.118 49.986C195.708 50.1167 195.292 50.182 194.872 50.182C194.322 50.182 193.841 50.084 193.43 49.888C193.029 49.6827 192.693 49.412 192.422 49.076C192.161 48.7307 191.965 48.3433 191.834 47.914C191.704 47.4847 191.638 47.046 191.638 46.598C191.638 46.1313 191.704 45.6787 191.834 45.24C191.965 44.8013 192.161 44.4047 192.422 44.05C192.693 43.686 193.024 43.4013 193.416 43.196C193.808 42.9813 194.27 42.874 194.802 42.874ZM194.69 43.756C194.373 43.756 194.093 43.8447 193.85 44.022C193.608 44.1993 193.412 44.428 193.262 44.708C193.113 44.9787 193.01 45.2587 192.954 45.548H196.146C196.156 45.156 196.1 44.8293 195.978 44.568C195.866 44.2973 195.698 44.0967 195.474 43.966C195.26 43.826 194.998 43.756 194.69 43.756Z" fill="black"/>
</svg>
