<svg width="329" height="103" viewBox="0 0 329 103" fill="none" xmlns="http://www.w3.org/2000/svg">
<line x1="72.998" y1="24.5" x2="328.998" y2="23.5" stroke="black"/>
<path d="M110.5 0L113.082 6.21885H121.437L114.678 10.0623L117.26 16.2812L110.5 12.4377L103.74 16.2812L106.322 10.0623L99.5628 6.21885H107.918L110.5 0Z" fill="#F7A43C"/>
<path d="M133.5 0L136.082 6.21885H144.437L137.678 10.0623L140.26 16.2812L133.5 12.4377L126.74 16.2812L129.322 10.0623L122.563 6.21885H130.918L133.5 0Z" fill="#F7A43C"/>
<path d="M156.5 0L159.082 6.21885H167.437L160.678 10.0623L163.26 16.2812L156.5 12.4377L149.74 16.2812L152.322 10.0623L145.563 6.21885H153.918L156.5 0Z" fill="#F7A43C"/>
<path d="M202.5 0L205.082 6.21885H213.437L206.678 10.0623L209.26 16.2812L202.5 12.4377L195.74 16.2812L198.322 10.0623L191.563 6.21885H199.918L202.5 0Z" fill="#F7A43C"/>
<path d="M179.5 0L182.082 6.21885H190.437L183.678 10.0623L186.26 16.2812L179.5 12.4377L172.74 16.2812L175.322 10.0623L168.563 6.21885H176.918L179.5 0Z" fill="#F7A43C"/>
<path d="M81.0686 5.566H77.9046V8.296C78.4366 7.86667 79.0713 7.652 79.8086 7.652C80.4526 7.652 80.9333 7.84333 81.2506 8.226C81.5773 8.59933 81.7406 9.20133 81.7406 10.032V10.536C81.7406 12.2907 80.8306 13.168 79.0106 13.168C78.684 13.168 78.3246 13.1353 77.9326 13.07C77.5406 13.014 77.1953 12.944 76.8966 12.86V11.894C77.1673 11.95 77.5266 12.0107 77.9746 12.076C78.4226 12.132 78.7586 12.16 78.9826 12.16C79.496 12.16 79.8833 12.0247 80.1446 11.754C80.4153 11.474 80.5506 11.068 80.5506 10.536V9.99C80.5506 9.094 80.2053 8.646 79.5146 8.646C79.1413 8.646 78.81 8.716 78.5206 8.856C78.2406 8.996 77.956 9.22933 77.6666 9.556H76.7566V4.544H81.0686V5.566ZM83.6536 11.46C84.1856 11.46 84.4516 11.6793 84.4516 12.118V12.524C84.4516 12.7293 84.3816 12.888 84.2416 13C84.1109 13.112 83.9149 13.168 83.6536 13.168C83.4016 13.168 83.2056 13.112 83.0656 13C82.9349 12.888 82.8696 12.7293 82.8696 12.524V12.118C82.8696 11.9033 82.9349 11.74 83.0656 11.628C83.2056 11.516 83.4016 11.46 83.6536 11.46ZM88.4434 4.418C89.2834 4.418 89.9227 4.66067 90.3614 5.146C90.8094 5.622 91.0334 6.336 91.0334 7.288V10.298C91.0334 11.25 90.8094 11.9687 90.3614 12.454C89.9227 12.93 89.2834 13.168 88.4434 13.168C87.6034 13.168 86.9594 12.93 86.5114 12.454C86.0727 11.9687 85.8534 11.25 85.8534 10.298V7.288C85.8534 6.336 86.0727 5.622 86.5114 5.146C86.9594 4.66067 87.6034 4.418 88.4434 4.418ZM88.4434 5.426C87.51 5.426 87.0434 6.00933 87.0434 7.176V10.41C87.0434 11.5767 87.51 12.16 88.4434 12.16C89.3767 12.16 89.8434 11.5767 89.8434 10.41V7.176C89.8434 6.00933 89.3767 5.426 88.4434 5.426Z" fill="#D81111"/>
<line x1="75" y1="15.5" x2="93" y2="15.5" stroke="#D81111"/>
<path d="M85.8753 92L82.6704 86.7711H79.2969V92H76.4295V78.241H83.2969C84.9355 78.241 86.1965 78.5944 87.0801 79.3012C87.9797 80.008 88.4295 81.0201 88.4295 82.3373C88.4295 83.3012 88.1564 84.1365 87.6102 84.8434C87.064 85.5341 86.3251 85.992 85.3933 86.2169L89.1042 92H85.8753ZM85.5379 82.4578C85.5379 81.1406 84.6865 80.4819 82.9837 80.4819H79.2969V84.5301H83.0801C83.8833 84.5301 84.4937 84.3534 84.9114 84C85.3291 83.6305 85.5379 83.1165 85.5379 82.4578ZM100.357 87.9759C100.357 89.1486 99.9554 90.0643 99.1522 90.7229C98.3651 91.3655 97.2004 91.7189 95.6583 91.7831V93.494H94.598V91.8072C93.2004 91.759 92.108 91.4297 91.3209 90.8193C90.5338 90.2088 90.0197 89.2771 89.7787 88.0241L92.2848 87.5663C92.4133 88.3052 92.6542 88.8434 93.0076 89.1807C93.3771 89.5181 93.9072 89.7189 94.598 89.7831V85.9759C94.5819 85.9598 94.5338 85.9438 94.4534 85.9277C94.3731 85.9116 94.3169 85.9036 94.2848 85.9036C93.2245 85.6627 92.4293 85.3815 91.8992 85.0602C91.3691 84.7229 90.9514 84.3052 90.6462 83.8072C90.357 83.2932 90.2125 82.6747 90.2125 81.9518C90.2125 80.8755 90.5819 80.0402 91.3209 79.4458C92.0759 78.8514 93.1683 78.5221 94.598 78.4578V77.1566H95.6583V78.4578C96.5097 78.49 97.2165 78.6265 97.7787 78.8675C98.357 79.1084 98.8149 79.4618 99.1522 79.9277C99.5056 80.3775 99.7948 81.0281 100.02 81.8795L97.4414 82.2651C97.345 81.7028 97.1522 81.2691 96.8631 80.9639C96.5739 80.6426 96.1723 80.4498 95.6583 80.3855V83.8072L95.7546 83.8313C95.9474 83.8313 96.5257 83.992 97.4896 84.3133C98.4534 84.6185 99.1683 85.0763 99.6342 85.6867C100.116 86.2972 100.357 87.0602 100.357 87.9759ZM94.598 80.3373C93.3932 80.4337 92.7827 80.9558 92.7667 81.9036C92.7667 82.1928 92.8149 82.4337 92.9113 82.6265C93.0237 82.8032 93.1763 82.9558 93.3691 83.0843C93.5619 83.2129 93.9715 83.3815 94.598 83.5904V80.3373ZM97.8028 88.0241C97.8028 87.7028 97.7466 87.4378 97.6342 87.2289C97.5217 87.0201 97.353 86.8514 97.1281 86.7229C96.9032 86.5944 96.4133 86.4177 95.6583 86.1928V89.7831C97.088 89.6867 97.8028 89.1004 97.8028 88.0241ZM116.426 88.1205C116.426 89.4056 116 90.4096 115.149 91.1325C114.297 91.8394 113.077 92.1928 111.486 92.1928C109.912 92.1928 108.691 91.8394 107.824 91.1325C106.972 90.4257 106.546 89.4297 106.546 88.1446C106.546 87.261 106.803 86.5221 107.318 85.9277C107.832 85.3173 108.514 84.9398 109.366 84.7952V84.7711C108.627 84.6104 108.024 84.241 107.558 83.6627C107.109 83.0843 106.884 82.4257 106.884 81.6867C106.884 80.5622 107.277 79.6707 108.065 79.012C108.868 78.3534 110 78.0241 111.462 78.0241C112.956 78.0241 114.097 78.3454 114.884 78.988C115.687 79.6145 116.089 80.5141 116.089 81.6867C116.089 82.4418 115.864 83.1084 115.414 83.6867C114.964 84.249 114.354 84.6024 113.583 84.747V84.7952C114.466 84.9398 115.157 85.3012 115.655 85.8795C116.169 86.4578 116.426 87.2048 116.426 88.1205ZM113.269 81.8554C113.269 81.1968 113.117 80.7149 112.811 80.4096C112.506 80.1044 112.056 79.9518 111.462 79.9518C110.273 79.9518 109.679 80.5863 109.679 81.8554C109.679 83.1727 110.281 83.8233 111.486 83.8072C112.081 83.8072 112.522 83.6627 112.811 83.3735C113.117 83.0683 113.269 82.5622 113.269 81.8554ZM113.583 87.9036C113.583 86.4578 112.868 85.7349 111.438 85.7349C110.779 85.7349 110.265 85.9277 109.896 86.3133C109.542 86.6827 109.366 87.2209 109.366 87.9277C109.366 88.7309 109.542 89.3253 109.896 89.7108C110.249 90.0803 110.787 90.2651 111.51 90.2651C112.217 90.2651 112.739 90.0803 113.077 89.7108C113.414 89.3414 113.583 88.739 113.583 87.9036ZM127.419 84.8916C127.419 87.3333 126.969 89.1647 126.069 90.3855C125.186 91.5904 123.925 92.1928 122.286 92.1928C121.081 92.1928 120.134 91.9357 119.443 91.4217C118.752 90.9076 118.262 90.0884 117.973 88.9639L120.551 88.6024C120.808 89.5663 121.395 90.0482 122.31 90.0482C123.081 90.0482 123.668 89.6787 124.069 88.9398C124.487 88.2008 124.704 87.1084 124.72 85.6627C124.479 86.1446 124.069 86.5301 123.491 86.8193C122.929 87.0924 122.326 87.2289 121.684 87.2289C120.479 87.2289 119.515 86.8193 118.792 86C118.085 85.1647 117.732 84.0482 117.732 82.6506C117.732 81.2048 118.15 80.0723 118.985 79.253C119.82 78.4337 121.001 78.0241 122.527 78.0241C124.182 78.0241 125.411 78.5944 126.214 79.7349C127.017 80.8755 127.419 82.5944 127.419 84.8916ZM124.503 82.988C124.503 82.1365 124.318 81.4618 123.949 80.9639C123.579 80.4498 123.081 80.1928 122.455 80.1928C121.844 80.1928 121.363 80.4096 121.009 80.8434C120.672 81.2771 120.503 81.8875 120.503 82.6747C120.503 83.4297 120.672 84.0402 121.009 84.506C121.363 84.9558 121.852 85.1807 122.479 85.1807C123.057 85.1807 123.539 84.988 123.925 84.6024C124.31 84.2008 124.503 83.6627 124.503 82.988ZM132.363 91.3494C132.363 92.1365 132.275 92.8273 132.098 93.4217C131.938 94.0161 131.673 94.5703 131.303 95.0843H129.496C129.881 94.6185 130.195 94.1124 130.436 93.5663C130.677 93.0201 130.797 92.498 130.797 92H129.544V89.012H132.363V91.3494ZM144.007 85.1084C144.007 87.4378 143.605 89.2048 142.802 90.4096C141.999 91.5984 140.802 92.1928 139.211 92.1928C136.063 92.1928 134.489 89.8313 134.489 85.1084C134.489 83.4538 134.657 82.1124 134.995 81.0843C135.348 80.0402 135.87 79.2691 136.561 78.7711C137.252 78.2731 138.159 78.0241 139.284 78.0241C140.906 78.0241 142.095 78.6185 142.85 79.8072C143.621 80.9799 144.007 82.747 144.007 85.1084ZM141.236 85.1084C141.236 83.8394 141.171 82.8594 141.043 82.1687C140.93 81.4618 140.738 80.9558 140.464 80.6506C140.191 80.3454 139.79 80.1928 139.26 80.1928C138.713 80.1928 138.296 80.3454 138.007 80.6506C137.734 80.9558 137.533 81.4618 137.404 82.1687C137.292 82.8594 137.236 83.8394 137.236 85.1084C137.236 86.3614 137.3 87.3414 137.428 88.0482C137.557 88.755 137.758 89.2691 138.031 89.5904C138.304 89.8956 138.705 90.0482 139.236 90.0482C139.75 90.0482 140.143 89.8876 140.416 89.5663C140.705 89.2289 140.914 88.7068 141.043 88C141.171 87.2932 141.236 86.3293 141.236 85.1084ZM155.12 85.1084C155.12 87.4378 154.718 89.2048 153.915 90.4096C153.112 91.5984 151.915 92.1928 150.325 92.1928C147.176 92.1928 145.602 89.8313 145.602 85.1084C145.602 83.4538 145.77 82.1124 146.108 81.0843C146.461 80.0402 146.983 79.2691 147.674 78.7711C148.365 78.2731 149.273 78.0241 150.397 78.0241C152.019 78.0241 153.208 78.6185 153.963 79.8072C154.734 80.9799 155.12 82.747 155.12 85.1084ZM152.349 85.1084C152.349 83.8394 152.285 82.8594 152.156 82.1687C152.044 81.4618 151.851 80.9558 151.578 80.6506C151.305 80.3454 150.903 80.1928 150.373 80.1928C149.827 80.1928 149.409 80.3454 149.12 80.6506C148.847 80.9558 148.646 81.4618 148.517 82.1687C148.405 82.8594 148.349 83.8394 148.349 85.1084C148.349 86.3614 148.413 87.3414 148.542 88.0482C148.67 88.755 148.871 89.2691 149.144 89.5904C149.417 89.8956 149.819 90.0482 150.349 90.0482C150.863 90.0482 151.256 89.8876 151.53 89.5663C151.819 89.2289 152.028 88.7068 152.156 88C152.285 87.2932 152.349 86.3293 152.349 85.1084Z" fill="#D81111"/>
<path d="M82.8416 42.174C82.8416 42.5193 82.7716 42.8553 82.6316 43.182C82.5009 43.4993 82.3049 43.7747 82.0436 44.008C81.7916 44.232 81.4836 44.3767 81.1196 44.442C81.5862 44.5073 81.9782 44.6707 82.2956 44.932C82.6222 45.184 82.8696 45.5013 83.0376 45.884C83.2149 46.2667 83.3036 46.6867 83.3036 47.144C83.3036 47.7507 83.1916 48.2453 82.9676 48.628C82.7436 49.0013 82.4402 49.2907 82.0576 49.496C81.6749 49.692 81.2456 49.8273 80.7696 49.902C80.2936 49.9673 79.8082 50 79.3136 50H76.5416V40.732C76.5416 40.7227 76.5229 40.648 76.4856 40.508C76.4576 40.368 76.4296 40.2233 76.4016 40.074C76.3736 39.9247 76.3549 39.836 76.3456 39.808H79.7476C80.1489 39.808 80.5316 39.8453 80.8956 39.92C81.2689 39.9853 81.6002 40.1067 81.8896 40.284C82.1882 40.4613 82.4216 40.704 82.5896 41.012C82.7576 41.3107 82.8416 41.698 82.8416 42.174ZM81.4836 42.202C81.4836 41.8287 81.3996 41.5393 81.2316 41.334C81.0729 41.1287 80.8582 40.984 80.5876 40.9C80.3169 40.816 80.0229 40.774 79.7056 40.774H77.8436V44.022H79.3416C79.7802 44.022 80.1582 43.966 80.4756 43.854C80.7929 43.742 81.0402 43.5553 81.2176 43.294C81.3949 43.0233 81.4836 42.6593 81.4836 42.202ZM81.9176 46.934C81.9176 46.458 81.7916 46.08 81.5396 45.8C81.2969 45.5107 80.9796 45.3053 80.5876 45.184C80.2049 45.0533 79.8082 44.988 79.3976 44.988H77.8436V49.034H79.3976C79.8922 49.034 80.3262 48.978 80.6996 48.866C81.0822 48.7447 81.3809 48.53 81.5956 48.222C81.8102 47.914 81.9176 47.4847 81.9176 46.934ZM87.4932 42.874C88.2305 42.874 88.7858 43.0747 89.1592 43.476C89.5325 43.8773 89.7192 44.442 89.7192 45.17V48.656C89.7192 48.852 89.7565 48.9873 89.8312 49.062C89.9058 49.1273 89.9945 49.16 90.0972 49.16C90.1812 49.16 90.2698 49.1507 90.3632 49.132C90.4565 49.104 90.5452 49.0713 90.6292 49.034L90.8812 49.79C90.7318 49.874 90.5405 49.9487 90.3072 50.014C90.0832 50.0887 89.8498 50.126 89.6072 50.126C89.3645 50.126 89.1452 50.0607 88.9492 49.93C88.7532 49.79 88.6318 49.538 88.5852 49.174C88.3145 49.4633 87.9972 49.7013 87.6332 49.888C87.2692 50.0653 86.8865 50.154 86.4852 50.154C85.9345 50.154 85.4772 49.9907 85.1132 49.664C84.7492 49.3373 84.5672 48.8893 84.5672 48.32C84.5672 47.788 84.6932 47.3633 84.9452 47.046C85.2065 46.7287 85.5425 46.4907 85.9532 46.332C86.3638 46.1733 86.7978 46.066 87.2552 46.01C87.7218 45.954 88.1558 45.926 88.5572 45.926V45.184C88.5572 44.9227 88.5245 44.6893 88.4592 44.484C88.3938 44.2693 88.2772 44.1013 88.1092 43.98C87.9412 43.8493 87.7032 43.784 87.3952 43.784C87.0405 43.784 86.6998 43.854 86.3732 43.994C86.0465 44.134 85.7198 44.3393 85.3932 44.61L84.8192 43.784C85.2018 43.476 85.6218 43.2473 86.0792 43.098C86.5365 42.9487 87.0078 42.874 87.4932 42.874ZM88.5572 46.836C88.3052 46.836 88.0205 46.85 87.7032 46.878C87.3858 46.8967 87.0778 46.9527 86.7792 47.046C86.4805 47.13 86.2332 47.27 86.0372 47.466C85.8505 47.662 85.7572 47.9327 85.7572 48.278C85.7572 48.586 85.8598 48.8147 86.0652 48.964C86.2798 49.104 86.5458 49.174 86.8632 49.174C87.1992 49.174 87.4932 49.0807 87.7452 48.894C87.9972 48.7073 88.1932 48.4693 88.3332 48.18C88.4825 47.8907 88.5572 47.592 88.5572 47.284V46.836ZM92.8011 42.93C92.8665 43.0887 92.9225 43.252 92.9691 43.42C93.0158 43.588 93.0485 43.756 93.0671 43.924C93.3471 43.644 93.6785 43.4013 94.0611 43.196C94.4438 42.9813 94.8358 42.874 95.2371 42.874C95.7505 42.874 96.1611 42.9813 96.4691 43.196C96.7865 43.4107 97.0151 43.7047 97.1551 44.078C97.2951 44.442 97.3651 44.8667 97.3651 45.352V50H96.2171V45.73C96.2171 45.4407 96.1938 45.156 96.1471 44.876C96.1098 44.596 96.0071 44.3673 95.8391 44.19C95.6805 44.0033 95.4145 43.91 95.0411 43.91C94.8171 43.91 94.5885 43.9567 94.3551 44.05C94.1218 44.134 93.9025 44.246 93.6971 44.386C93.4918 44.526 93.3051 44.6753 93.1371 44.834V50H91.9891V45.072C91.9891 44.8853 91.9751 44.6707 91.9471 44.428C91.9191 44.176 91.8725 43.9333 91.8071 43.7C91.7418 43.4573 91.6485 43.2567 91.5271 43.098L92.8011 42.93ZM100.821 39.332V43.868C101.12 43.588 101.442 43.35 101.787 43.154C102.133 42.958 102.515 42.86 102.935 42.86C103.449 42.86 103.859 42.9673 104.167 43.182C104.475 43.3967 104.699 43.6907 104.839 44.064C104.979 44.428 105.049 44.8527 105.049 45.338V50H103.901V45.716C103.901 45.4267 103.878 45.1467 103.831 44.876C103.794 44.596 103.696 44.3627 103.537 44.176C103.379 43.9893 103.113 43.896 102.739 43.896C102.506 43.896 102.273 43.9427 102.039 44.036C101.815 44.1293 101.601 44.246 101.395 44.386C101.19 44.526 100.999 44.6707 100.821 44.82V50H99.6734V40.158L99.4914 39.332H100.821ZM109.892 50.182C109.21 50.182 108.636 50.014 108.17 49.678C107.712 49.3327 107.367 48.8847 107.134 48.334C106.91 47.7833 106.798 47.1953 106.798 46.57C106.798 46.1033 106.868 45.6507 107.008 45.212C107.148 44.764 107.353 44.3673 107.624 44.022C107.894 43.6673 108.226 43.3873 108.618 43.182C109.019 42.9767 109.472 42.874 109.976 42.874C110.666 42.874 111.24 43.042 111.698 43.378C112.164 43.714 112.51 44.1573 112.734 44.708C112.967 45.2587 113.084 45.8513 113.084 46.486C113.084 46.962 113.014 47.424 112.874 47.872C112.734 48.3107 112.528 48.7027 112.258 49.048C111.996 49.3933 111.665 49.6687 111.264 49.874C110.872 50.0793 110.414 50.182 109.892 50.182ZM109.906 49.3C110.27 49.3 110.573 49.216 110.816 49.048C111.068 48.8707 111.268 48.642 111.418 48.362C111.576 48.082 111.688 47.7833 111.754 47.466C111.819 47.1393 111.852 46.8267 111.852 46.528C111.852 46.22 111.819 45.9073 111.754 45.59C111.698 45.2633 111.6 44.9647 111.46 44.694C111.32 44.414 111.124 44.19 110.872 44.022C110.629 43.8447 110.326 43.756 109.962 43.756C109.598 43.756 109.29 43.8447 109.038 44.022C108.795 44.19 108.599 44.414 108.45 44.694C108.3 44.974 108.193 45.2773 108.128 45.604C108.062 45.9213 108.03 46.2293 108.03 46.528C108.03 46.8173 108.062 47.1253 108.128 47.452C108.193 47.7693 108.296 48.068 108.436 48.348C108.585 48.628 108.781 48.8567 109.024 49.034C109.266 49.2113 109.56 49.3 109.906 49.3ZM117.922 39.808H120.974C121.646 39.808 122.238 39.9153 122.752 40.13C123.274 40.3353 123.68 40.662 123.97 41.11C124.259 41.558 124.404 42.1507 124.404 42.888C124.404 43.5693 124.25 44.1387 123.942 44.596C123.634 45.0533 123.223 45.3987 122.71 45.632C122.196 45.856 121.622 45.968 120.988 45.968H119.434V50H118.132V40.732L117.922 39.808ZM119.434 40.774V45.016H120.96C121.604 45.016 122.112 44.82 122.486 44.428C122.859 44.036 123.046 43.5227 123.046 42.888C123.046 42.2253 122.868 41.7073 122.514 41.334C122.159 40.9607 121.646 40.774 120.974 40.774H119.434ZM128.255 42.874C128.815 42.874 129.286 42.9907 129.669 43.224C130.051 43.448 130.336 43.7653 130.523 44.176C130.719 44.5773 130.817 45.0487 130.817 45.59C130.817 45.7207 130.807 45.856 130.789 45.996C130.779 46.1267 130.765 46.2667 130.747 46.416H126.323C126.323 47.3027 126.519 47.9887 126.911 48.474C127.303 48.9593 127.825 49.202 128.479 49.202C128.749 49.202 129.029 49.16 129.319 49.076C129.617 48.992 129.925 48.866 130.243 48.698L130.677 49.398C130.35 49.6593 129.981 49.8553 129.571 49.986C129.16 50.1167 128.745 50.182 128.325 50.182C127.774 50.182 127.293 50.084 126.883 49.888C126.481 49.6827 126.145 49.412 125.875 49.076C125.613 48.7307 125.417 48.3433 125.287 47.914C125.156 47.4847 125.091 47.046 125.091 46.598C125.091 46.1313 125.156 45.6787 125.287 45.24C125.417 44.8013 125.613 44.4047 125.875 44.05C126.145 43.686 126.477 43.4013 126.869 43.196C127.261 42.9813 127.723 42.874 128.255 42.874ZM128.143 43.756C127.825 43.756 127.545 43.8447 127.303 44.022C127.06 44.1993 126.864 44.428 126.715 44.708C126.565 44.9787 126.463 45.2587 126.407 45.548H129.599C129.608 45.156 129.552 44.8293 129.431 44.568C129.319 44.2973 129.151 44.0967 128.927 43.966C128.712 43.826 128.451 43.756 128.143 43.756ZM135.061 42.874C135.453 42.874 135.831 42.9487 136.195 43.098C136.559 43.2473 136.867 43.476 137.119 43.784L137.371 43.042H138.071C138.061 43.2007 138.052 43.364 138.043 43.532C138.033 43.6907 138.029 43.8493 138.029 44.008V52.198C138.029 52.2073 138.043 52.2727 138.071 52.394C138.099 52.5247 138.127 52.6553 138.155 52.786C138.192 52.9167 138.211 52.996 138.211 53.024H136.867V50.392C136.867 50.28 136.867 50.1633 136.867 50.042C136.876 49.93 136.881 49.818 136.881 49.706C136.89 49.594 136.899 49.482 136.909 49.37C136.619 49.6407 136.316 49.8413 135.999 49.972C135.681 50.1027 135.317 50.168 134.907 50.168C134.421 50.168 133.997 50.0653 133.633 49.86C133.269 49.6453 132.965 49.3653 132.723 49.02C132.489 48.6653 132.312 48.278 132.191 47.858C132.069 47.4287 132.009 46.9993 132.009 46.57C132.009 46.094 132.069 45.6367 132.191 45.198C132.312 44.7593 132.499 44.3673 132.751 44.022C133.003 43.6673 133.32 43.3873 133.703 43.182C134.085 42.9767 134.538 42.874 135.061 42.874ZM135.117 43.756C134.771 43.756 134.477 43.8493 134.235 44.036C133.992 44.2133 133.801 44.442 133.661 44.722C133.521 45.002 133.418 45.3053 133.353 45.632C133.287 45.9493 133.255 46.248 133.255 46.528C133.255 46.836 133.287 47.144 133.353 47.452C133.427 47.76 133.539 48.0447 133.689 48.306C133.847 48.558 134.048 48.7633 134.291 48.922C134.543 49.0807 134.846 49.16 135.201 49.16C135.499 49.16 135.803 49.09 136.111 48.95C136.419 48.81 136.671 48.6233 136.867 48.39V45.856C136.867 45.464 136.811 45.1093 136.699 44.792C136.587 44.4747 136.4 44.2227 136.139 44.036C135.887 43.8493 135.546 43.756 135.117 43.756ZM141.454 43.042V47.326C141.454 47.5967 141.477 47.8767 141.524 48.166C141.571 48.446 141.673 48.6793 141.832 48.866C142 49.0527 142.261 49.146 142.616 49.146C142.961 49.146 143.274 49.0713 143.554 48.922C143.843 48.7727 144.077 48.5673 144.254 48.306C144.431 48.0353 144.52 47.7227 144.52 47.368V43.868C144.52 43.8587 144.506 43.7933 144.478 43.672C144.45 43.5413 144.422 43.4107 144.394 43.28C144.366 43.14 144.347 43.0607 144.338 43.042H145.682V48.642C145.682 48.8193 145.71 48.95 145.766 49.034C145.831 49.118 145.929 49.16 146.06 49.16C146.191 49.16 146.368 49.118 146.592 49.034L146.844 49.79C146.657 49.8927 146.447 49.972 146.214 50.028C145.99 50.0933 145.775 50.126 145.57 50.126C145.327 50.126 145.113 50.056 144.926 49.916C144.739 49.776 144.618 49.5287 144.562 49.174C144.291 49.454 143.965 49.692 143.582 49.888C143.209 50.084 142.821 50.182 142.42 50.182C141.907 50.182 141.491 50.0747 141.174 49.86C140.866 49.6453 140.642 49.356 140.502 48.992C140.362 48.6187 140.292 48.1893 140.292 47.704V43.868L140.11 43.042H141.454ZM150.69 42.874C151.25 42.874 151.721 42.9907 152.104 43.224C152.487 43.448 152.771 43.7653 152.958 44.176C153.154 44.5773 153.252 45.0487 153.252 45.59C153.252 45.7207 153.243 45.856 153.224 45.996C153.215 46.1267 153.201 46.2667 153.182 46.416H148.758C148.758 47.3027 148.954 47.9887 149.346 48.474C149.738 48.9593 150.261 49.202 150.914 49.202C151.185 49.202 151.465 49.16 151.754 49.076C152.053 48.992 152.361 48.866 152.678 48.698L153.112 49.398C152.785 49.6593 152.417 49.8553 152.006 49.986C151.595 50.1167 151.18 50.182 150.76 50.182C150.209 50.182 149.729 50.084 149.318 49.888C148.917 49.6827 148.581 49.412 148.31 49.076C148.049 48.7307 147.853 48.3433 147.722 47.914C147.591 47.4847 147.526 47.046 147.526 46.598C147.526 46.1313 147.591 45.6787 147.722 45.24C147.853 44.8013 148.049 44.4047 148.31 44.05C148.581 43.686 148.912 43.4013 149.304 43.196C149.696 42.9813 150.158 42.874 150.69 42.874ZM150.578 43.756C150.261 43.756 149.981 43.8447 149.738 44.022C149.495 44.1993 149.299 44.428 149.15 44.708C149.001 44.9787 148.898 45.2587 148.842 45.548H152.034C152.043 45.156 151.987 44.8293 151.866 44.568C151.754 44.2973 151.586 44.0967 151.362 43.966C151.147 43.826 150.886 43.756 150.578 43.756ZM155.76 42.93C155.825 43.0887 155.881 43.252 155.928 43.42C155.975 43.588 156.007 43.756 156.026 43.924C156.306 43.644 156.637 43.4013 157.02 43.196C157.403 42.9813 157.795 42.874 158.196 42.874C158.709 42.874 159.12 42.9813 159.428 43.196C159.745 43.4107 159.974 43.7047 160.114 44.078C160.254 44.442 160.324 44.8667 160.324 45.352V50H159.176V45.73C159.176 45.4407 159.153 45.156 159.106 44.876C159.069 44.596 158.966 44.3673 158.798 44.19C158.639 44.0033 158.373 43.91 158 43.91C157.776 43.91 157.547 43.9567 157.314 44.05C157.081 44.134 156.861 44.246 156.656 44.386C156.451 44.526 156.264 44.6753 156.096 44.834V50H154.948V45.072C154.948 44.8853 154.934 44.6707 154.906 44.428C154.878 44.176 154.831 43.9333 154.766 43.7C154.701 43.4573 154.607 43.2567 154.486 43.098L155.76 42.93ZM165.194 50.182C164.513 50.182 163.939 50.014 163.472 49.678C163.015 49.3327 162.67 48.8847 162.436 48.334C162.212 47.7833 162.1 47.1953 162.1 46.57C162.1 46.1033 162.17 45.6507 162.31 45.212C162.45 44.764 162.656 44.3673 162.926 44.022C163.197 43.6673 163.528 43.3873 163.92 43.182C164.322 42.9767 164.774 42.874 165.278 42.874C165.969 42.874 166.543 43.042 167 43.378C167.467 43.714 167.812 44.1573 168.036 44.708C168.27 45.2587 168.386 45.8513 168.386 46.486C168.386 46.962 168.316 47.424 168.176 47.872C168.036 48.3107 167.831 48.7027 167.56 49.048C167.299 49.3933 166.968 49.6687 166.566 49.874C166.174 50.0793 165.717 50.182 165.194 50.182ZM165.208 49.3C165.572 49.3 165.876 49.216 166.118 49.048C166.37 48.8707 166.571 48.642 166.72 48.362C166.879 48.082 166.991 47.7833 167.056 47.466C167.122 47.1393 167.154 46.8267 167.154 46.528C167.154 46.22 167.122 45.9073 167.056 45.59C167 45.2633 166.902 44.9647 166.762 44.694C166.622 44.414 166.426 44.19 166.174 44.022C165.932 43.8447 165.628 43.756 165.264 43.756C164.9 43.756 164.592 43.8447 164.34 44.022C164.098 44.19 163.902 44.414 163.752 44.694C163.603 44.974 163.496 45.2773 163.43 45.604C163.365 45.9213 163.332 46.2293 163.332 46.528C163.332 46.8173 163.365 47.1253 163.43 47.452C163.496 47.7693 163.598 48.068 163.738 48.348C163.888 48.628 164.084 48.8567 164.326 49.034C164.569 49.2113 164.863 49.3 165.208 49.3ZM173.224 39.808H176.276C176.948 39.808 177.541 39.9153 178.054 40.13C178.577 40.3353 178.983 40.662 179.272 41.11C179.562 41.558 179.706 42.1507 179.706 42.888C179.706 43.5693 179.552 44.1387 179.244 44.596C178.936 45.0533 178.526 45.3987 178.012 45.632C177.499 45.856 176.925 45.968 176.29 45.968H174.736V50H173.434V40.732L173.224 39.808ZM174.736 40.774V45.016H176.262C176.906 45.016 177.415 44.82 177.788 44.428C178.162 44.036 178.348 43.5227 178.348 42.888C178.348 42.2253 178.171 41.7073 177.816 41.334C177.462 40.9607 176.948 40.774 176.276 40.774H174.736ZM183.487 50.182C182.806 50.182 182.232 50.014 181.765 49.678C181.308 49.3327 180.963 48.8847 180.729 48.334C180.505 47.7833 180.393 47.1953 180.393 46.57C180.393 46.1033 180.463 45.6507 180.603 45.212C180.743 44.764 180.949 44.3673 181.219 44.022C181.49 43.6673 181.821 43.3873 182.213 43.182C182.615 42.9767 183.067 42.874 183.571 42.874C184.262 42.874 184.836 43.042 185.293 43.378C185.76 43.714 186.105 44.1573 186.329 44.708C186.563 45.2587 186.679 45.8513 186.679 46.486C186.679 46.962 186.609 47.424 186.469 47.872C186.329 48.3107 186.124 48.7027 185.853 49.048C185.592 49.3933 185.261 49.6687 184.859 49.874C184.467 50.0793 184.01 50.182 183.487 50.182ZM183.501 49.3C183.865 49.3 184.169 49.216 184.411 49.048C184.663 48.8707 184.864 48.642 185.013 48.362C185.172 48.082 185.284 47.7833 185.349 47.466C185.415 47.1393 185.447 46.8267 185.447 46.528C185.447 46.22 185.415 45.9073 185.349 45.59C185.293 45.2633 185.195 44.9647 185.055 44.694C184.915 44.414 184.719 44.19 184.467 44.022C184.225 43.8447 183.921 43.756 183.557 43.756C183.193 43.756 182.885 43.8447 182.633 44.022C182.391 44.19 182.195 44.414 182.045 44.694C181.896 44.974 181.789 45.2773 181.723 45.604C181.658 45.9213 181.625 46.2293 181.625 46.528C181.625 46.8173 181.658 47.1253 181.723 47.452C181.789 47.7693 181.891 48.068 182.031 48.348C182.181 48.628 182.377 48.8567 182.619 49.034C182.862 49.2113 183.156 49.3 183.501 49.3ZM189.147 42.916C189.315 43.3267 189.423 43.7607 189.469 44.218C189.712 43.8353 190.039 43.5227 190.449 43.28C190.86 43.0373 191.294 42.916 191.751 42.916L191.471 44.148C191.023 44.148 190.641 44.2647 190.323 44.498C190.015 44.7313 189.74 45.0253 189.497 45.38V50H188.335V44.96C188.335 44.7733 188.321 44.5633 188.293 44.33C188.265 44.0967 188.219 43.868 188.153 43.644C188.088 43.42 187.999 43.2287 187.887 43.07L189.147 42.916ZM195.113 41.054C195.048 41.3713 194.987 41.7027 194.931 42.048C194.885 42.384 194.852 42.7153 194.833 43.042H196.653L196.415 43.924H194.833V48.376C194.833 48.5533 194.852 48.712 194.889 48.852C194.936 48.9827 195.011 49.0853 195.113 49.16C195.225 49.2253 195.379 49.258 195.575 49.258C195.725 49.258 195.874 49.244 196.023 49.216C196.173 49.188 196.317 49.1553 196.457 49.118L196.653 49.902C196.42 49.9673 196.196 50.0233 195.981 50.07C195.776 50.126 195.538 50.154 195.267 50.154C194.67 50.154 194.255 49.9953 194.021 49.678C193.788 49.3607 193.671 48.9173 193.671 48.348V43.924H192.635V43.224C192.915 43.2147 193.149 43.14 193.335 43C193.522 42.86 193.676 42.6827 193.797 42.468C193.919 42.244 194.017 42.0107 194.091 41.768C194.166 41.516 194.222 41.278 194.259 41.054H195.113ZM200.51 42.874C201.07 42.874 201.542 42.9907 201.924 43.224C202.307 43.448 202.592 43.7653 202.778 44.176C202.974 44.5773 203.072 45.0487 203.072 45.59C203.072 45.7207 203.063 45.856 203.044 45.996C203.035 46.1267 203.021 46.2667 203.002 46.416H198.578C198.578 47.3027 198.774 47.9887 199.166 48.474C199.558 48.9593 200.081 49.202 200.734 49.202C201.005 49.202 201.285 49.16 201.574 49.076C201.873 48.992 202.181 48.866 202.498 48.698L202.932 49.398C202.606 49.6593 202.237 49.8553 201.826 49.986C201.416 50.1167 201 50.182 200.58 50.182C200.03 50.182 199.549 50.084 199.138 49.888C198.737 49.6827 198.401 49.412 198.13 49.076C197.869 48.7307 197.673 48.3433 197.542 47.914C197.412 47.4847 197.346 47.046 197.346 46.598C197.346 46.1313 197.412 45.6787 197.542 45.24C197.673 44.8013 197.869 44.4047 198.13 44.05C198.401 43.686 198.732 43.4013 199.124 43.196C199.516 42.9813 199.978 42.874 200.51 42.874ZM200.398 43.756C200.081 43.756 199.801 43.8447 199.558 44.022C199.316 44.1993 199.12 44.428 198.97 44.708C198.821 44.9787 198.718 45.2587 198.662 45.548H201.854C201.864 45.156 201.808 44.8293 201.686 44.568C201.574 44.2973 201.406 44.0967 201.182 43.966C200.968 43.826 200.706 43.756 200.398 43.756Z" fill="black"/>
</svg>
